<?xml version="1.0" encoding="UTF-8" standalone="no"?>
<svg
   xmlns:dc="http://purl.org/dc/elements/1.1/"
   xmlns:cc="http://creativecommons.org/ns#"
   xmlns:rdf="http://www.w3.org/1999/02/22-rdf-syntax-ns#"
   xmlns:svg="http://www.w3.org/2000/svg"
   xmlns="http://www.w3.org/2000/svg"
   version="1.1"
   width="640"
   height="480"
   id="gr-flag-lrg">
  <metadata
     id="metadata3370">
    <rdf:RDF>
      <cc:Work
         rdf:about="">
        <dc:format>image/svg+xml</dc:format>
        <dc:type
           rdf:resource="http://purl.org/dc/dcmitype/StillImage" />
        <dc:title></dc:title>
      </cc:Work>
    </rdf:RDF>
  </metadata>
  <defs
     id="defs3337">
    <clipPath
       id="a">
      <path
         id="path3340"
         d="M0 0h120v90H0z"
         fill-opacity=".67" />
    </clipPath>
  </defs>
  <g
     id="g3342"
     stroke-width="1pt"
     transform="scale(5.33)"
     clip-path="url(#a)"
     fill-rule="evenodd">
    <path
       id="path3344"
       d="M0 0h135v10H0z"
       fill="#0d5eaf" />
    <path
       id="path3346"
       d="M0 10h135v10H0z"
       fill="#fff" />
    <path
       id="path3348"
       d="M0 20h135v10H0z"
       fill="#0d5eaf" />
    <path
       id="path3350"
       d="M0 30h135v10H0z"
       fill="#fff" />
    <path
       id="path3352"
       d="M0 40h135v10H0z"
       fill="#0d5eaf" />
    <path
       id="path3354"
       d="M0 50h135v10H0z"
       fill="#fff" />
    <path
       id="path3356"
       d="M0 60h135v10H0z"
       fill="#0d5eaf" />
    <path
       id="path3358"
       d="M0 70h135v10H0z"
       fill="#fff" />
    <path
       id="path3360"
       d="M0 80h135v10H0zM0 0h50v50H0z"
       fill="#0d5eaf" />
    <g
       id="g3362"
       fill="#fff">
      <path
         id="path3364"
         d="M20 0h10v50H20z" />
      <path
         id="path3366"
         d="M0 20h50v10H0z" />
    </g>
  </g>
</svg>
