<?xml version="1.0" encoding="UTF-8" standalone="no"?>
<svg width="181" height="33" viewBox="0 0 181 33" fill="none" xmlns="http://www.w3.org/2000/svg">
  <path fill-rule="evenodd" clip-rule="evenodd" d="M34.543 0.774902V31.6041H55.7907L58.7728 25.5708H41.2942V19.0957H55.8321V13.0624H41.2942V6.8082H57.9168V0.774902H34.543Z" fill="#1E1E46"/>
  <path fill-rule="evenodd" clip-rule="evenodd" d="M0 0.774902H12.0252C21.7171 0.774902 28.4131 7.42948 28.4131 16.0998V16.1964C28.4131 24.8667 21.6895 31.6041 12.0252 31.6041H0V0.774902ZM18.7282 22.9594C20.5014 21.2019 21.4427 18.7727 21.3166 16.2792V16.1964C21.4446 13.6938 20.5073 11.2541 18.7368 9.48086C16.9662 7.70766 14.5278 6.76677 12.0251 6.89104H6.77873V25.4879H12.0251C14.5173 25.6364 16.9549 24.7169 18.7282 22.9594Z" fill="#1E1E46"/>
  <rect x="105.354" y="0.774902" width="6.77883" height="30.8292" fill="#1E1E46"/>
  <path fill-rule="evenodd" clip-rule="evenodd" d="M134.997 25.9436C129.709 25.9436 126.05 21.5394 126.05 16.2792V16.1964C126.05 10.9086 129.792 6.53208 134.997 6.53208C137.982 6.61392 140.814 7.86893 142.88 10.025L147.201 5.04102C143.998 1.78837 139.555 0.0643377 134.997 0.305501C130.73 0.207066 126.609 1.85272 123.583 4.8623C120.558 7.87188 118.891 11.9851 118.968 16.2516V16.3483C118.888 20.5684 120.527 24.6396 123.508 27.6281C126.488 30.6166 130.555 32.2659 134.776 32.1978C139.615 32.3933 144.276 30.3577 147.422 26.6753L143.101 22.3125C140.685 24.5077 138.517 25.9159 134.997 25.9159" fill="#1E1E46"/>
  <path fill-rule="evenodd" clip-rule="evenodd" d="M90.4989 0.774902L81.2074 15.4371L71.9158 0.774902H65.5098V31.6041H72.1643V12.7863L81.2074 26.91L90.2642 12.7863V31.6041H96.9188V0.774902H90.4989Z" fill="#1E1E46"/>
  <path fill-rule="evenodd" clip-rule="evenodd" d="M164.693 0.305481L149.134 31.6041H156.437L164.693 14.1255L172.949 31.6041H180.253L164.693 0.305481Z" fill="#1E1E46"/>
</svg>
