<?xml version="1.0" encoding="UTF-8" standalone="no"?>
<svg
   xmlns:dc="http://purl.org/dc/elements/1.1/"
   xmlns:cc="http://creativecommons.org/ns#"
   xmlns:rdf="http://www.w3.org/1999/02/22-rdf-syntax-ns#"
   xmlns:svg="http://www.w3.org/2000/svg"
   xmlns="http://www.w3.org/2000/svg"
   viewBox="0 0 1122.52 793.70135"
   height="793.70135"
   width="1122.52"
   xml:space="preserve"
   id="svg2"
   version="1.1"><metadata
     id="metadata8"><rdf:RDF><cc:Work
         rdf:about=""><dc:format>image/svg+xml</dc:format><dc:type
           rdf:resource="http://purl.org/dc/dcmitype/StillImage" /></cc:Work></rdf:RDF></metadata><defs
     id="defs6"><clipPath
       id="clipPath20"
       clipPathUnits="userSpaceOnUse"><path
         id="path18"
         d="M 0,595.276 H 841.89 V 0 H 0 Z" /></clipPath></defs><g
     transform="matrix(1.3333333,0,0,-1.3333333,0,793.70133)"
     id="g10"><path
       id="path12"
       style="fill:#004481;fill-opacity:1;fill-rule:nonzero;stroke:none"
       d="m 413.151,277.826 h 0.5 v 40.495 h -0.5 z" /><g
       id="g14"><g
         clip-path="url(#clipPath20)"
         id="g16"><g
           transform="translate(334.8428,300.2502)"
           id="g22"><path
             id="path24"
             style="fill:#004481;fill-opacity:1;fill-rule:nonzero;stroke:none"
             d="m 0,0 2.621,3.913 c 0.662,0.981 0.804,1.596 0.804,2.285 0,1.92 -1.69,3.534 -3.633,3.534 H -4.24 v -23.117 h 2.232 c 3.738,0 6.573,2.017 6.573,6.742 C 4.565,-2.742 2.735,-0.664 0,0 M 1.569,-17.608 H -11.634 V 13.833 H 2.049 c 6.415,0 8.65,-5.227 5.402,-10.05 L 5.916,1.504 c 10.761,-5.589 7.263,-19.112 -4.347,-19.112" /></g><g
           transform="translate(308.2534,300.2502)"
           id="g26"><path
             id="path28"
             style="fill:#004481;fill-opacity:1;fill-rule:nonzero;stroke:none"
             d="m 0,0 2.621,3.913 c 0.663,0.981 0.804,1.596 0.804,2.285 0,1.92 -1.689,3.534 -3.633,3.534 H -4.24 v -23.117 h 2.233 c 3.737,0 6.571,2.017 6.571,6.742 C 4.564,-2.742 2.735,-0.664 0,0 M 1.569,-17.608 H -11.634 V 13.833 H 2.05 c 6.414,0 8.652,-5.227 5.402,-10.05 L 5.917,1.504 c 10.761,-5.589 7.262,-19.112 -4.348,-19.112" /></g><g
           transform="translate(367.6436,314.0852)"
           id="g30"><path
             id="path32"
             style="fill:#004481;fill-opacity:1;fill-rule:nonzero;stroke:none"
             d="m 0,0 h 4.96 l -9.579,-31.429 -7.543,0.002 -10.276,31.421 5.551,0.006 c 2.145,0 2.708,-0.555 3.83,-4.114 l 5.95,-19.76 L 0,0" /></g><g
           transform="translate(377.2656,294.0393)"
           id="g34"><path
             id="path36"
             style="fill:#004481;fill-opacity:1;fill-rule:nonzero;stroke:none"
             d="M 0,0 4.29,14.335 8.641,0 Z m 11.091,16.834 c -0.886,2.623 -1.483,3.201 -3.805,3.201 L 1.279,20.04 -8.342,-11.388 h 4.903 l 2.062,6.784 h 11.434 l 2.072,-6.781 h 8.496 l -9.534,28.219" /></g><g
           transform="translate(429.0391,307.8186)"
           id="g38"><path
             id="path40"
             style="fill:#49a5e6;fill-opacity:1;fill-rule:nonzero;stroke:none"
             d="m 0,0 c 0,4.078 2.285,6.697 5.432,6.697 2.109,0 3.656,-1.072 4.464,-3.041 L 8.789,3.129 c -0.615,1.6 -1.635,2.426 -3.357,2.426 -2.268,0 -4.184,-1.881 -4.184,-5.502 0,-3.604 1.705,-5.731 4.201,-5.731 2.18,0 3.621,1.565 3.604,4.166 H 5.994 l -0.193,1.073 h 4.465 V -6.557 H 9.141 v 1.881 H 9.105 C 8.508,-5.836 7.33,-6.803 5.344,-6.803 1.951,-6.803 0,-3.885 0,0" /></g><g
           transform="translate(442.2187,301.2619)"
           id="g42"><path
             id="path44"
             style="fill:#49a5e6;fill-opacity:1;fill-rule:nonzero;stroke:none"
             d="m 0,0 v 12.92 l 1.213,0.176 V 0 Z" /></g><g
           transform="translate(452.9756,305.885)"
           id="g46"><path
             id="path48"
             style="fill:#49a5e6;fill-opacity:1;fill-rule:nonzero;stroke:none"
             d="M 0,0 C 0,2.039 -1.02,3.779 -2.971,3.779 -4.852,3.779 -5.959,2.18 -5.959,0 c 0,-2.057 1.002,-3.779 2.988,-3.779 C -1.107,-3.779 0,-2.18 0,0 m -7.172,0 c 0,3.094 1.916,4.816 4.201,4.816 2.268,0 4.184,-1.722 4.184,-4.816 0,-3.076 -1.916,-4.816 -4.184,-4.816 -2.267,0 -4.201,1.74 -4.201,4.816" /></g><g
           transform="translate(463.3789,305.885)"
           id="g50"><path
             id="path52"
             style="fill:#49a5e6;fill-opacity:1;fill-rule:nonzero;stroke:none"
             d="m 0,0 c 0,2.549 -1.266,3.779 -2.813,3.779 -1.142,0 -1.951,-0.58 -2.882,-1.511 v -4.536 c 0.949,-0.966 1.81,-1.494 2.918,-1.494 C -1.23,-3.762 0,-2.619 0,0 M -5.695,-3.357 -5.73,-4.623 h -1.178 v 12.92 l 1.213,0.176 V 3.287 c 0.738,0.844 1.705,1.529 3.093,1.529 2.127,0 3.815,-1.564 3.815,-4.798 0,-3.235 -1.705,-4.799 -3.85,-4.799 -1.265,0 -2.232,0.58 -3.058,1.424" /></g><g
           transform="translate(472.4277,303.5647)"
           id="g54"><path
             id="path56"
             style="fill:#49a5e6;fill-opacity:1;fill-rule:nonzero;stroke:none"
             d="M 0,0 V 2.883 C -4.078,2.18 -5.08,1.213 -5.08,0.018 c 0,-0.967 0.633,-1.477 1.687,-1.477 1.301,0 2.444,0.545 3.393,1.459 m -6.275,-0.123 c 0,1.828 1.564,3.146 6.275,3.867 v 0.475 c 0,1.265 -0.686,1.898 -1.898,1.898 -1.442,0 -2.444,-0.58 -3.428,-1.459 l -0.686,0.756 c 1.108,1.02 2.321,1.723 4.201,1.723 2.057,0 3.006,-1.108 3.006,-2.953 V -2.303 H 0.123 L 0,-0.984 c -1.072,-0.95 -2.268,-1.477 -3.656,-1.477 -1.653,0 -2.619,0.897 -2.619,2.338" /></g><g
           transform="translate(476.4326,301.2619)"
           id="g58"><path
             id="path60"
             style="fill:#49a5e6;fill-opacity:1;fill-rule:nonzero;stroke:none"
             d="m 0,0 v 12.92 l 1.213,0.176 V 0 Z" /></g><g
           transform="translate(483.7432,303.0901)"
           id="g62"><path
             id="path64"
             style="fill:#49a5e6;fill-opacity:1;fill-rule:nonzero;stroke:none"
             d="m 0,0 0.721,0.932 c 1.09,-1.108 2.654,-1.881 4.447,-1.881 2.004,0 3.287,0.896 3.287,2.338 0,1.353 -0.668,2.056 -3.428,2.918 -2.795,0.879 -4.218,1.634 -4.218,3.779 0,1.863 1.67,3.34 4.043,3.34 1.986,0 3.427,-0.774 4.623,-1.846 L 8.842,8.596 C 7.664,9.65 6.434,10.301 4.852,10.301 3.094,10.301 2.039,9.334 2.039,8.174 2.039,6.715 2.918,6.205 5.643,5.344 8.35,4.482 9.686,3.586 9.686,1.459 9.686,-0.686 7.787,-2.074 5.186,-2.074 3.023,-2.074 1.301,-1.301 0,0" /></g><g
           transform="translate(495.833,303.7932)"
           id="g66"><path
             id="path68"
             style="fill:#49a5e6;fill-opacity:1;fill-rule:nonzero;stroke:none"
             d="M 0,0 V 6.715 H 1.213 V 0.246 c 0,-1.301 0.545,-1.933 1.846,-1.933 1.177,0 2.179,0.632 3.234,1.617 V 6.715 H 7.506 V -2.531 H 6.416 L 6.293,-1.072 C 5.361,-1.969 4.184,-2.725 2.777,-2.725 0.932,-2.725 0,-1.723 0,0" /></g><g
           transform="translate(513.0391,305.885)"
           id="g70"><path
             id="path72"
             style="fill:#49a5e6;fill-opacity:1;fill-rule:nonzero;stroke:none"
             d="m 0,0 c 0,2.549 -1.266,3.779 -2.813,3.779 -1.142,0 -1.951,-0.58 -2.882,-1.511 v -4.536 c 0.949,-0.966 1.81,-1.494 2.918,-1.494 C -1.23,-3.762 0,-2.654 0,0 m -6.908,-8.227 v 12.85 h 1.09 l 0.123,-1.301 c 0.738,0.809 1.705,1.494 3.093,1.494 2.127,0 3.815,-1.564 3.815,-4.798 0,-3.235 -1.705,-4.799 -3.85,-4.799 -1.265,0 -2.232,0.58 -3.058,1.424 v -4.694 z" /></g><g
           transform="translate(523.46,305.885)"
           id="g74"><path
             id="path76"
             style="fill:#49a5e6;fill-opacity:1;fill-rule:nonzero;stroke:none"
             d="m 0,0 c 0,2.549 -1.266,3.779 -2.813,3.779 -1.142,0 -1.951,-0.58 -2.882,-1.511 v -4.536 c 0.949,-0.966 1.81,-1.494 2.918,-1.494 C -1.23,-3.762 0,-2.654 0,0 m -6.908,-8.227 v 12.85 h 1.09 l 0.123,-1.301 c 0.738,0.809 1.705,1.494 3.093,1.494 2.127,0 3.815,-1.564 3.815,-4.798 0,-3.235 -1.705,-4.799 -3.85,-4.799 -1.265,0 -2.232,0.58 -3.058,1.424 v -4.694 z" /></g><g
           transform="translate(527.0771,301.2619)"
           id="g78"><path
             id="path80"
             style="fill:#49a5e6;fill-opacity:1;fill-rule:nonzero;stroke:none"
             d="m 0,0 v 12.92 l 1.213,0.176 V 0 Z" /></g><g
           transform="translate(530.2754,297.8518)"
           id="g82"><path
             id="path84"
             style="fill:#49a5e6;fill-opacity:1;fill-rule:nonzero;stroke:none"
             d="M 0,0 -0.088,1.055 C 0.229,0.984 0.65,0.896 1.248,0.896 c 1.02,0 1.529,0.458 1.916,1.442 L 3.551,3.357 0.018,12.551 1.23,12.779 4.148,4.852 h 0.036 l 2.865,7.804 H 8.314 L 4.324,2.338 C 3.691,0.686 3.006,-0.123 1.23,-0.123 0.721,-0.123 0.334,-0.088 0,0" /></g><g
           transform="translate(429.0391,289.3186)"
           id="g86"><path
             id="path88"
             style="fill:#49a5e6;fill-opacity:1;fill-rule:nonzero;stroke:none"
             d="m 0,0 c 0,3.92 2.162,6.697 5.379,6.697 2.215,0 3.674,-1.054 4.465,-2.865 L 8.771,3.27 C 8.156,4.729 7.119,5.555 5.379,5.555 2.848,5.555 1.248,3.34 1.248,0.035 c 0,-3.586 1.635,-5.713 4.184,-5.713 1.757,0 2.97,0.932 3.621,2.602 l 1.072,-0.492 C 9.352,-5.59 7.752,-6.803 5.414,-6.803 2.145,-6.803 0,-4.113 0,0" /></g><g
           transform="translate(441.6562,282.7619)"
           id="g90"><path
             id="path92"
             style="fill:#49a5e6;fill-opacity:1;fill-rule:nonzero;stroke:none"
             d="m 0,0 v 12.92 l 1.213,0.176 V 7.787 c 0.914,0.914 2.092,1.652 3.498,1.652 1.863,0 2.795,-1.001 2.795,-2.724 V 0 H 6.293 V 6.469 C 6.293,7.77 5.73,8.402 4.43,8.402 3.252,8.402 2.25,7.787 1.213,6.785 V 0 Z" /></g><g
           transform="translate(457.5791,285.0647)"
           id="g94"><path
             id="path96"
             style="fill:#49a5e6;fill-opacity:1;fill-rule:nonzero;stroke:none"
             d="M 0,0 V 2.883 C -4.078,2.18 -5.08,1.213 -5.08,0.018 c 0,-0.967 0.633,-1.477 1.687,-1.477 1.301,0 2.444,0.545 3.393,1.459 m -6.275,-0.123 c 0,1.828 1.564,3.146 6.275,3.867 v 0.475 c 0,1.265 -0.686,1.898 -1.898,1.898 -1.442,0 -2.444,-0.58 -3.428,-1.459 l -0.686,0.756 c 1.108,1.02 2.321,1.723 4.201,1.723 2.057,0 3.006,-1.108 3.006,-2.953 V -2.303 H 0.123 L 0,-0.984 c -1.072,-0.95 -2.268,-1.477 -3.656,-1.477 -1.653,0 -2.619,0.897 -2.619,2.338" /></g><path
           id="path98"
           style="fill:#49a5e6;fill-opacity:1;fill-rule:nonzero;stroke:none"
           d="m 461.584,292.008 h 1.213 v -9.246 h -1.213 z m -0.141,2.813 c 0,0.457 0.282,0.738 0.739,0.738 0.457,0 0.738,-0.281 0.738,-0.738 0,-0.475 -0.281,-0.774 -0.738,-0.774 -0.457,0 -0.739,0.299 -0.739,0.774" /><g
           transform="translate(465.6963,282.7619)"
           id="g100"><path
             id="path102"
             style="fill:#49a5e6;fill-opacity:1;fill-rule:nonzero;stroke:none"
             d="M 0,0 V 9.246 H 1.09 L 1.213,7.787 c 0.914,0.914 2.092,1.652 3.498,1.652 1.863,0 2.795,-1.001 2.795,-2.724 V 0 H 6.293 V 6.469 C 6.293,7.77 5.73,8.42 4.43,8.42 3.252,8.42 2.25,7.805 1.213,6.803 V 0 Z" /></g><g
           transform="translate(480.1406,282.7619)"
           id="g104"><path
             id="path106"
             style="fill:#49a5e6;fill-opacity:1;fill-rule:nonzero;stroke:none"
             d="m 0,0 v 13.008 h 7.611 v -1.16 H 1.248 V 7.365 H 5.941 L 6.117,6.24 H 1.248 V 0 Z" /></g><path
           id="path108"
           style="fill:#49a5e6;fill-opacity:1;fill-rule:nonzero;stroke:none"
           d="m 489.929,292.008 h 1.213 v -9.246 h -1.213 z m -0.141,2.813 c 0,0.457 0.281,0.738 0.738,0.738 0.457,0 0.739,-0.281 0.739,-0.738 0,-0.475 -0.282,-0.774 -0.739,-0.774 -0.457,0 -0.738,0.299 -0.738,0.774" /><g
           transform="translate(494.041,282.7619)"
           id="g110"><path
             id="path112"
             style="fill:#49a5e6;fill-opacity:1;fill-rule:nonzero;stroke:none"
             d="M 0,0 V 9.246 H 1.09 L 1.213,7.787 c 0.914,0.914 2.092,1.652 3.498,1.652 1.863,0 2.795,-1.001 2.795,-2.724 V 0 H 6.293 V 6.469 C 6.293,7.77 5.73,8.42 4.43,8.42 3.252,8.42 2.25,7.805 1.213,6.803 V 0 Z" /></g><g
           transform="translate(509.9639,285.0647)"
           id="g114"><path
             id="path116"
             style="fill:#49a5e6;fill-opacity:1;fill-rule:nonzero;stroke:none"
             d="M 0,0 V 2.883 C -4.078,2.18 -5.08,1.213 -5.08,0.018 c 0,-0.967 0.633,-1.477 1.687,-1.477 1.301,0 2.444,0.545 3.393,1.459 m -6.275,-0.123 c 0,1.828 1.564,3.146 6.275,3.867 v 0.475 c 0,1.265 -0.686,1.898 -1.898,1.898 -1.442,0 -2.444,-0.58 -3.428,-1.459 l -0.686,0.756 c 1.108,1.02 2.321,1.723 4.201,1.723 2.057,0 3.006,-1.108 3.006,-2.953 V -2.303 H 0.123 L 0,-0.984 c -1.072,-0.95 -2.268,-1.477 -3.656,-1.477 -1.653,0 -2.619,0.897 -2.619,2.338" /></g><g
           transform="translate(513.8633,282.7619)"
           id="g118"><path
             id="path120"
             style="fill:#49a5e6;fill-opacity:1;fill-rule:nonzero;stroke:none"
             d="M 0,0 V 9.246 H 1.09 L 1.213,7.787 c 0.914,0.914 2.092,1.652 3.498,1.652 1.863,0 2.795,-1.001 2.795,-2.724 V 0 H 6.293 V 6.469 C 6.293,7.77 5.73,8.42 4.43,8.42 3.252,8.42 2.25,7.805 1.213,6.803 V 0 Z" /></g><g
           transform="translate(523.5459,287.385)"
           id="g122"><path
             id="path124"
             style="fill:#49a5e6;fill-opacity:1;fill-rule:nonzero;stroke:none"
             d="m 0,0 c 0,3.322 2.057,4.816 4.131,4.816 1.687,0 2.777,-0.914 3.41,-2.197 L 6.592,2.039 C 6.064,3.164 5.361,3.797 4.096,3.797 2.725,3.797 1.213,2.76 1.213,0 c 0,-2.373 1.23,-3.797 2.865,-3.797 1.248,0 1.969,0.615 2.584,1.811 l 0.897,-0.58 C 6.785,-4.043 5.66,-4.816 4.008,-4.816 1.881,-4.816 0,-3.076 0,0" /></g><g
           transform="translate(539.3809,288.1057)"
           id="g126"><path
             id="path128"
             style="fill:#49a5e6;fill-opacity:1;fill-rule:nonzero;stroke:none"
             d="M 0,0 C -0.123,1.758 -0.967,3.076 -2.619,3.076 -3.955,3.076 -5.221,2.074 -5.432,0 Z m -6.662,-0.703 c 0,3.269 2.109,4.799 4.06,4.799 2.145,0 3.78,-1.653 3.78,-4.817 v -0.228 h -6.627 c 0.017,-2.268 1.318,-3.569 3.041,-3.569 1.23,0 2.109,0.475 2.97,1.372 L 1.16,-3.938 c -1.019,-1.072 -2.039,-1.599 -3.586,-1.599 -2.338,0 -4.236,1.67 -4.236,4.834" /></g></g></g></g></svg>