<?xml version="1.0" standalone="yes"?>

<svg version="1.1" viewBox="0.0 0.0 960.0 720.0" fill="rgb(0,121,193)" stroke="rgb(0,121,193)" stroke-linecap="square" stroke-miterlimit="10" xmlns="http://www.w3.org/2000/svg" xmlns:xlink="http://www.w3.org/1999/xlink"><clipPath id="p.0"><path d="m0 0l960.0 0l0 720.0l-960.0 0l0 -720.0z" clip-rule="nonzero"></path></clipPath><g clip-path="url(#p.0)"><path fill="white" fill-opacity="1" d="m0 0l960.0 0l0 720.0l-960.0 0z" fill-rule="evenodd"></path><path fill="#rgb(0,121,193)" d="m810.2544 586.3572c-138.96265 141.68317 -383.11758 173.10632 -566.5414 72.914856c-183.42383 -100.19147 -247.28835 -299.86392 -148.19238 -463.32346c99.095955 -163.45953 329.3701 -238.281 534.33215 -173.61707c204.9621 64.66394 318.87616 248.0741 264.3282 425.5882l-61.855103 -13.308075l0 0c47.971313 -145.79892 -47.262146 -297.45566 -221.13959 -352.159c-173.87747 -54.703354 -370.81747 5.0331116 -457.31036 138.71281c-86.49289 133.67972 -34.890434 298.5707 119.82501 382.8901c154.71545 84.319336 363.0877 61.113586 483.85693 -53.88568z" fill-rule="evenodd"></path><path fill="#rgb(0,121,193)" d="m618.4516 400.36285l93.28882 -31.583008l-16.463684 28.154236l197.65918 80.96588l-32.927307 56.30847l-197.65918 -80.96585l-16.463684 28.154266z" fill-rule="evenodd"></path><path stroke="#ffffff" stroke-width="1.0" stroke-linejoin="round" stroke-linecap="butt" d="m618.4516 400.36285l93.28882 -31.583008l-16.463684 28.154236l197.65918 80.96588l-32.927307 56.30847l-197.65918 -80.96585l-16.463684 28.154266z" fill-rule="evenodd"></path><path fill="rgb(0,121,193)" d="m658.4754 546.0025l0 0c-108.07349 65.11688 -257.33264 62.455994 -361.72565 -6.4486694c-104.392975 -68.90469 -137.00676 -186.28912 -79.03862 -284.4781c57.968155 -98.18895 191.57375 -151.86884 323.7896 -130.09175c132.21588 21.77707 228.95612 113.396866 234.44739 222.03812l-73.9624 2.4269104l0 0c-4.4298706 -73.972595 -75.87225 -136.36928 -173.7276 -151.73112c-97.85535 -15.361847 -197.36337 20.19815 -241.97537 86.47188c-44.612015 66.27371 -23.039825 146.49191 52.45746 195.06796c75.497314 48.57605 185.81662 53.21881 268.26535 11.289825z" fill-rule="evenodd"></path><path fill="rgb(0,121,193)" d="m364.4797 352.9298l0 0c0 -53.63211 53.93341 -97.10956 120.46362 -97.10956l0 0c66.53018 0 120.46359 43.477448 120.46359 97.10956l0 0c0 53.63214 -53.93341 97.10959 -120.46359 97.10959l0 0c-66.53021 0 -120.46362 -43.477448 -120.46362 -97.10959z" fill-rule="evenodd"></path></g></svg>

