<?xml version="1.0" standalone="no"?>
<!DOCTYPE svg PUBLIC "-//W3C//DTD SVG 20010904//EN"
 "http://www.w3.org/TR/2001/REC-SVG-20010904/DTD/svg10.dtd">
<svg version="1.0" xmlns="http://www.w3.org/2000/svg"
 width="10.000000pt" height="10.000000pt" viewBox="0 0 53.000000 52.000000"
 preserveAspectRatio="xMidYMid meet">

<g transform="translate(0.000000,52.000000) scale(0.100000,-0.100000)"
fill="#006A4D" stroke="none">
<path d="M182 501 c-60 -21 -114 -68 -143 -123 -27 -52 -25 -78 5 -78 13 0 38
-3 55 -6 24 -5 31 -3 31 9 0 25 48 75 85 89 34 12 35 13 35 70 0 32 -3 58 -7
58 -5 -1 -32 -9 -61 -19z" fill="#006A4D"/>
<path d="M280 463 c1 -58 1 -58 42 -78 72 -34 98 -96 76 -176 -7 -22 -2 -29
37 -57 l45 -31 17 32 c26 48 24 170 -4 223 -31 59 -93 110 -154 128 -29 9 -54
16 -56 16 -2 0 -3 -26 -3 -57z" fill="#006A4D"/>
<path d="M13 232 c3 -28 13 -65 22 -82 l16 -30 37 27 c20 15 41 30 45 34 14
11 -14 89 -32 89 -9 0 -34 3 -55 7 l-39 6 6 -51z" fill="#006A4D"/>
<path d="M115 139 c-22 -17 -41 -34 -43 -39 -4 -11 56 -56 101 -75 55 -23 143
-19 202 9 49 23 93 61 83 71 -3 3 -23 19 -44 34 l-38 29 -29 -22 c-40 -29
-121 -29 -162 1 l-31 21 -39 -29z" fill="#006A4D"/>
</g>
</svg>
