<?xml version="1.0" standalone="no"?>
<!DOCTYPE svg PUBLIC "-//W3C//DTD SVG 20010904//EN"
 "http://www.w3.org/TR/2001/REC-SVG-20010904/DTD/svg10.dtd">
<svg version="1.0" xmlns="http://www.w3.org/2000/svg"
 width="12.000000pt" height="12.000000pt" viewBox="0 0 51.000000 51.000000"
 preserveAspectRatio="xMidYMid meet">

<g transform="translate(0.000000,51.000000) scale(0.100000,-0.100000)"
fill="#000000" stroke="none">
<path d="M362 477 l-22 -23 53 -52 c29 -29 57 -52 63 -52 6 0 19 9 29 20 18
20 18 22 -35 75 -30 30 -57 55 -60 55 -4 0 -16 -10 -28 -23z"/>
<path d="M177 285 c-127 -131 -128 -132 -147 -206 -11 -40 -18 -74 -17 -75 1
-1 34 5 72 14 l70 17 135 138 134 137 -54 55 c-30 30 -57 54 -60 54 -3 -1 -63
-61 -133 -134z m-54 -236 c-10 -3 -33 -10 -50 -13 -37 -9 -39 -4 -22 58 l11
38 39 -38 c34 -33 37 -39 22 -45z"/>
</g>
</svg>
