<?xml version="1.0" standalone="no"?>
<!DOCTYPE svg PUBLIC "-//W3C//DTD SVG 20010904//EN"
 "http://www.w3.org/TR/2001/REC-SVG-20010904/DTD/svg10.dtd">
<svg version="1.0" xmlns="http://www.w3.org/2000/svg"
 width="15.000000pt" height="15.000000pt" viewBox="10 -25 119.000000 119.000000">

<g transform="translate(0.000000,119.000000) scale(0.100000,-0.100000)"
fill="#006A4D">
<path d="M507 919 c-35 -19 -40 -19 -56 -5 -39 36 -111 4 -111 -49 0 -19 -9
-28 -46 -44 -28 -13 -44 -26 -41 -33 2 -7 26 -89 53 -182 l48 -169 -12 -80
c-7 -44 -10 -83 -7 -85 4 -5 532 237 565 258 17 12 24 6 -70 63 -48 28 -69 54
-160 187 -58 84 -110 155 -115 156 -6 2 -27 -6 -48 -17z"/>
<path d="M638 377 c-49 -22 -88 -46 -88 -53 0 -22 51 -54 87 -54 18 0 45 7 58
16 29 19 50 80 38 110 -8 21 -9 21 -95 -19z"/>
</g>
</svg>
