<?xml version="1.0" standalone="no"?>
<!DOCTYPE svg PUBLIC "-//W3C//DTD SVG 20010904//EN"
 "http://www.w3.org/TR/2001/REC-SVG-20010904/DTD/svg10.dtd">
<svg version="1.0" xmlns="http://www.w3.org/2000/svg"
 width="20.000000pt" height="20.000000pt" viewBox="-20 -25 119.000000 119.000000"
 preserveAspectRatio="xMidYMid meet">

<g transform="translate(0.000000,119.000000) scale(0.100000,-0.100000)"
fill="#006A4D" stroke="none">
<path d="M590 900 c0 -22 -5 -30 -18 -30 -46 0 -122 -33 -166 -71 -73 -64 -91
-107 -91 -214 0 -81 3 -95 28 -137 37 -62 44 -65 74 -35 l25 25 -27 56 c-22
46 -27 66 -23 106 8 86 82 168 166 185 31 6 32 5 32 -24 l0 -31 70 47 c38 27
69 51 70 54 0 3 -31 27 -70 53 l-70 46 0 -30z"/>
<path d="M756 761 l-27 -28 25 -38 c46 -68 47 -147 1 -216 -29 -45 -86 -86
-133 -95 -31 -6 -32 -5 -32 25 l0 32 -70 -48 c-38 -26 -70 -51 -70 -54 0 -3
32 -27 70 -53 l70 -46 0 29 c0 26 4 29 45 34 59 9 112 36 156 84 61 64 74 97
74 193 0 75 -3 91 -29 138 -41 73 -48 77 -80 43z"/>
</g>
</svg>
