<?xml version="1.0" encoding="utf-8"?>
<!-- Generator: Adobe Illustrator 21.1.0, SVG Export Plug-In . SVG Version: 6.00 Build 0)  -->
<svg version="1.1" id="Layer_1" xmlns="http://www.w3.org/2000/svg" xmlns:xlink="http://www.w3.org/1999/xlink" x="0px" y="0px"
	 viewBox="10 0 32 32" style="enable-background:new 0 0 42 42;" xml:space="preserve">
<style type="text/css">
	.st0{display:none;}
	.st1{display:inline;}
	.st2{fill:#ACAAAA;}
</style>
<g id="Private" class="st0">
	<g class="st1">
		<g>
			<g>
				<path class="st2" d="M25.6,30.9H6.8l0.3-1.2c0.6-2.7,3.4-6.5,7.2-7.5c-2.2-0.9-3.8-3-3.8-5.4c0-3.2,2.6-5.7,5.7-5.7
					s5.7,2.6,5.7,5.7c0,2.5-1.6,4.6-3.8,5.4c3.9,1,6.6,4.8,7.2,7.6L25.6,30.9z M9.4,29H23c-1-2.3-3.7-5-6.8-5S10.5,26.6,9.4,29z
					 M16.2,13.2c-2.1,0-3.7,1.7-3.7,3.7s1.7,3.7,3.7,3.7s3.7-1.7,3.7-3.7S18.3,13.2,16.2,13.2z M35,27.8H24.7v-2h8.1
					c-0.5-2.1-2.4-3.6-4.6-3.6c-1.8,0-3.5,1.4-4.3,2.8l-1.7-1c0.8-1.3,2.2-2.7,3.9-3.4c-1.2-0.7-2-2-2-3.5c0-2.2,1.8-4,4.1-4
					c2.2,0,4,1.8,4,4c0,1.4-0.7,2.7-1.9,3.4c2.6,0.9,4.5,3.4,4.5,6.3v1H35z M28.2,15c-1.1,0-2.1,0.9-2.1,2s0.9,2.1,2.1,2.1
					c1.1,0,2-0.9,2-2.1C30.3,16,29.4,15,28.2,15z"/>
			</g>
		</g>
	</g>
</g>
<g id="Public">
	<path d="M28.2,20.1c1.7,0,3.1-1.4,3.1-3.1s-1.4-3.1-3.1-3.1s-3.1,1.4-3.1,3.1S26.5,20.1,28.2,20.1"/>
	<path d="M16.4,21.2c2.7,0,4.8-2.2,4.8-4.8c0-2.7-2.2-4.8-4.8-4.8c-2.7,0-4.8,2.2-4.8,4.8C11.5,19,13.7,21.2,16.4,21.2"/>
	<path d="M24.7,30.3c-0.6-4.1-4.1-7.2-8.4-7.2c-4.2,0-7.8,3.1-8.4,7.2H24.7z"/>
	<path d="M28.2,21.2c-2.2,0-4,1.2-5.1,2.9c0.9,0.8,1.6,1.8,2.1,3H34C34.1,23.8,31.5,21.2,28.2,21.2z"/>
</g>
</svg>
