<?xml version="1.0" encoding="utf-8"?>
<!-- Generator: Adobe Illustrator 21.1.0, SVG Export Plug-In . SVG Version: 6.00 Build 0)  -->
<svg version="1.1" id="Layer_1" xmlns="http://www.w3.org/2000/svg" xmlns:xlink="http://www.w3.org/1999/xlink" x="0px" y="0px"
	 viewBox="5 -10 42 42" style="enable-background:new 0 0 42 42;" xml:space="preserve">
<style type="text/css">
	.st0{display:none;}
	.st1{display:inline;fill:#ACAAAA;}
</style>
<g id="Private" class="st0">
	<path class="st1" d="M28.4,11.9v-1.5h-2V12H15.6v-1.6h-2V12H8.8v20.8h24.4V11.9H28.4z M31.2,30.8H10.8v-9.9h20.4V30.8z M31.2,18.9
		H10.8V14h2.7v2.1h2V14h10.9v2.1h2V14h2.7v4.9H31.2z" fill="#006A4D"/>
</g>
<g id="Public">
	<g>
		<rect x="15.8" y="10.2" width="1.7" height="4.8" fill="#006A4D"/>
		<path d="M29.7,29.4H12.2v-10h17.5V29.4z M27.5,12.2V16h-4v-3.8h-5v3.7h-3.9v-3.7H9.9v19.7h22.3V12.2H27.5z" fill="#006A4D"/>
		<rect x="24.6" y="10.1" width="1.7" height="4.8" fill="#006A4D"/>
	</g>
</g>
</svg>
