<?xml version="1.0" encoding="utf-8"?>
<!-- Generator: Adobe Illustrator 21.1.0, SVG Export Plug-In . SVG Version: 6.00 Build 0)  -->
<svg version="1.1" id="Layer_1" xmlns="http://www.w3.org/2000/svg" xmlns:xlink="http://www.w3.org/1999/xlink" x="0px" y="0px" height="24" width="24"
	 viewBox="10 10 25 25" style="enable-background:new 10 0 42 42;" xml:space="preserve" fill="#ffffff">
<style type="text/css">
	.st0{display:none;}
	.st1{display:inline;}
</style>
<g id="Private" class="st0">
	<g class="st1">
		<g>
			<g>
				<path class="st2" d="M21.3,33.8c-0.7,0-2-0.2-2.1-0.2l-0.9-0.1v-1.8c-0.5-0.2-1-0.4-1.5-0.7l-1,1.3L15,31.8
					c-1.3-0.9-2.2-1.8-3-2.9l-0.5-0.7l1.3-1.1c-0.3-0.5-0.5-1-0.7-1.6h-1.8l-0.1-0.9c0-0.1-0.2-1.4-0.2-2.1s0.2-2,0.2-2.1l0.1-0.9
					h1.8c0.2-0.8,0.5-1.5,0.8-2.1l-1.3-1.5l0.4-0.6c0.9-1.3,1.8-2.2,2.9-3l0.7-0.5l1.1,1.3c0.5-0.3,1-0.5,1.6-0.7v-1.9l0.9-0.1
					c0.1,0,1.4-0.2,2.1-0.2s2,0.2,2.1,0.2l0.9,0.1v1.8c0.6,0.2,1.4,0.5,2.2,0.8l1.5-1.3l0.6,0.6c0.2,0.2,2.1,1.8,2.9,3l0.5,0.7
					l-1.3,1.4c0.4,0.7,0.6,1.5,0.8,2.1h1.8l0.2,0.8c0,0.1,0.2,1.4,0.2,2.1s-0.2,2-0.2,2.1l-0.1,0.9h-1.9c-0.2,0.5-0.4,1.1-0.7,1.5
					l1.2,1l-0.5,0.8c-0.8,1.1-1.8,2.1-3,3l-0.7,0.5L26.4,31c-0.7,0.4-1.5,0.6-2.1,0.8v1.8l-0.8,0.2C23.3,33.8,22,33.8,21.3,33.8z
					 M20.3,31.9c0.4,0,0.8,0.1,1,0.1s0.6,0,1-0.1v-1.6l0.8-0.2c1.2-0.3,2.3-0.7,2.9-1.1l0.6-0.4l1.3,1.2c0.5-0.4,0.9-0.8,1.3-1.3
					l-1.1-0.9l0.5-0.8c0.5-0.8,1-1.6,1.2-2.4l0.2-0.8h1.6c0-0.4,0.1-0.8,0.1-1s0-0.6-0.1-1H30l-0.2-0.8c-0.3-1.2-0.7-2.3-1.1-2.9
					l-0.4-0.6l1.2-1.3c-0.4-0.5-1-1-1.4-1.4l-1.3,1.1l-0.6-0.4c-0.8-0.5-2.1-1-2.9-1.2l-0.8-0.2v-1.6c-0.4,0-0.8-0.1-1-0.1
					s-0.6,0-1,0.1v1.6l-0.8,0.2c-0.8,0.2-1.5,0.5-2.4,1.1l-0.7,0.5l-1-1.2c-0.4,0.4-0.9,0.8-1.3,1.3l1.2,1.4l-0.4,0.6
					c-0.4,0.6-0.8,1.7-1.1,2.9l-0.2,0.8h-1.6c0,0.4-0.1,0.8-0.1,1s0,0.6,0.1,1h1.6l0.2,0.8c0.2,0.8,0.5,1.5,1.1,2.4l0.5,0.7l-1.2,1
					c0.3,0.4,0.7,0.8,1.2,1.1l0.9-1.2l0.8,0.5c0.9,0.6,1.6,0.9,2.4,1.1l0.8,0.2v1.8H20.3z M21.8,27.9c-3.2,0-5.8-2.6-5.8-5.8
					s2.6-5.8,5.8-5.8s5.8,2.6,5.8,5.8C27.7,25.2,25,27.9,21.8,27.9z M21.8,18.1c-2.1,0-3.8,1.7-3.8,3.8s1.7,3.8,3.8,3.8
					s3.8-1.7,3.8-3.8C25.7,20,23.9,18.1,21.8,18.1z"/>
			</g>
		</g>
	</g>
</g>
<g id="Public">
	<g>
		<path d="M30.7,16.6L30.7,16.6c-0.5-1.2-1.3-2.2-2.1-3L27.2,15c-0.7-0.7-1.6-1.3-2.5-1.7l0.9-1.9c-1.1-0.5-2.3-0.8-3.6-1l-0.1,2
			c-1-0.1-2,0-3,0.3l-0.5-1.8c-0.6,0.2-1.2,0.4-1.7,0.6c-0.6,0.3-1.1,0.6-1.6,0.9l1.1,1.6c-0.8,0.6-1.6,1.3-2.1,2.1L12.5,15
			c-0.7,1-1.2,2.1-1.6,3.3l1.8,0.5c-0.3,1-0.4,2-0.3,3L10.5,22c0.1,1.2,0.4,2.4,1,3.6l1.7-0.8c0.4,0.9,1,1.8,1.7,2.5l-1.3,1.2
			c0.9,0.9,1.9,1.6,3,2.1l0.8-1.7c0.9,0.4,1.9,0.7,2.9,0.8l-0.2,1.9c1.2,0.1,2.5,0,3.7-0.3l-0.5-1.9c0.5-0.1,1-0.3,1.4-0.5
			c0.5-0.2,0.9-0.5,1.3-0.8l1.1,1.6c1-0.7,1.9-1.6,2.6-2.6L28.1,26c0.6-0.8,1-1.8,1.3-2.7l1.8,0.5c0.3-1.2,0.4-2.4,0.3-3.7l-1.9,0.2
			c-0.1-1-0.3-2-0.8-2.9L30.7,16.6z M25.2,19.1c1.1,2.3,0.1,5-2.2,6.1s-5,0.1-6.1-2.2s-0.1-5,2.2-6.1S24.2,16.8,25.2,19.1"/>
	</g>
</g>
</svg>
