<?xml version="1.0" encoding="utf-8"?>
<!-- Generator: Adobe Illustrator 21.1.0, SVG Export Plug-In . SVG Version: 6.00 Build 0)  -->
<svg version="1.1" id="Layer_1" xmlns="http://www.w3.org/2000/svg" xmlns:xlink="http://www.w3.org/1999/xlink" x="0px" y="0px"
	 viewBox="12 12 18 18" style="enable-background:new 11 11 21 21;" xml:space="preserve">
<path d="M21,11.1c-5.5,0-10,4.5-10,10s4.5,10,10,10s10-4.5,10-10S26.5,11.1,21,11.1z M21,26.7c-0.5,0-0.9-0.4-0.9-0.9
	c0-0.6,0.4-0.9,0.9-0.9s0.9,0.4,0.9,0.9S21.5,26.7,21,26.7z M21.8,22.6V24h-1.7v-3H21c1.1,0,2-0.9,2-1.9c0-1.1-0.9-1.9-2-1.9
	s-2,0.9-2,1.9h-1.7c0-2,1.6-3.4,3.6-3.4s3.7,1.6,3.7,3.5C24.6,20.8,23.4,22.2,21.8,22.6z" fill="#ffffff"/>
</svg>
