<?xml version="1.0" encoding="utf-8"?>
<!-- Generator: Adobe Illustrator 21.1.0, SVG Export Plug-In . SVG Version: 6.00 Build 0)  -->
<svg version="1.1" id="Layer_1" xmlns="http://www.w3.org/2000/svg" xmlns:xlink="http://www.w3.org/1999/xlink" x="0px" y="0px"
	 viewBox="5 -10 42 42" style="enable-background:new 5 -10 42 42;" xml:space="preserve">
<style type="text/css">
	.st0{display:none;}
	.st1{display:inline;}
	.st2{fill:#ACAAAA;}
</style>
<g id="Private" class="st0">
	<g class="st1">
		<g>
			<g>
				<path class="st2" d="M31.6,32.9h-8V24h-5v8.9h-8.3V20.1L9,20.9l-1.8-4L20.9,9l4.5,2.6v-2h5.2v5.1l4,2.4L32.8,21l-1.3-0.8v12.7
					H31.6z M25.6,30.9h4V16.6L32,18l0.1-0.3l-3.5-2v-4.2h-1.1V15L21,11.3L9.8,17.6l0.1,0.3l2.3-1.4v14.4h4.3V22h9v8.9H25.6z"/>
			</g>
		</g>
	</g>
</g>
<g id="Public">
	<polygon points="33.5,17.6 29.7,15.5 29.7,10.9 26.5,10.9 26.5,13.6 21,10.4 8.5,17.6 9.5,19.1 11.3,18.1 11.3,31.6 17.1,31.6 
		17.1,23.1 24.8,23.1 24.8,31.6 30.7,31.6 30.7,18.1 32.5,19.1 	" fill="#006A4D"/>
</g>
</svg>
