<?xml version="1.0" encoding="utf-8"?>
<!-- Generator: Adobe Illustrator 21.1.0, SVG Export Plug-In . SVG Version: 6.00 Build 0)  -->
<svg version="1.1" id="Layer_1" xmlns="http://www.w3.org/2000/svg" xmlns:xlink="http://www.w3.org/1999/xlink" x="0px" y="0px"
	 viewBox="5 0 42 42" style="enable-background:new 0 0 42 42;" xml:space="preserve">
<style type="text/css">
	.st0{display:none;}
	.st1{display:inline;}
	.st2{fill:#ACAAAA;}
</style>
<g id="Private" class="st0">
	<g class="st1">
		<g>
			<g>
				<path class="st2" d="M10.6,32.8c-2,0-3.7-1.6-3.7-3.7c0-1.9,1.5-3.5,3.4-3.7l3.6-6.7c-0.3-0.6-0.5-1.2-0.5-1.8
					c0-2,1.6-3.7,3.7-3.7s3.7,1.6,3.7,3.7c0,0.3,0,0.6-0.1,0.9l2.8,2.9c0.2-0.1,0.5-0.1,0.7-0.1l3.9-6.2c-0.2-0.5-0.4-1-0.4-1.6
					c0-2,1.6-3.7,3.7-3.7c2,0,3.7,1.6,3.7,3.7c0,2-1.6,3.6-3.6,3.7l-4,6.2c0.2,0.5,0.4,1.1,0.4,1.6c0,2-1.6,3.7-3.7,3.7
					s-3.6-1.7-3.6-3.7c0-0.3,0-0.6,0.1-0.9l-2.8-2.9c-0.2,0-0.3,0.1-0.5,0.1l-3.6,6.7c0.3,0.6,0.5,1.2,0.5,1.8
					C14.3,31.3,12.7,32.8,10.6,32.8z M10.6,27.6c-0.9,0-1.7,0.7-1.7,1.7c0,0.9,0.7,1.7,1.7,1.7c0.9,0,1.7-0.7,1.7-1.7
					c0-0.4-0.1-0.8-0.4-1.1l-0.4-0.5l-0.7-0.1C10.8,27.6,10.7,27.6,10.6,27.6z M23,23.1l-0.3,0.5c-0.1,0.2-0.2,0.5-0.2,0.7
					c0,0.9,0.7,1.7,1.7,1.7s1.7-0.7,1.7-1.7c0-0.4-0.1-0.7-0.3-1l-0.4-0.5l-0.7-0.1c-0.3-0.1-0.6,0-0.9,0.1L23,23.1z M16.3,18.6
					l0.7,0.1c0.3,0,0.6,0,0.9-0.1l0.5-0.2l0.3-0.6c0.1-0.2,0.2-0.5,0.2-0.7c0-0.9-0.7-1.7-1.7-1.7s-1.7,0.7-1.7,1.6
					c0,0.4,0.1,0.8,0.4,1.1L16.3,18.6z M30.4,14.4l0.6,0.1c1,0.2,2-0.6,2-1.6c0-0.9-0.7-1.7-1.7-1.7s-1.7,0.7-1.7,1.7
					c0,0.4,0.1,0.7,0.3,1L30.4,14.4z" fill="#006A4D"/>
			</g>
		</g>
	</g>
</g>
<g id="Public">
	<path d="M33.1,8.9c-1.5,0-2.7,1.2-2.7,2.7c0,0.7,0.3,1.4,0.7,1.8l-5.6,9c-0.3-0.1-0.5-0.1-0.8-0.1c-0.5,0-0.9,0.1-1.3,0.4l-4.7-4.9
		c0.2-0.4,0.4-0.9,0.4-1.4c0-1.5-1.2-2.7-2.7-2.7c-1.5,0-2.7,1.2-2.7,2.7c0,0.8,0.3,1.5,0.9,2l-5.2,9.7C9.2,28.1,9,28,8.8,28
		c-1.5,0-2.7,1.2-2.7,2.7c0,1.5,1.2,2.7,2.7,2.7s2.7-1.2,2.7-2.7c0-0.8-0.3-1.5-0.9-2l5.2-9.7c0.2,0,0.4,0.1,0.6,0.1
		c0.5,0,0.9-0.1,1.3-0.4l4.7,4.9c-0.2,0.4-0.4,0.9-0.4,1.4c0,1.5,1.2,2.7,2.7,2.7s2.7-1.2,2.7-2.7c0-0.7-0.3-1.4-0.7-1.8l5.6-9
		c0.3,0.1,0.5,0.1,0.8,0.1c1.5,0,2.7-1.2,2.7-2.7C35.7,10.1,34.5,8.9,33.1,8.9z" fill="#006A4D"/>
</g>
</svg>
