<?xml version="1.0" encoding="utf-8"?>
<!-- Generator: Adobe Illustrator 21.1.0, SVG Export Plug-In . SVG Version: 6.00 Build 0)  -->
<svg version="1.1" id="Layer_1" xmlns="http://www.w3.org/2000/svg" xmlns:xlink="http://www.w3.org/1999/xlink" x="0px" y="0px"
	 viewBox="0 0 42 42" style="enable-background:new 0 0 42 42;" xml:space="preserve">
<style type="text/css">
	.st0{display:none;}
	.st1{display:inline;}
	.st2{fill:#ACAAAA;}
</style>
<g id="Private" class="st0">
	<g class="st1">
		<g>
			<g>
				<path class="st2" d="M13.5,33.4l-4.9-5l6.9-6.8c-0.4-1.1-0.7-2.2-0.7-3.4c0-5,4.1-9.1,9.1-9.1s9.1,4.1,9.1,9.1s-4.1,9.1-9.1,9.1
					c-1.3,0-2.5-0.3-3.6-0.7L13.5,33.4z M11.4,28.5l2.1,2.1l5-5.1c-0.8-0.6-1.5-1.3-2-2.1L11.4,28.5z M23.9,11.1
					c-3.9,0-7.1,3.2-7.1,7.1s3.2,7.1,7.1,7.1S31,22,31,18.1S27.8,11.1,23.9,11.1z"/>
			</g>
		</g>
	</g>
</g>
<g id="Public">
	<g>
		<path d="M14.5,23.6l-5,5l3.6,3.6l5-5C16.6,26.5,15.3,25.1,14.5,23.6" fill="#006A4D"/>
		<path d="M23.4,26c-4.1,0-7.4-3.3-7.4-7.5c0-4.1,3.3-7.5,7.4-7.5s7.4,3.3,7.4,7.5C30.8,22.6,27.5,26,23.4,26 M23.4,9.4
			c-5.1,0-9.2,4.1-9.2,9.2s4.1,9.2,9.2,9.2s9.2-4.1,9.2-9.2C32.5,13.5,28.4,9.4,23.4,9.4" fill="#006A4D"/>
	</g>
</g>
</svg>
