<?xml version="1.0" encoding="utf-8"?>
<!-- Generator: Adobe Illustrator 21.1.0, SVG Export Plug-In . SVG Version: 6.00 Build 0)  -->
<svg version="1.1" id="Layer_1" xmlns="http://www.w3.org/2000/svg" xmlns:xlink="http://www.w3.org/1999/xlink" x="0px" y="0px"
	 viewBox="0 0 42 42" style="enable-background:new 0 0 42 42;" xml:space="preserve" fill="#ffffff">
<style type="text/css">
	.st0{display:none;}
	.st1{display:inline;}
	.st2{fill:#ffffff;}
</style>
<g id="Private" class="st0">
	<g class="st1">
		<g>
			<g>
				<g>
					<g>
						<path class="st2" d="M32.5,34.2h-23v-1c0-6.3,5.1-11.5,11.5-11.5c6.3,0,11.5,5.1,11.5,11.5V34.2z M11.6,32.2h18.8
							c-0.5-4.8-4.5-8.5-9.4-8.5S12.1,27.5,11.6,32.2z M21,21.1c-3.6,0-6.6-3-6.6-6.6s3-6.6,6.6-6.6s6.6,3,6.6,6.6
							S24.6,21.1,21,21.1z M21,9.9c-2.5,0-4.6,2.1-4.6,4.6s2.1,4.6,4.6,4.6s4.6-2.1,4.6-4.6S23.5,9.9,21,9.9z"/>
					</g>
				</g>
			</g>
		</g>
	</g>
</g>
<g id="Public">
	<g>
		<path d="M21,20.5c3.4,0,6.2-2.8,6.2-6.2S24.4,8.1,21,8.1s-6.2,2.8-6.2,6.2S17.6,20.5,21,20.5" fill="#006A4D"/>
		<path d="M9.3,33.1c0-6.5,5.2-11.7,11.7-11.7s11.7,5.2,11.7,11.7H9.3z" fill="#006A4D"/>
	</g>
</g>
</svg>
