<?xml version="1.0" encoding="utf-8"?>
<!-- Generator: Adobe Illustrator 21.1.0, SVG Export Plug-In . SVG Version: 6.00 Build 0)  -->
<svg version="1.1" id="Layer_1" xmlns="http://www.w3.org/2000/svg" xmlns:xlink="http://www.w3.org/1999/xlink" x="0px" y="0px"
	 viewBox="5 -10 42 42" style="enable-background:new 0 0 42 42;" xml:space="preserve">
<style type="text/css">
	.st0{display:none;}
	.st1{display:inline;}
	.st2{fill:#ACAAAA;}
</style>
<g id="Private" class="st0">
	<g class="st1">
		<g>
			<g>
				<path class="st2" d="M35,32.1H22v-10h13V32.1z M24,30.1h9v-6h-9V30.1z" fill="#006A4D"/>
			</g>
		</g>
		<g>
			<g>
				<path class="st2" d="M20,32.1H7v-10h13V32.1z M9,30.1h9v-6H9V30.1z" fill="#006A4D"/>
			</g>
		</g>
		<g>
			<g>
				<path class="st2" d="M35,20.1H22v-10h13V20.1z M24,18.1h9v-6h-9V18.1z" fill="#006A4D"/>
			</g>
		</g>
		<g>
			<g>
				<path class="st2" d="M20,20.1H7v-10h13V20.1z M9,18.1h9v-6H9V18.1z" fill="#006A4D"/>
			</g>
		</g>
	</g>
</g>
<g id="Public">
	<g>
		<rect x="8" y="11.7" width="12.1" height="8.6" fill="#006A4D"/>
		<polygon points="21.9,11.7 21.9,11.7 21.9,20.1 34,20.1 34,21.9 21.9,21.9 21.9,30.4 20.1,30.4 20.1,21.9 8,21.9 8,21.9 8,30.4 
			20.1,30.4 21.9,30.4 34,30.4 34,21.9 34,20.1 34,11.7 		" fill="#006A4D"/>
	</g>
</g>
</svg>
