<svg xmlns="http://www.w3.org/2000/svg" viewBox="0 0 155.19 32.94"><defs><style>.cls-1{font-size:9px;fill:#231f20;font-family:Cairo-Regular, Cairo;}.cls-2{fill:#c8d419;}.cls-3{fill:#29b9e6;}.cls-4{fill:#6fabc0;}.cls-5{fill:#0c6d7c;}</style></defs><title>Asset 1</title><g id="Layer_2" data-name="Layer 2"><g id="Layer_1-2" data-name="Layer 1"><text class="cls-1" transform="translate(127.32 11.73)">1</text><rect class="cls-2" x="122.39" width="32.8" height="32.8"/><path class="cls-3" d="M129.74,19.41A52.87,52.87,0,0,0,122.4,32.8h6.71a101,101,0,0,1,.63-13.39"/><path class="cls-3" d="M125.19,18.71c1.62-1.24,3.43-2.54,5.32-3.74,1.27-5.76,3.69-11.33,8.28-14.76,4.6,3.43,7,9,8.29,14.76,1.89,1.2,3.7,2.5,5.32,3.74-2.35-7.16-6.51-15-13.6-18.71h0c-7.09,3.69-11.25,11.55-13.6,18.71"/><path class="cls-3" d="M148.48,32.8h6.71a52.72,52.72,0,0,0-7.35-13.39,99.57,99.57,0,0,1,.64,13.39"/><path class="cls-3" d="M155.19,32.8h0V20.94c-.83-.7-1.77-1.46-2.79-2.23a54.91,54.91,0,0,1,2.79,14.09"/><path class="cls-3" d="M138.8,11.13a32,32,0,0,1,9,8.28c-.2-1.48-.45-3-.77-4.45a37.33,37.33,0,0,0-8.28-4.07A37.18,37.18,0,0,0,130.51,15c-.33,1.48-.58,3-.77,4.45a31.9,31.9,0,0,1,9.06-8.28"/><path class="cls-3" d="M122.39,20.94V32.8h0a55.19,55.19,0,0,1,2.78-14.09c-1,.77-2,1.53-2.79,2.23"/><path class="cls-3" d="M147.08,15c.32,1.48.57,3,.77,4.45a52.87,52.87,0,0,1,7.34,13.39h0a54.91,54.91,0,0,0-2.79-14.09c-1.62-1.25-3.42-2.54-5.32-3.75"/><path class="cls-3" d="M130.51,15c-1.89,1.21-3.7,2.5-5.33,3.75A55.19,55.19,0,0,0,122.4,32.8h0a52.87,52.87,0,0,1,7.34-13.39c.19-1.48.44-3,.77-4.45"/><path class="cls-4" d="M147.08,15c.32,1.48.57,3,.77,4.45a52.87,52.87,0,0,1,7.34,13.39h0a54.91,54.91,0,0,0-2.79-14.09c-1.62-1.25-3.42-2.54-5.32-3.75"/><path class="cls-4" d="M130.51,15c-1.89,1.21-3.7,2.5-5.33,3.75A55.19,55.19,0,0,0,122.4,32.8h0a52.87,52.87,0,0,1,7.34-13.39c.19-1.48.44-3,.77-4.45"/><path class="cls-5" d="M115.09,32.8h.74V26.24h-.74Zm0-7.56h.74V24h-.74Z"/><path class="cls-5" d="M5.44,29.79c-.11,2-1,3.14-2.62,3.14C1,32.93,0,31.53,0,28.37s1-4.56,2.82-4.56a2.44,2.44,0,0,1,2.53,2.72H4.56c0-1.2-.6-2.05-1.74-2.05s-2,1-2,3.89.77,3.89,2,3.89,1.74-.95,1.83-2.47Z"/><path class="cls-5" d="M7,29.5c0-2.09.64-2.81,1.47-2.81s1.47.72,1.47,2.81-.64,2.81-1.47,2.81S7,31.59,7,29.5m-.79,0c0,2.28.81,3.43,2.26,3.43s2.26-1.15,2.26-3.43-.82-3.43-2.26-3.43S6.17,27.22,6.17,29.5"/><path class="cls-5" d="M11.82,26.22h.67v.92h0a1.73,1.73,0,0,1,1.66-1.07,1.29,1.29,0,0,1,1.37,1.15h0a1.68,1.68,0,0,1,1.67-1.15c.91,0,1.52.52,1.52,1.69v5H18v-4.9c0-.78-.35-1.19-1-1.19s-1.33.67-1.33,1.68v4.41h-.74v-4.9c0-.78-.36-1.19-1-1.19s-1.34.67-1.34,1.68v4.41h-.74Z"/><path class="cls-5" d="M20.3,26.22H21v.92h0a1.75,1.75,0,0,1,1.67-1.07A1.29,1.29,0,0,1,24,27.22h0a1.68,1.68,0,0,1,1.67-1.15c.92,0,1.52.52,1.52,1.69v5H26.5v-4.9c0-.78-.36-1.19-1-1.19s-1.34.67-1.34,1.68v4.41H23.4v-4.9c0-.78-.36-1.19-1-1.19S21,27.36,21,28.37v4.41H20.3Z"/><path class="cls-5" d="M29.24,28.91c0-1.62.48-2.22,1.4-2.22s1.37.6,1.39,2.22ZM32,30.61c-.12,1.15-.61,1.7-1.38,1.7s-1.4-.58-1.4-2.47v-.31h3.58v-.27c0-2.19-.65-3.19-2.11-3.19s-2.26,1.15-2.26,3.43c0,2.47.81,3.43,2.2,3.43,1.23,0,2-.93,2.11-2.32Z"/><path class="cls-5" d="M34,26.22h.75v1h0a1.73,1.73,0,0,1,1.65-1.18,1.09,1.09,0,0,1,.26,0v.74a2.2,2.2,0,0,0-.36,0c-.81,0-1.57.6-1.57,1.87v4.1H34Z"/><path class="cls-5" d="M41.36,30.61c-.11,1.39-.88,2.32-2.09,2.32-1.38,0-2.2-1-2.2-3.43,0-2.28.82-3.43,2.26-3.43a1.94,1.94,0,0,1,2,2.1h-.74c-.09-1-.5-1.48-1.29-1.48s-1.47.5-1.47,2.82.7,2.8,1.4,2.8,1.23-.55,1.36-1.7Z"/><path class="cls-5" d="M42.49,32.78h.74V26.22h-.74Zm0-7.56h.74V24h-.74Z"/><path class="cls-5" d="M47.72,30.46c0,1.17-.62,1.85-1.52,1.85-.64,0-1-.52-1-1.28a1.28,1.28,0,0,1,1.13-1.36l.61-.16c.3-.08.72-.21.79-.43h0Zm-2.39-2.29c0-1,.37-1.48,1.25-1.48a1,1,0,0,1,1.14,1.14c0,.77-.11.89-.63,1l-1.4.4a1.73,1.73,0,0,0-1.32,1.82c0,1.14.52,1.85,1.67,1.85a1.6,1.6,0,0,0,1.69-1.11h0V32c0,.68.37.82,1,.82a1,1,0,0,0,.34-.08v-.54h-.21c-.26,0-.38-.17-.38-.55V27.82c0-1-.49-1.75-1.85-1.75a1.83,1.83,0,0,0-2,2.1Z"/><rect class="cls-5" x="50.03" y="23.96" width="0.74" height="8.82"/><path class="cls-5" d="M55.94,24.64h1.39c1.23,0,1.84.44,1.84,1.61s-.62,1.61-2,1.61H55.94Zm0,3.88h1.47c1.37,0,2,.62,2,1.8s-.67,1.81-2,1.81H55.94Zm-.79,4.28h2.42a2.37,2.37,0,0,0,2.67-2.48,2,2,0,0,0-1.64-2.19v0A1.88,1.88,0,0,0,60,26.19c0-1.31-.66-2.21-2.36-2.21H55.15Z"/><path class="cls-5" d="M64.35,30.48c0,1.17-.61,1.85-1.51,1.85-.65,0-1-.52-1-1.29a1.26,1.26,0,0,1,1.12-1.35l.62-.17c.29-.07.72-.21.79-.43h0ZM62,28.19c0-1,.38-1.48,1.26-1.48a1,1,0,0,1,1.13,1.14c0,.76-.11.88-.63,1l-1.39.4A1.72,1.72,0,0,0,61,31.09c0,1.14.51,1.85,1.67,1.85a1.58,1.58,0,0,0,1.68-1.11h0v.23c0,.67.37.81,1,.81a1,1,0,0,0,.35-.07v-.55h-.21c-.26,0-.39-.17-.39-.54V27.83c0-1-.49-1.74-1.85-1.74a1.83,1.83,0,0,0-2,2.1Z"/><path class="cls-5" d="M66.62,26.24h.66v.91h0A1.88,1.88,0,0,1,69,26.09a1.54,1.54,0,0,1,1.68,1.76V32.8h-.74V28.05c0-.9-.38-1.34-1.13-1.34a1.48,1.48,0,0,0-1.45,1.68V32.8h-.73Z"/><polygon class="cls-5" points="72.03 23.98 72.77 23.98 72.77 29.5 72.79 29.5 75.34 26.24 76.25 26.24 74.27 28.67 76.61 32.8 75.7 32.8 73.74 29.34 72.77 30.5 72.77 32.8 72.03 32.8 72.03 23.98"/><path class="cls-5" d="M81,29.51c0-2.09.64-2.8,1.47-2.8s1.47.71,1.47,2.8-.64,2.82-1.47,2.82S81,31.61,81,29.51m-.79,0c0,2.29.81,3.43,2.26,3.43s2.26-1.14,2.26-3.43-.82-3.42-2.26-3.42-2.26,1.15-2.26,3.42"/><path class="cls-5" d="M86.07,26.86h-.9v-.62h.9v-.78c0-.9.18-1.58,1.43-1.58a2,2,0,0,1,.47,0v.61a1.94,1.94,0,0,0-.36,0c-.54,0-.8.21-.8,1v.78H88v.62H86.81V32.8h-.74Z"/><path class="cls-5" d="M93,24.64h1.28c1.73,0,2.46.87,2.46,3.76s-.73,3.73-2.46,3.73H93Zm-.79,8.16h2.12c2.57,0,3.2-1.54,3.2-4.41S96.85,24,94.28,24H92.16Z"/><path class="cls-5" d="M98.81,26.24h.75v4.62c0,1.06.35,1.47,1.13,1.47a1.49,1.49,0,0,0,1.43-1.68V26.24h.75V32.8h-.67v-.92h0a1.83,1.83,0,0,1-1.67,1.06,1.54,1.54,0,0,1-1.69-1.75Z"/><path class="cls-5" d="M105,29.51c0-2.42.67-2.8,1.43-2.8s1.43.38,1.43,2.8-.69,2.82-1.43,2.82S105,31.94,105,29.51m-.75,3.29h.67V31.71h0a1.62,1.62,0,0,0,1.6,1.23c1.45,0,2.1-1.16,2.1-3.43s-.65-3.42-2.1-3.42A1.45,1.45,0,0,0,105,27.23h0V24h-.75Z"/><path class="cls-5" d="M112.79,30.48c0,1.17-.62,1.85-1.53,1.85-.64,0-1-.52-1-1.29a1.26,1.26,0,0,1,1.12-1.35l.62-.17c.29-.07.71-.21.79-.43h0Zm-2.4-2.29c0-1,.38-1.48,1.26-1.48a1,1,0,0,1,1.14,1.14c0,.76-.12.88-.64,1l-1.39.4a1.72,1.72,0,0,0-1.32,1.81c0,1.14.52,1.85,1.66,1.85a1.6,1.6,0,0,0,1.7-1.11h0v.23c0,.67.37.81,1,.81a1,1,0,0,0,.35-.07v-.55h-.21c-.26,0-.39-.17-.39-.54V27.83c0-1-.49-1.74-1.84-1.74a1.83,1.83,0,0,0-2,2.1Z"/><path class="cls-5" d="M50.25,9.05s.17,6.89.17,7.31A2.67,2.67,0,0,1,50,18.19a3,3,0,0,0,1-2.45c0-.64-.17-7.4-.17-7.4Z"/><path class="cls-5" d="M9.05,11.61a58.58,58.58,0,0,1,.22,6.31c-.36,1.31-1,1.85-2.69,2.21a1.76,1.76,0,0,0,1.83-.08,4.68,4.68,0,0,0,1.47-3.62c0-.64-.24-5.63-.24-5.63Z"/><path class="cls-5" d="M47.8,9.05s.16,6.56.21,7.29c0,.51-.17.65-.84.65h-2c-.25,0-1.17,0-1.46-.35s-.36-.53-.36-2.36c0-2.31.08-3-.18-3.47l-.54.8c.15.31.29.47.24,2.32s.24,2.13,0,2.7c-.22.41-1.34.36-1.6.36H38.79c-.24-.71-.94-1.39-2.38-2.33-1.87-1.23-3.07-1.92-3.07-2.94a3.05,3.05,0,0,1,.1-.92,2.91,2.91,0,0,0-.57,1.58c0,.93.83,1.74,2.25,2.6A14,14,0,0,1,38,17H14.38c-.25,0-1.42,0-1.63-.44-.36-.75-.11-3.41-.09-5.29s.06-2.41-.2-2.92l-.52.88c.17.31.25.34.2,2.2S12,16,12.06,16.65c.08.91.3,1.35,2.36,1.35H38.49a5.46,5.46,0,0,1-.78,2.93A5.07,5.07,0,0,0,38.89,18h2.33c.44,0,1.63.05,2-1,.33.92.81,1,1.89,1H47.2a1,1,0,0,0,1-.6,3.73,3.73,0,0,0,.35-1.65c0-.64-.17-7.4-.17-7.4Z"/><path class="cls-5" d="M7.08,17.18c0-.89-.35-1.11-.94-1.8s-.86-.94-.86-1.15.52-2.07,1.65-2.41l.17-1C6.27,10.84,5,13,4.81,14.76c0,.35.39.68.71,1,.53.58,1.16.92,1.16,1.11S6.4,17,6.22,17H2.38C1.1,17,.43,16.48.43,14.37A6.4,6.4,0,0,1,1,11.25l0-.44A7,7,0,0,0,0,14.68C0,17.28.29,18,2.32,18H6.48s.6.07.6-.82"/><path class="cls-5" d="M103.35,10a2.24,2.24,0,0,0,.52-.82,2.4,2.4,0,0,0-.6-.81l-.42.84a1.25,1.25,0,0,1,.5.79"/><path class="cls-5" d="M42.44,10A2.24,2.24,0,0,0,43,9.15a2.32,2.32,0,0,0-.59-.81l-.43.84a1.25,1.25,0,0,1,.5.79"/><path class="cls-5" d="M43.44,10A2.24,2.24,0,0,0,44,9.15a2.32,2.32,0,0,0-.59-.81l-.43.84a1.25,1.25,0,0,1,.5.79"/><path class="cls-5" d="M109.66,20.74a2.23,2.23,0,0,0,.52-.81,2.18,2.18,0,0,0-.6-.81l-.42.83a1.28,1.28,0,0,1,.5.79"/><path class="cls-5" d="M69.22,20.74a2.16,2.16,0,0,0,.51-.81,2.23,2.23,0,0,0-.59-.81l-.42.83a1.28,1.28,0,0,1,.5.79"/><path class="cls-5" d="M58.41,20.74a2.23,2.23,0,0,0,.52-.81,2.23,2.23,0,0,0-.59-.81l-.43.83a1.28,1.28,0,0,1,.5.79"/><path class="cls-5" d="M35.31,20.74a2.16,2.16,0,0,0,.51-.81,2.23,2.23,0,0,0-.59-.81L34.8,20a1.28,1.28,0,0,1,.51.79"/><path class="cls-5" d="M59.41,20.74a2.23,2.23,0,0,0,.52-.81,2.23,2.23,0,0,0-.59-.81l-.43.83a1.28,1.28,0,0,1,.5.79"/><path class="cls-5" d="M2.86,20.74a2.16,2.16,0,0,0,.51-.81,2.23,2.23,0,0,0-.59-.81L2.36,20a1.28,1.28,0,0,1,.5.79"/><path class="cls-5" d="M3.86,20.74a2.16,2.16,0,0,0,.51-.81,2.23,2.23,0,0,0-.59-.81L3.36,20a1.28,1.28,0,0,1,.5.79"/><path class="cls-5" d="M92.89,14.1a1.94,1.94,0,0,0,1.84-1.92,3.83,3.83,0,0,1-1.55,0c-.08-.06.72-.7,1.21-.72a2,2,0,0,0,.06-.63,3.45,3.45,0,0,0-1.11.63c-.49.42-.78.85-.7,1.11.31.4,1.65.21,1.65.21s0,.51-1.63.81a3.66,3.66,0,0,1-2.17,0s.53.72,2.4.49"/><path class="cls-5" d="M79.47,10.84c-1.12,0-1.41,1.44-1.41,1.44a1.39,1.39,0,0,1,1.18-.65c1.57,0,3,5.4,1.93,5.4H78.43c-1.26,0-1.5-.17-1.28-1.69-.79,1.76-.26,2.7,1,2.7h3.2c1.55,0,.22-7.2-1.85-7.2"/><path class="cls-5" d="M114.85,10.84s-.5.84-.49.85c1.16,2.57,1.24,5.34.63,5.34h-9.4c-.25,0-1.16,0-1.46-.35s-.35-.53-.35-2.36c0-2.3.08-3-.19-3.47l-.55.81c.16.3.3.45.24,2.31s.24,2.13,0,2.7c-.21.41-1.32.36-1.59.36h-1a1.69,1.69,0,0,1-.9-.18c-.42-.27-.24-.61-.24-1.61,0-1.32-.16-3.88-.09-6.89L98.74,9s.11,3.38.11,4.13.32,2.79-.16,3.36-1.22.56-2.17.56H88.94C87.67,17,87,16.52,87,14.41a6.4,6.4,0,0,1,.52-3.12l0-.44a7,7,0,0,0-.91,3.86c0,2.61.29,3.33,2.32,3.33h7.71c.76,0,2-.12,2.5-1a1.46,1.46,0,0,0,1.53,1h1c.45,0,1.63.05,2-1,.33.92.82,1,1.89,1h8.32c.62,0,1.38,0,1.59-.29s1-3.3-.6-6.91"/><path class="cls-5" d="M73.69,11.69c1.17,2.57,1.25,5.34.64,5.34h-9c-.74,0-1.51.13-1.47-1.92a14.5,14.5,0,0,0-.32-4.26c-.61-.07-3.3,1.88-3.35,4,0,.35.42.73.76,1.08s.9.74.9,1c0,.11-.19.11-.3.11H57.81c-1.27,0-2-.5-2-2.62a6.29,6.29,0,0,1,.53-3.12l0-.44a7,7,0,0,0-.91,3.87c0,2.6.29,3.32,2.32,3.32h3.86s.52.07.52-.83a2.23,2.23,0,0,0-.72-1.75c-.48-.58-.83-1-.83-1.17a5.33,5.33,0,0,1,2.59-2.46,15,15,0,0,1,.21,2.73c.09,2-.46,3.48,2,3.48h7.85c.61,0,1.38,0,1.58-.28s1-3.31-.59-6.91l-.52.84"/></g></g></svg>