<svg xmlns="http://www.w3.org/2000/svg" viewBox="0 0 48 48"><defs><style>.cls-1{fill:#0075be;}.cls-2{fill:none;}</style></defs><title>48-call-center</title><g id="Layer_1" data-name="Layer 1"><path class="cls-1" d="M36.67,20.71H36v-1.5c0-6-5.38-10.9-12-10.9S12,13.2,12,19.21v1.5h-.67a4.19,4.19,0,0,0-4.33,4v4.54a4.19,4.19,0,0,0,4.33,4H13a1,1,0,0,0,.46-.13,13.22,13.22,0,0,0,7.78,4.25,3.5,3.5,0,1,0-.12-2.1C17,34.32,14,31.94,14,29.22v-10c0-4.91,4.49-8.9,10-8.9s10,4,10,8.9v13.1a1,1,0,0,0,1,1h1.67a4.19,4.19,0,0,0,4.33-4V24.74A4.19,4.19,0,0,0,36.67,20.71Zm-12.17,14a1.5,1.5,0,1,1-1.5,1.5A1.5,1.5,0,0,1,24.5,34.69ZM12,31.31h-.67a2.2,2.2,0,0,1-2.33-2V24.74a2.2,2.2,0,0,1,2.33-2H12Zm27-2a2.2,2.2,0,0,1-2.33,2H36v-8.6h.67a2.2,2.2,0,0,1,2.33,2Z"/></g><g id="transparent_bounding_box" data-name="transparent bounding box"><rect class="cls-2" width="48" height="48"/></g></svg>