<?xml version="1.0" encoding="UTF-8" standalone="no"?>
<svg
   xmlns:dc="http://purl.org/dc/elements/1.1/"
   xmlns:cc="http://creativecommons.org/ns#"
   xmlns:rdf="http://www.w3.org/1999/02/22-rdf-syntax-ns#"
   xmlns:svg="http://www.w3.org/2000/svg"
   xmlns="http://www.w3.org/2000/svg"
   viewBox="0 0 377.94666 173.22667"
   height="173.22667"
   width="377.94666"
   xml:space="preserve"
   id="svg2"
   version="1.1"><metadata
     id="metadata8"><rdf:RDF><cc:Work
         rdf:about=""><dc:format>image/svg+xml</dc:format><dc:type
           rdf:resource="http://purl.org/dc/dcmitype/StillImage" /></cc:Work></rdf:RDF></metadata><defs
     id="defs6" /><g
     transform="matrix(1.3333333,0,0,-1.3333333,0,173.22667)"
     id="g10"><g
       transform="scale(0.1)"
       id="g12"><path
         id="path14"
         style="fill:#fbc707;fill-opacity:1;fill-rule:nonzero;stroke:none"
         d="m 1379.96,994.086 251.23,145.034 v 113.7 H 1379.96 V 994.086" /><path
         id="path16"
         style="fill:#47494c;fill-opacity:1;fill-rule:nonzero;stroke:none"
         d="M 1162.18,125.75 C 1100.27,78.1914 1008.53,45.4297 911.008,25.2813 827.281,7.98828 739.262,0 662.047,0 408.598,0 0,162.141 0,633.633 c 0,498.597 382.488,665.597 694.273,665.597 214.715,0 378.327,-97.22 397.007,-108.86 l -25.26,-103.64 c -82.68,107.48 -202.473,181.43 -380.145,181.43 -96.285,0 -175.52,-34 -228.062,-75.36 -63.282,-49.74 -205.145,-158.58 -205.145,-554.484 0,-395.894 188.871,-605.9566 417.973,-605.9566 90.629,0 193.297,23.5 240.367,87.4416 V 478.992 L 793.43,411.102 v 87.355 l 368.75,212.941 v -0.031 z m 217.78,711.383 251.23,145.039 V 22.9492 H 1379.96 Z M 2477.68,101.941 c 0,0 -53.06,-55.3629 -198.89,-55.3629 H 2100.21 V 669.113 h 170.12 c 0,0 102.8,1.414 158.85,-32.144 0,0 82.16,-41.781 108.4,-157.539 0,0 52.6,-270.09 -59.9,-377.489 z M 2100.21,1230.64 h 188.09 c 0,0 202.21,3.35 221.74,-177.18 0,0 18.17,-176.011 -38.61,-268.948 0,0 -47.26,-92.301 -183.13,-92.301 h -188.09 z m 620.97,-641.656 c 0,0 -81.19,74.496 -296.56,95.235 0,0 96.23,1.969 224.81,77.652 168.88,99.367 108.99,287.669 108.99,287.669 -58.08,211.62 -451.89,203.28 -451.89,203.28 h -206.32 -0.26 l -250.98,-144.9 V 22.7891 h 486.92 c 0,0 397.85,-11.9805 483.4,239.3399 0,0 72.66,194.906 -98.11,326.855" /></g></g></svg>