<svg id="Layer_1" data-name="Layer 1" xmlns="http://www.w3.org/2000/svg" viewBox="0 0 548 156"><defs><style>.cls-1{fill:#fff;}.cls-2{fill:#DB0011;}.cls-3{fill:#333;}</style></defs><title>Artboard 5</title><rect class="cls-1" x="-3" y="-2" width="553" height="161"/><polyline class="cls-2" points="217.47 76.5 246.22 105.24 246.22 47.77 217.47 76.5"/><polyline class="cls-2" points="246.22 105.23 303.68 105.23 274.95 76.5 246.22 105.23"/><polyline class="cls-2" points="274.95 76.5 303.68 47.77 246.22 47.77 274.95 76.5"/><polyline class="cls-2" points="303.68 47.77 303.68 105.24 332.41 76.5 303.68 47.77"/><path class="cls-3" d="M42.91,90.13A13.43,13.43,0,0,1,41.68,96a14.4,14.4,0,0,1-3.55,5.24A17.52,17.52,0,0,1,26,105.94a22.27,22.27,0,0,1-8.07-1.68c-1.68-.74-3.36-1.48-5-2.25a3.82,3.82,0,0,0-3.52.12,4.68,4.68,0,0,0-1.92,3.63H6.58V85.91h.89a21.9,21.9,0,0,0,5.4,11.76q4,4.59,11.15,4.6a13.65,13.65,0,0,0,2.49-.21A10.45,10.45,0,0,0,34.84,91.2,10,10,0,0,0,30,83.47c-4.76-3.1-8.1-5.26-10-6.54-4.91-3.28-8.16-5.8-9.72-7.57a12.13,12.13,0,0,1-3.37-8.11,12.78,12.78,0,0,1,4-9.79,16.52,16.52,0,0,1,11.75-4.58,17.11,17.11,0,0,1,6.83,1.53c1.28.65,2.55,1.3,3.85,2a3.93,3.93,0,0,0,3.77,0,4,4,0,0,0,1.65-3.14h.88V66.06h-.88q-1.15-8.56-5.34-12.37a11.89,11.89,0,0,0-8.23-3.25,15.59,15.59,0,0,0-2.63.24q-7.36,1.44-8.15,7.54c0,.3,0,.59,0,.87a8.75,8.75,0,0,0,2.42,5.42q1,1.13,8.83,6.29a126.2,126.2,0,0,1,11.7,8.32,15.59,15.59,0,0,1,5.62,11"/><path class="cls-3" d="M133.76,100.37a16,16,0,0,1-9.54,2.7,24,24,0,0,1-7.36-1.11V77.42a25.27,25.27,0,0,1,5.42-.46c4.81,0,8.24.66,10.22,1.94q6.39,4.11,6.38,11.15A12,12,0,0,1,133.76,100.37Zm-16.9-49.09a23.18,23.18,0,0,1,6.27-.84,16.3,16.3,0,0,1,9.5,2.6,10.82,10.82,0,0,1,4.76,9.39q0,6.69-6.12,10.61c-1.72,1.1-4.66,1.64-8.83,1.64a23.5,23.5,0,0,1-5.58-.51ZM62,83l9.3-24.27L80.33,83Zm73.5-7.2a12.84,12.84,0,0,0,7-5.1A13.72,13.72,0,0,0,144.79,63a14,14,0,0,0-.38-3.26A13.32,13.32,0,0,0,138,51.46a20.16,20.16,0,0,0-7-2.75,49.58,49.58,0,0,0-9.34-.8H101.2V49h3.38a4.7,4.7,0,0,1,3.19,1.3,4.2,4.2,0,0,1,1.46,3.25v46a4.17,4.17,0,0,1-1.46,3.26,4.76,4.76,0,0,1-3.19,1.31h-2.12A7.29,7.29,0,0,1,96,100.91,59.65,59.65,0,0,1,93.46,95L74.12,46.17H72.51L56.39,88.28c-2.64,6.83-4.1,10.51-4.4,11.07-1.84,3.19-4.41,4.78-7.74,4.78v1.05H64v-1.05a17,17,0,0,1-4.86-.47,3.46,3.46,0,0,1-2.63-3.82A33.39,33.39,0,0,1,58.31,93c.83-2.34,1.64-4.67,2.46-7H81.61l2.81,7.79A19.68,19.68,0,0,1,85.9,100c0,2.74-2.22,4.11-6.63,4.14v1.05H101.2l21.37,0q7.53,0,8.83-.17,13-1.64,15.36-11a15.94,15.94,0,0,0,.57-4.15q0-10-11.88-14"/><path class="cls-3" d="M165.07,102a23.9,23.9,0,0,0,7.36,1.11,15.93,15.93,0,0,0,9.53-2.7,12,12,0,0,0,5.11-10.32q0-7-6.37-11.15c-2-1.28-5.43-1.94-10.22-1.94a25.1,25.1,0,0,0-5.41.46Zm0-27.79a23.29,23.29,0,0,0,5.57.51c4.18,0,7.11-.54,8.83-1.64q6.12-3.92,6.12-10.61A10.81,10.81,0,0,0,180.81,53a16.21,16.21,0,0,0-9.5-2.6,23,23,0,0,0-6.24.84ZM193,63a13.66,13.66,0,0,1-2.33,7.74,12.89,12.89,0,0,1-7,5.1q11.85,4,11.87,14A16.36,16.36,0,0,1,195,94q-2.4,9.39-15.37,11-1.32.16-8.83.17l-21.38,0v-1.05h3.39a4.68,4.68,0,0,0,3.18-1.31,4.21,4.21,0,0,0,1.46-3.26v-46A4.23,4.23,0,0,0,156,50.31a4.63,4.63,0,0,0-3.18-1.3h-3.39v-1.1h20.5a49.21,49.21,0,0,1,9.32.8,20.39,20.39,0,0,1,7,2.75A13.14,13.14,0,0,1,193,63"/><path class="cls-3" d="M418.22,105.23H373c-12,0-19.28-6.89-19.28-14.63,0-5.52,6.64-17.06,8.72-17.06,1.22,0-3.45,7-3.45,10.56,0,8,5.42,12.28,12,12.28h44.83c0-4.92-3.7-11.9-6.39-16.34,1.72-3.19,2.69-5.28,4.79-9.06,1.35,1.7,6.64,11.65,6.64,19.76C420.93,94.9,419.82,98.1,418.22,105.23Zm-27.14,20.6-9.69-5.9,4.29-7,9.7,5.89-4.3,7"/><path class="cls-3" d="M536.55,87.79A91.07,91.07,0,0,1,538.39,97a80.88,80.88,0,0,1-10.06-.62c-.61-.12-3-.48-2.83-1.22,1.6-6.53,3.55-14.74,3.55-14.74-2.32,1.84-8.1,6.63-8.36,9.58.51,7.12-.47,6.38-.47,6.38H503.37c-4.07,0-7.75.36-8.23-1,2.7-2.46,3.8-8.61,3.8-16l-7.86,8.48c0,2.21.74,8.47-3.07,8.47H444c-2.09,0-3.44,0-4.66-1.35a3.58,3.58,0,0,1-.75-.86c-1.22-2.46.26-32.05-1-47-2.08,2.7-4.53,5.78-6.23,8,.6,6.39-.14,43.72.22,50.11h53c3.45,0,5.17-3.33,5.66-3.33s.86,1.48,2,2.95c.25.47,5.29.38,11.19.38h.86c4.67,0,9.58,0,13.27-.26,1.36-.6,3-2.07,3.58-2.07.37,0,2.71,1.47,4.55,2.07,6,2.1,14.35,0,14.35,0a26.74,26.74,0,0,0,3.44-13.38V78.82c-1.59,2.72-7.74,7.37-6.87,9"/></svg>
