<?xml version="1.0" encoding="UTF-8" standalone="no"?>
<!-- Generator: Adobe Illustrator 25.0.1, SVG Export Plug-In . SVG Version: 6.00 Build 0)  -->

<svg
   version="1.1"
   id="Layer_1"
   x="0px"
   y="0px"
   viewBox="0 0 32.000001 31.999999"
   xml:space="preserve"
   sodipodi:docname="favicon.svg"
   width="32"
   height="32"
   inkscape:export-filename="C:\Users\thomas.wood\gitlab\demica-scf\client\themes\images\logos\afrexim\favicon.png"
   inkscape:export-xdpi="96"
   inkscape:export-ydpi="96"
   inkscape:version="1.1 (c68e22c387, 2021-05-23)"
   xmlns:inkscape="http://www.inkscape.org/namespaces/inkscape"
   xmlns:sodipodi="http://sodipodi.sourceforge.net/DTD/sodipodi-0.dtd"
   xmlns="http://www.w3.org/2000/svg"
   xmlns:svg="http://www.w3.org/2000/svg"><defs
   id="defs431" /><sodipodi:namedview
   id="namedview429"
   pagecolor="#ffffff"
   bordercolor="#666666"
   borderopacity="1.0"
   inkscape:pageshadow="2"
   inkscape:pageopacity="0.0"
   inkscape:pagecheckerboard="0"
   showgrid="false"
   width="32px"
   inkscape:zoom="2.2432343"
   inkscape:cx="390.2847"
   inkscape:cy="180.32"
   inkscape:window-width="2560"
   inkscape:window-height="1017"
   inkscape:window-x="-8"
   inkscape:window-y="-8"
   inkscape:window-maximized="1"
   inkscape:current-layer="g426" />
<style
   type="text/css"
   id="style308">
	.st0{fill:url(#SVGID_1_);}
	.st1{fill:url(#SVGID_2_);}
	.st2{fill:url(#SVGID_3_);}
	.st3{fill:url(#SVGID_4_);}
	.st4{fill:url(#SVGID_5_);}
	.st5{fill:url(#SVGID_6_);}
	.st6{fill:url(#SVGID_7_);}
	.st7{fill:url(#SVGID_8_);}
	.st8{fill:url(#SVGID_9_);}
	.st9{fill:url(#SVGID_10_);}
	.st10{fill:url(#SVGID_11_);}
	.st11{fill:url(#SVGID_12_);}
</style>
<g
   id="g426">
	
	<g
   id="g424"
   transform="matrix(0.16336827,0,0,0.16336827,-9.2452988,-13.458566)">
		<linearGradient
   id="SVGID_11_"
   gradientUnits="userSpaceOnUse"
   x1="89.761497"
   y1="152.6398"
   x2="219.4323"
   y2="152.6398">
			<stop
   offset="0"
   style="stop-color:#00AA8C"
   id="stop404" />
			<stop
   offset="0.3276"
   style="stop-color:#02BC9A"
   id="stop406" />
			<stop
   offset="1"
   style="stop-color:#05DDB3"
   id="stop408" />
		</linearGradient>
		<path
   class="st10"
   d="m 110.2,199.93 c 18.51,17.37 45.4,22.32 68.85,12.77 1.6,-8.39 -1.19,-17.09 -7.44,-22.95 -4.55,-4.27 -10.74,-6.73 -17.16,-6.78 -6.41,-0.05 -13.93,-2.14 -20.64,-8.2 -5.91,-5.55 -9.31,-13.06 -9.56,-21.16 -0.26,-8.1 2.66,-15.82 8.2,-21.73 5.55,-5.91 13.06,-9.31 21.16,-9.56 8.11,-0.27 15.82,2.66 21.73,8.2 3.98,3.74 6.86,8.45 8.37,13.69 6.89,3.16 13.2,7.4 18.78,12.64 5.36,5.03 9.83,10.76 13.34,17.09 8.36,-24.01 1.92,-50.94 -16.88,-68.58 -12.63,-11.85 -29.11,-18.08 -46.43,-17.53 -17.31,0.55 -33.38,7.81 -45.23,20.44 -24.47,26.07 -23.16,67.19 2.91,91.66 z"
   id="path411"
   style="fill:url(#SVGID_11_)" />
		<linearGradient
   id="SVGID_12_"
   gradientUnits="userSpaceOnUse"
   x1="89.627998"
   y1="208.0457"
   x2="219.36011"
   y2="208.0457">
			<stop
   offset="0"
   style="stop-color:#FFB80B"
   id="stop413" />
			<stop
   offset="0.3677"
   style="stop-color:#FFCD00"
   id="stop415" />
			<stop
   offset="0.7638"
   style="stop-color:#FEDD40"
   id="stop417" />
			<stop
   offset="1"
   style="stop-color:#FEE661"
   id="stop419" />
		</linearGradient>
		<path
   class="st11"
   d="m 93.23,186.7 c -8.36,24.01 -1.92,50.94 16.88,68.58 12.63,11.85 29.12,18.08 46.43,17.53 17.31,-0.55 33.38,-7.81 45.23,-20.44 17.94,-19.12 22.62,-46.95 11.91,-70.89 -8.79,-18.8 -23.33,-29.65 -37.01,-34.42 -17.71,-6.14 -34.33,-4.16 -46.66,0.88 -1.6,8.39 1.19,17.08 7.44,22.95 4.73,4.44 10.58,6.77 17.45,6.76 9.48,-0.27 19.21,5.26 24.52,13.1 3.38,4.99 5.34,10.9 5.38,16.82 0,10.07 -4.64,17.41 -8.2,21.2 -5.55,5.91 -13.06,9.31 -21.16,9.56 -8.12,0.26 -15.82,-2.66 -21.73,-8.2 -3.99,-3.74 -6.86,-8.45 -8.37,-13.69 -6.89,-3.16 -13.21,-7.4 -18.78,-12.63 -5.35,-5.04 -9.82,-10.77 -13.33,-17.11 z"
   id="path422"
   style="fill:url(#SVGID_12_)" />
	</g>
</g>
</svg>
