<?xml version="1.0" encoding="utf-8"?>
<!-- Generator: Adobe Illustrator 25.0.1, SVG Export Plug-In . SVG Version: 6.00 Build 0)  -->
<svg version="1.1" id="Layer_1" xmlns="http://www.w3.org/2000/svg" xmlns:xlink="http://www.w3.org/1999/xlink" x="0px" y="0px"
	 viewBox="0 0 1039.21 360.64" style="enable-background:new 0 0 1039.21 360.64;" xml:space="preserve">
<style type="text/css">
	.st0{fill:url(#SVGID_1_);}
	.st1{fill:url(#SVGID_2_);}
	.st2{fill:url(#SVGID_3_);}
	.st3{fill:url(#SVGID_4_);}
	.st4{fill:url(#SVGID_5_);}
	.st5{fill:url(#SVGID_6_);}
	.st6{fill:url(#SVGID_7_);}
	.st7{fill:url(#SVGID_8_);}
	.st8{fill:url(#SVGID_9_);}
	.st9{fill:url(#SVGID_10_);}
	.st10{fill:url(#SVGID_11_);}
	.st11{fill:url(#SVGID_12_);}
</style>
<g>
	<g>
		<g>
			<g>
				<linearGradient id="SVGID_1_" gradientUnits="userSpaceOnUse" x1="543.7325" y1="270.7269" x2="543.7325" y2="181.4107">
					<stop  offset="0" style="stop-color:#00AA8C"/>
					<stop  offset="0.3276" style="stop-color:#02BC9A"/>
					<stop  offset="1" style="stop-color:#05DDB3"/>
				</linearGradient>
				<path class="st0" d="M506.7,180.76h33.03c7.88,0,14.46,1.02,19.76,3.05c5.29,2.03,9.5,4.87,12.64,8.51
					c3.13,3.64,5.35,8,6.67,13.08c1.31,5.08,1.97,10.67,1.97,16.77v7.5c0,6.1-0.66,11.69-1.97,16.77
					c-1.31,5.08-3.54,9.46-6.67,13.15c-3.14,3.68-7.35,6.54-12.64,8.57c-5.3,2.03-11.88,3.05-19.76,3.05H506.7V180.76z
					 M529.95,251.9h7.87c3.3,0,6.14-0.4,8.51-1.21c2.37-0.8,4.34-2.12,5.91-3.94c1.57-1.82,2.71-4.23,3.43-7.24
					c0.72-3.01,1.08-6.71,1.08-11.12v-4.95c0-4.66-0.38-8.49-1.14-11.5c-0.76-3.01-1.93-5.4-3.49-7.18
					c-1.57-1.78-3.54-3.01-5.91-3.68c-2.37-0.68-5.17-1.02-8.39-1.02h-7.87V251.9z"/>
				<linearGradient id="SVGID_2_" gradientUnits="userSpaceOnUse" x1="911.2197" y1="270.7269" x2="911.2197" y2="181.4107">
					<stop  offset="0" style="stop-color:#00AA8C"/>
					<stop  offset="0.3276" style="stop-color:#02BC9A"/>
					<stop  offset="1" style="stop-color:#05DDB3"/>
				</linearGradient>
				<path class="st1" d="M913.63,223.31l35.95,47.89h-28.07l-26.17-36.33v36.33h-22.49v-90.45h22.49v34.17l25.91-34.17h26.3
					L913.63,223.31z"/>
				<linearGradient id="SVGID_3_" gradientUnits="userSpaceOnUse" x1="288.1655" y1="270.7269" x2="288.1655" y2="181.4107">
					<stop  offset="0" style="stop-color:#00AA8C"/>
					<stop  offset="0.3276" style="stop-color:#02BC9A"/>
					<stop  offset="1" style="stop-color:#05DDB3"/>
				</linearGradient>
				<path class="st2" d="M325.06,180.78l-2.29,19.05h-23.49v71.37h-23.37v-71.37h-24.64l2.29-19.05H325.06z"/>
				<linearGradient id="SVGID_4_" gradientUnits="userSpaceOnUse" x1="701.2888" y1="270.7269" x2="701.2888" y2="181.4107">
					<stop  offset="0" style="stop-color:#00AA8C"/>
					<stop  offset="0.3276" style="stop-color:#02BC9A"/>
					<stop  offset="1" style="stop-color:#05DDB3"/>
				</linearGradient>
				<path class="st3" d="M694.37,180.78v71.34h37.2l-2.42,19.04h-58.14c0,0,0-71.6,0-79.5s4.39-10.88,9.05-10.88
					S694.37,180.78,694.37,180.78z"/>
				<linearGradient id="SVGID_5_" gradientUnits="userSpaceOnUse" x1="819.8975" y1="270.7269" x2="819.8975" y2="181.4107">
					<stop  offset="0" style="stop-color:#00AA8C"/>
					<stop  offset="0.3276" style="stop-color:#02BC9A"/>
					<stop  offset="1" style="stop-color:#05DDB3"/>
				</linearGradient>
				<path class="st4" d="M803.07,180.78l32.01,50.8v-50.8h21.59v90.43h-19.94l-32.01-50.8v50.8h-21.59c0,0,0-69.81,0-79.74
					c0-9.93,6.35-10.68,10.2-10.68C797.18,180.78,803.07,180.78,803.07,180.78z"/>
				<linearGradient id="SVGID_6_" gradientUnits="userSpaceOnUse" x1="626.5441" y1="270.7269" x2="626.5441" y2="181.4107">
					<stop  offset="0" style="stop-color:#00AA8C"/>
					<stop  offset="0.3276" style="stop-color:#02BC9A"/>
					<stop  offset="1" style="stop-color:#05DDB3"/>
				</linearGradient>
				<path class="st5" d="M658.07,180.74l-2.29,18.43h-37.37v17.29h35.84l-2.29,18.43h-33.56v17.92h39.66l-1.12,8.98
					c-0.67,5.4-5.25,9.45-10.69,9.45h-51.24v-79.73c0-5.95,4.82-10.77,10.77-10.77H658.07z"/>
				<linearGradient id="SVGID_7_" gradientUnits="userSpaceOnUse" x1="371.7193" y1="270.7269" x2="371.7193" y2="181.4107">
					<stop  offset="0" style="stop-color:#00AA8C"/>
					<stop  offset="0.3276" style="stop-color:#02BC9A"/>
					<stop  offset="1" style="stop-color:#05DDB3"/>
				</linearGradient>
				<path class="st6" d="M388.82,237.05c2.63-1.19,4.89-2.54,6.8-4.07c1.91-1.52,3.5-3.31,4.77-5.34c1.27-2.03,2.2-4.39,2.8-7.05
					c0.59-2.67,0.89-5.79,0.89-9.34v-2.67c0-3.81-0.51-7.39-1.52-10.74c-1.02-3.35-2.65-6.29-4.89-8.83
					c-2.25-2.54-5.19-4.55-8.83-6.04c-3.65-1.48-8.14-2.22-13.47-2.22h-39.4v90.5h12.23c5.95,0,10.77-4.82,10.77-10.77v-20.62h7.88
					l15.76,31.39h24.91L388.82,237.05z M381.32,211.38c0,3.22-0.89,5.7-2.67,7.44c-1.78,1.74-4.32,2.6-7.63,2.6h-12.08v-21.86h12.08
					c6.86,0,10.3,3.26,10.3,9.79V211.38z"/>
				<linearGradient id="SVGID_8_" gradientUnits="userSpaceOnUse" x1="754.9729" y1="270.7269" x2="754.9729" y2="181.4107">
					<stop  offset="0" style="stop-color:#00AA8C"/>
					<stop  offset="0.3276" style="stop-color:#02BC9A"/>
					<stop  offset="1" style="stop-color:#05DDB3"/>
				</linearGradient>
				<path class="st7" d="M756.08,271.24h-13v-79.73c0-5.95,4.82-10.77,10.77-10.77h13v79.73
					C766.86,266.42,762.03,271.24,756.08,271.24z"/>
				<linearGradient id="SVGID_9_" gradientUnits="userSpaceOnUse" x1="454.8786" y1="270.7269" x2="454.8786" y2="181.4107">
					<stop  offset="0" style="stop-color:#00AA8C"/>
					<stop  offset="0.3276" style="stop-color:#02BC9A"/>
					<stop  offset="1" style="stop-color:#05DDB3"/>
				</linearGradient>
				<path class="st8" d="M467.22,180.65h-17.68c-4.7,0-8.85,3.04-10.27,7.52l-26.36,83.04h14.47c4.83,0,9.07-3.21,10.38-7.86
					l3.51-12.49h25.69l5.72,20.35h24.17L467.22,180.65z M445.21,232.92l9.03-30.15l8.78,30.15H445.21z"/>
			</g>
		</g>
		<linearGradient id="SVGID_10_" gradientUnits="userSpaceOnUse" x1="253.5381" y1="126.4746" x2="946.9777" y2="126.4746">
			<stop  offset="0" style="stop-color:#05DDB3"/>
			<stop  offset="1" style="stop-color:#05DDB3"/>
		</linearGradient>
		<path class="st9" d="M295.44,145.8h-19.91l-2.72,9.68c-1.01,3.6-4.3,6.09-8.04,6.09h-11.22l20.43-64.36
			c1.1-3.47,4.32-5.83,7.96-5.83h13.7l22.97,70.19h-18.73L295.44,145.8z M278.58,131.9h13.8l-6.8-23.37L278.58,131.9z M374.22,91.38
			l-1.77,14.59h-27.01v14.89h24.75l-1.77,14.29h-22.97v18.07c0,4.62-3.74,8.36-8.36,8.36H327V99.74c0-4.62,3.74-8.36,8.36-8.36
			H374.22z M436.97,115.04c0,2.76-0.23,5.18-0.69,7.25c-0.46,2.07-1.18,3.89-2.17,5.47c-0.99,1.58-2.22,2.96-3.7,4.14
			c-1.48,1.18-3.24,2.24-5.27,3.16l14.49,26.52h-19.32l-12.22-24.35h-6.11v15.99c0,4.62-3.74,8.36-8.36,8.36h-9.49V91.38h30.56
			c4.14,0,7.62,0.57,10.45,1.72c2.83,1.15,5.11,2.71,6.85,4.68c1.74,1.97,3.01,4.25,3.8,6.85c0.79,2.6,1.18,5.37,1.18,8.33V115.04z
			 M401.98,122.93h9.37c2.56,0,4.53-0.67,5.92-2.02c1.38-1.35,2.07-3.27,2.07-5.77v-1.58c0-5.06-2.66-7.59-7.99-7.59h-9.37V122.93z
			 M497.97,91.38l-1.77,14.29h-28.98v13.41h27.8l-1.77,14.29h-26.03v13.9h30.76l-0.86,6.97c-0.52,4.18-4.08,7.33-8.29,7.33h-39.74
			V99.74c0-4.62,3.74-8.36,8.36-8.36H497.97z M548.64,124.8l20.6-33.42h-14.2c-3.64,0-7,1.99-8.75,5.18l-42.7,65h15.75
			c2.95,0,5.68-1.56,7.18-4.1l10.98-18.58l13.11,22.67h21L548.64,124.8z M532.58,101.94l-5.63-10.56h-20.9l16.08,26.47
			L532.58,101.94z M588.88,161.57H578.8V99.73c0-4.62,3.74-8.36,8.36-8.36h10.08v61.84C597.24,157.83,593.5,161.57,588.88,161.57z
			 M658.95,91.42l-15.27,35.56l-15.86-35.56c0,0-4.53,0-9.67,0s-8.55,3.37-8.55,8.03c0,4.66,0,62.11,0,62.11l17.14,0.01l0-39.81
			l10.89,24.43c0,0,1.44,0,5.04,0c4.46,0,8.63-3.31,11.05-9.32c2.42-6.01,6.1-15.2,6.1-15.2v39.89c0,0,1,0,6.28,0
			c6.21,0,10.8-2.33,10.8-9.16c0-6.84,0-60.98,0-60.98L658.95,91.42z M689.14,161.57V99.73c0-4.62,3.74-8.36,8.36-8.36h20.92
			c3.81,0,7.13,0.44,9.96,1.33c2.83,0.89,5.14,2.16,6.95,3.8c1.81,1.64,3.15,3.58,4.04,5.82c0.89,2.24,1.33,4.7,1.33,7.39v1.38
			c0,2.96-0.63,5.62-1.87,7.99c-1.25,2.36-3.12,4.27-5.62,5.72c2.76,1.38,4.96,3.43,6.61,6.16c1.64,2.73,2.46,5.83,2.46,9.31v1.38
			c0,6.18-2.04,11.04-6.11,14.59c-4.08,3.55-10.61,5.32-19.62,5.32H689.14z M706,118.49h10.65c2.04,0,3.7-0.51,4.98-1.53
			c1.28-1.02,1.92-2.58,1.92-4.68v-1.09c0-2.3-0.69-3.93-2.07-4.88c-1.38-0.95-3.12-1.43-5.23-1.43H706V118.49z M706,147.97h11.04
			c2.23,0,4.11-0.53,5.62-1.58c1.51-1.05,2.27-2.79,2.27-5.23v-1.38c0-2.69-0.71-4.63-2.12-5.82c-1.41-1.18-3.47-1.77-6.16-1.77H706
			V147.97z M787.69,145.8h-19.91l-2.72,9.68c-1.01,3.6-4.3,6.09-8.04,6.09h-11.22l20.43-64.36c1.1-3.47,4.32-5.83,7.96-5.83h13.7
			l22.97,70.19h-18.73L787.69,145.8z M770.83,131.9h13.8l-6.8-23.37L770.83,131.9z M833.93,91.38l23.96,39.43V91.38h16.76
			l-0.01,70.19h-15.47l-23.96-39.44v31.08c0,4.62-3.74,8.36-8.36,8.36h-8.4V99.73c0-4.62,3.74-8.36,8.36-8.36H833.93z
			 M946.98,161.57l-27.76-37.34l26.18-32.85h-20.41l-20.11,26.52V91.38h-9.09c-4.61,0-8.36,3.74-8.36,8.36v61.84h17.45v-19.3
			l3.31-4.17l16.99,23.47H946.98z"/>
	</g>
	<g>
		<linearGradient id="SVGID_11_" gradientUnits="userSpaceOnUse" x1="89.7615" y1="152.6398" x2="219.4323" y2="152.6398">
			<stop  offset="0" style="stop-color:#00AA8C"/>
			<stop  offset="0.3276" style="stop-color:#02BC9A"/>
			<stop  offset="1" style="stop-color:#05DDB3"/>
		</linearGradient>
		<path class="st10" d="M110.2,199.93c18.51,17.37,45.4,22.32,68.85,12.77c1.6-8.39-1.19-17.09-7.44-22.95
			c-4.55-4.27-10.74-6.73-17.16-6.78c-6.41-0.05-13.93-2.14-20.64-8.2c-5.91-5.55-9.31-13.06-9.56-21.16
			c-0.26-8.1,2.66-15.82,8.2-21.73c5.55-5.91,13.06-9.31,21.16-9.56c8.11-0.27,15.82,2.66,21.73,8.2c3.98,3.74,6.86,8.45,8.37,13.69
			c6.89,3.16,13.2,7.4,18.78,12.64c5.36,5.03,9.83,10.76,13.34,17.09c8.36-24.01,1.92-50.94-16.88-68.58
			c-12.63-11.85-29.11-18.08-46.43-17.53c-17.31,0.55-33.38,7.81-45.23,20.44C82.82,134.34,84.13,175.46,110.2,199.93L110.2,199.93z
			"/>
		<linearGradient id="SVGID_12_" gradientUnits="userSpaceOnUse" x1="89.628" y1="208.0457" x2="219.3601" y2="208.0457">
			<stop  offset="0" style="stop-color:#FFB80B"/>
			<stop  offset="0.3677" style="stop-color:#FFCD00"/>
			<stop  offset="0.7638" style="stop-color:#FEDD40"/>
			<stop  offset="1" style="stop-color:#FEE661"/>
		</linearGradient>
		<path class="st11" d="M93.23,186.7c-8.36,24.01-1.92,50.94,16.88,68.58c12.63,11.85,29.12,18.08,46.43,17.53
			c17.31-0.55,33.38-7.81,45.23-20.44c17.94-19.12,22.62-46.95,11.91-70.89c-8.79-18.8-23.33-29.65-37.01-34.42
			c-17.71-6.14-34.33-4.16-46.66,0.88c-1.6,8.39,1.19,17.08,7.44,22.95c4.73,4.44,10.58,6.77,17.45,6.76
			c9.48-0.27,19.21,5.26,24.52,13.1c3.38,4.99,5.34,10.9,5.38,16.82c0,10.07-4.64,17.41-8.2,21.2c-5.55,5.91-13.06,9.31-21.16,9.56
			c-8.12,0.26-15.82-2.66-21.73-8.2c-3.99-3.74-6.86-8.45-8.37-13.69c-6.89-3.16-13.21-7.4-18.78-12.63
			C101.21,198.77,96.74,193.04,93.23,186.7z"/>
	</g>
</g>
</svg>
