<?xml version="1.0"?>
<svg width="201.84418512" height="45.16792712" xmlns="http://www.w3.org/2000/svg" xmlns:svg="http://www.w3.org/2000/svg">
 <g>
  <title>Layer 1</title>
  <path d="m193.59375,7.3125c-3.63749,0 -6.09375,1.68875 -6.09375,4.21875c0,2.535 2.5625,3.5575 4.8125,4.46875c1.7375,0.705 3.5625,1.45125 3.5625,2.65625c0,0.36875 -0.1125,0.6475 -0.3125,0.875c-0.4125,0.495 -1.275,0.7225 -2.625,0.65625c-1.325,-0.06375 -2.825,-0.50625 -4.5,-1.28125l-0.6875,-0.3125l0,3.125l0.4375,0.125l0.28125,0.0625c0.83749,0.20125 2.4375,0.5625 4.0625,0.5625c4.22499,0 6.75,-1.67 6.75,-4.46875c-0.00001,-2.595 -2.60625,-3.645 -4.90625,-4.5625c-1.6875,-0.67375 -3.4375,-1.365 -3.4375,-2.46875c0,-0.32375 -0.01875,-1.28125 2.15625,-1.28125c1.62499,0 3.23125,0.64375 4.09375,1l0.8125,0.34375l0,-3.15625l-0.8125,-0.15625c-0.8125,-0.1575 -2.18125,-0.40625 -3.59375,-0.40625zm-142.6875,0.5l0,0.15625c0.1125,1.5175 0.1875,5.32375 0.1875,6.71875c0.00001,1.2725 -0.01875,5.52375 -0.21875,7.375l0,0.15625l6.6875,0c3.275,0 6.75,-1.02 6.75,-3.9375c0.00001,-1.83 -1.30625,-3.19125 -3.78125,-3.9375c1.8125,-0.4825 3.0625,-1.735 3.0625,-3.1875c0,-2.375 -2.75,-3.29 -5.3125,-3.34375l-7.375,0zm16.21875,0l0,0.15625c0.1125,1.5175 0.1875,5.28625 0.1875,6.6875c0,1.27 -0.01875,5.5575 -0.21875,7.40625l0,0.15625l3.34375,0l0,-0.125c-0.1875,-3.53 -0.1875,-7.0725 -0.1875,-10.5c0.11233,0.40146 0.29842,0.79382 0.8125,1.5625c0.05,0.08875 5.825,8.50125 6.125,9l0,0.0625l2.71875,0l-0.03125,-0.15625c-0.18749,-1.8525 -0.1875,-6.13625 -0.1875,-7.40625c0,-1.40125 0.0875,-5.17625 0.1875,-6.6875l0,-0.15625l-0.125,0l-3.25,0l0.15625,3.625c0.0625,1.81 0.09375,3.65 0.21875,5.4375c-0.22499,-0.5475 -0.4,-0.84875 -1.375,-2.28125c-0.02499,-0.05125 -3.3875,-5.27625 -4.5625,-6.75l-0.03125,-0.03125l-3.78125,0zm16.53125,0l0.03125,0.125c0.1125,1.5225 0.1875,5.31875 0.1875,6.71875c0,1.27125 -0.01875,5.55625 -0.21875,7.40625l-0.03125,0.15625l4.03125,0l-0.03125,-0.15625c-0.1375,-1.31875 -0.175,-3.83125 -0.1875,-5.78125c0.1625,0.00875 0.71875,0.03125 0.71875,0.03125l0.5625,0.03125c5.2875,0 7.84375,-1.41875 7.84375,-4.34375c0.00001,-3.33375 -3.58125,-4.12 -6.59375,-4.1875l-6.3125,0zm20.5625,0l0,0.125c0.1125,1.5225 0.21875,5.31875 0.21875,6.71875c0,1.27125 -0.05,5.55625 -0.25,7.40625l0,0.15625l4,0l0,-0.15625c-0.1375,-1.31875 -0.19375,-3.83125 -0.21875,-5.78125c0.175,0.00875 0.75,0.03125 0.75,0.03125l0.5625,0.03125c5.2875,0 7.84375,-1.41875 7.84375,-4.34375c0,-3.33375 -3.6125,-4.12 -6.625,-4.1875l-6.28125,0zm18.21875,0l-0.03125,0.09375c-0.7375,2.0475 -5.53125,12.51875 -6.28125,14.125l-0.09375,0.1875l3.4375,0l0.03125,-0.0625c0.3,-0.9825 0.6625,-2.105 1.125,-3.3125c0.125,-0.0025 2.84375,-0.0625 2.84375,-0.0625l2.34375,0.03125c0,0 0.4,0.03125 0.5,0.03125c0.625,1.55375 1.08125,2.7325 1.28125,3.3125l0.03125,0.0625l3.96875,0l-6.40625,-14.40625l-0.0625,0l-2.625,0l-0.0625,0zm10.75,0l0,0.15625c0.1125,1.5175 0.1875,5.28625 0.1875,6.6875c0,1.26875 -0.00625,5.5575 -0.21875,7.40625l0,0.15625l4,0l0,-0.15625c-0.19999,-1.855 -0.21875,-6.1375 -0.21875,-7.40625c0,-1.005 0.05,-3.245 0.125,-5.03125c0.325,-0.04125 0.7625,-0.05625 1.0625,-0.0625c1.875,-0.035 3.20625,0.3475 3.84375,1.125c0.28751,0.35375 0.4375,0.80125 0.4375,1.3125c0.00001,1.6625 -1.58125,2.485 -3.03125,2.5625c-0.475,0.025 -0.84375,-0.03125 -0.84375,-0.03125l-0.28125,-0.0625l0.1875,0.28125c1.4,2.07875 3.5375,5.6825 4.4375,7.40625l0.03125,0.0625l4.28125,0l-0.125,-0.21875c-0.15,-0.23 -2.96875,-4.3625 -4.15625,-6.125c-0.00001,0 -0.0375,-0.04375 -0.0625,-0.09375c2.17501,-0.66125 3.25,-1.89125 3.25,-3.78125c0.00001,-3.3325 -3.6125,-4.12375 -6.625,-4.1875l-6.28125,0zm15.875,0l0,0.125c0.1125,1.5225 0.1875,5.32375 0.1875,6.71875c0,1.26875 -0.01875,5.55375 -0.21875,7.40625l0,0.15625l4,0l-0.03125,-0.15625c-0.2,-1.8525 -0.1875,-6.1375 -0.1875,-7.40625c0,-1.39625 0.0875,-5.2 0.1875,-6.71875l0,-0.125l-0.125,0l-3.8125,0zm7.5625,0l0,0.15625c0.1125,1.515 0.1875,5.32375 0.1875,6.71875c0,1.2725 0.0125,5.52375 -0.1875,7.375l-0.03125,0.15625l6.71875,0c3.2625,0 6.75,-1.02 6.75,-3.9375c0,-1.83 -1.325,-3.19125 -3.8125,-3.9375c1.825,-0.4825 3.0625,-1.735 3.0625,-3.1875c0,-2.375 -2.75,-3.29 -5.3125,-3.34375l-7.375,0zm20.59375,0l-0.03125,0.0625c-0.7875,2.1775 -5.85625,13.24625 -6.28125,14.15625l-0.09375,0.1875l3.4375,0l0.03125,-0.09375c0.30001,-0.98 0.6625,-2.09875 1.125,-3.3125c0.11249,-0.0025 2.84375,-0.03125 2.84375,-0.03125l2.34375,0.03125c0.00001,0 0.4,-0.0025 0.5,0c0.62499,1.55 1.08125,2.72625 1.28125,3.3125l0.03125,0.09375l3.96875,0l-6.40625,-14.40625l-0.0625,0l-2.6875,0zm-121.875,1.625c0.23125,-0.01687 0.50625,-0.00187 0.75,0c2.7875,0.01 3.8125,0.5675 3.8125,2.09375c0.00001,0.40875 -0.10625,0.76125 -0.34375,1.0625c-0.5375,0.63875 -1.625,0.97125 -2.9375,0.90625l-0.0625,0l-0.78125,2.03125l0.78125,0c1.5375,-0.04375 2.875,0.4425 3.5625,1.28125c0.325,0.38875 0.46875,0.83625 0.46875,1.3125c0.00001,1.6025 -1.40625,2.40625 -4.15625,2.40625c-0.4625,0 -1.2125,-0.0025 -1.6875,-0.03125c-0.1,-2.10875 -0.09375,-4.96375 -0.09375,-5.8125c0,-1.00625 0.03125,-3.2425 0.09375,-5.15625c0.15625,-0.02687 0.3625,-0.07687 0.59375,-0.09375zm105.75,0c0.22969,-0.01687 0.475,-0.00187 0.71875,0c2.8,0.01 3.84375,0.5675 3.84375,2.09375c0.00001,0.40875 -0.125,0.76125 -0.375,1.0625c-0.53749,0.63875 -1.6125,0.97125 -2.9375,0.90625l-0.0625,0l-0.78125,2.03125l0.8125,0c1.5375,-0.04375 2.84375,0.4425 3.53125,1.28125c0.32499,0.38875 0.5,0.83625 0.5,1.3125c0.00001,1.6025 -1.40625,2.40625 -4.15625,2.40625c-0.475,0 -1.2125,-0.0025 -1.6875,-0.03125c-0.1,-2.10875 -0.125,-4.96375 -0.125,-5.8125c0,-1.0075 0.05,-3.24875 0.125,-5.15625c0.15,-0.02687 0.36406,-0.07687 0.59375,-0.09375zm-72.5,0.125c1.875,-0.03375 3.175,0.345 3.8125,1.125c0.2875,0.35875 0.4375,0.8 0.4375,1.3125c0.00001,2.08625 -2.31875,2.53125 -4.28125,2.53125l-0.8125,-0.03125c0.00001,0 -0.1875,-0.04625 -0.3125,-0.0625c-0.0125,-0.48 0,-1.09625 0,-1.8125c0,-0.91875 -0.00625,-1.96375 0.03125,-2.96875c0.2375,-0.04625 0.6875,-0.08375 1.125,-0.09375zm20.53125,0c1.875,-0.03375 3.20625,0.345 3.84375,1.125c0.2875,0.35875 0.4375,0.8 0.4375,1.3125c0,2.08625 -2.31875,2.53125 -4.28125,2.53125l-0.8125,-0.03125c0,0 -0.2,-0.04625 -0.3125,-0.0625c-0.0125,-0.48 -0.03125,-1.095 -0.03125,-1.8125c0,-0.91875 0.025,-1.96375 0.0625,-2.96875c0.25,-0.04625 0.66875,-0.08375 1.09375,-0.09375zm14.34375,2.5c0.325,0.6775 1.15625,2.60375 2.09375,4.875c-0.1375,0.00375 -0.3125,0 -0.3125,0l-1.78125,0.03125c0,0 -1.80625,-0.0225 -2.09375,-0.03125c0.75,-1.83 1.45625,-3.47625 2.09375,-4.875zm54.78125,0c0.325,0.68 1.15625,2.605 2.09375,4.875c-0.14999,0.0025 -0.3125,0 -0.3125,0l-1.78125,0.03125c0,0 -1.80625,-0.02875 -2.09375,-0.03125c0.75001,-1.8275 1.45625,-3.4725 2.09375,-4.875z" id="path2478" fill-rule="nonzero" fill="#ffffff"/>
  <path d="m0,42.61125l42.6125,0l0,-42.61125l-42.6125,0l0,42.61125z" id="path2520" fill-rule="nonzero" fill="#00925c"/>
  <path d="m24.1875,4.71875c1.1625,0.4825 5.85,3.045 6.4375,3.84375c-2.4875,0.33 -7.225,1.73625 -9.625,3c2.75,-0.6025 6.58125,-0.92375 9.21875,-1.0625c-1.025,1.515 -1.5875,2.29 -3.25,4.09375c2.85,-1.71125 3.64375,-1.83 6.28125,-3.375c0.9875,1.47 1.24375,4.86875 1.28125,7.5625c0.8625,-1.71125 1.90625,-8.14375 1.46875,-9.3125c1.5875,-1.04 1.5875,-1.4525 2,-2.15625c-1.6,0.1425 -2.5,0.16875 -3.375,0.4375c-2.2,-1.3525 -6.7375,-2.74375 -10.4375,-3.03125zm-6.25,8.15625c-0.7125,0.105 -2.725,1.0075 -4.0625,2.0625c0,0 -0.8875,-0.10875 -2.375,-0.0625c-1.4875,0.065 -3.4375,0.44 -4.1875,0.75c1.45,0.0675 3.425,0.43 4.1875,1.1875c0,0 -2.2125,1.99375 -4.375,6.34375c0,0 3.975,-3.7025 5.6875,-4.625c0,0 0.875,3.01 1.5,4.5c0,0 0.55625,-3.47125 1.46875,-5.46875c0,0 0.25625,-0.15875 1.53125,-0.28125c1.2625,-0.1125 3.04375,-0.19375 6.46875,0.40625c0,0 -3.14375,-1.99625 -7.03125,-2.53125c0.15,-0.5325 0.7,-1.675 1.1875,-2.28125zm-11.1875,11.8125c-0.25,2.13875 -0.33125,3.6975 -0.03125,5.40625c-0.975,0.265 -1.66875,0.4875 -2.46875,0.84375c1.125,0.69125 2.05,1.235 3.3125,1.8125c0.6625,1.44 1.34375,2.39625 2.46875,3.5c-0.2625,-0.94125 -0.31875,-1.69625 -0.21875,-2.6875c1.4125,0.41125 2.5875,0.63625 4.1875,0.6875c-1.525,-0.5625 -2.6125,-1.2225 -3.8125,-2.34375c0.3625,-0.9825 0.775,-1.76875 1.4375,-2.75c-1.225,0.175 -2.125,0.32375 -3.1875,0.53125c-0.8625,-1.51375 -1.25,-2.98 -1.6875,-5zm18.6875,6.65625c-1.075,0.75625 -2.0125,1.34625 -3.25,1.9375c-0.0625,-0.58 -0.1,-1.06875 -0.125,-1.71875c-0.7,0.93 -1.2875,1.64375 -2.0625,2.5c-1.3125,0.3575 -2.35,0.495 -3.625,0.5c0.775,0.40375 1.5625,0.64875 2.375,0.8125c-0.8125,0.74375 -1.525,1.27625 -2.3125,1.78125c1.3375,-0.3175 3.075,-0.8925 4.375,-1.65625c0.675,0.0225 1.35,-0.0075 1.8125,-0.09375c-0.1125,-0.4025 -0.2,-0.70375 -0.3125,-1.21875c1.2375,-0.95375 2.1125,-1.81 3.125,-2.84375z" id="path2524" fill-rule="nonzero" fill="#ffffff"/>
  <text fill="#000000" stroke-width="0" stroke-dasharray="null" stroke-linejoin="null" stroke-linecap="null" x="47.922077" y="32.250641" id="svg_3" font-size="24" font-family="serif" text-anchor="middle" xml:space="preserve" font-weight="bold" transform="matrix(10.178618431091309,0,0,0.4469515085220337,-384.78489454090595,22.35525699146092) "/>
  <text font-style="normal" fill="#ffffff" stroke-width="0" stroke-dasharray="null" stroke-linejoin="null" stroke-linecap="null" x="97.922077" y="43.427192" id="svg_4" font-size="24" font-family="Sans-serif" text-anchor="middle" xml:space="preserve" transform="matrix(1,0,0,0.7904837821525845,0,6.230278688852936) " font-weight="bold">FACTOR</text>
  <text xml:space="preserve" text-anchor="middle" font-family="serif" font-size="24" id="svg_1" y="-228.416027" x="133.922077" stroke-linecap="null" stroke-linejoin="null" stroke-dasharray="null" stroke-width="0" fill="#000000"/>
 </g>
</svg>