<?xml version="1.0" standalone="no"?><!-- Generator: Gravit.io --><svg xmlns="http://www.w3.org/2000/svg" xmlns:xlink="http://www.w3.org/1999/xlink" style="isolation:isolate" viewBox="0 0 559 142" width="559" height="142"><defs><clipPath id="_clipPath_AJWO3ha3VJVVSmK3RzYwjJL7utqaQilh"><rect width="559" height="142"/></clipPath></defs><g clip-path="url(#_clipPath_AJWO3ha3VJVVSmK3RzYwjJL7utqaQilh)"><g><rect x="1.315" y="0" width="556.357" height="142" transform="matrix(1,0,0,1,0,0)" fill="rgb(255,255,255)"/><rect x="1.315" y="0" width="556.357" height="142" transform="matrix(1,0,0,1,0,0)" fill="rgb(255,255,255)"/><rect x="1.315" y="0" width="33.833" height="35.226" transform="matrix(1,0,0,1,0,0)" fill="none"/><rect x="523.839" y="106.873" width="33.833" height="35.226" transform="matrix(1,0,0,1,0,0)" fill="none"/></g><g><g><path d=" M 52.562 67.865 C 52.562 70.95 51.169 72.741 47.587 72.741 L 44.502 72.741 L 44.502 63.189 C 44.9 63.189 46.194 63.089 46.592 63.089 L 47.686 63.089 C 51.368 63.089 52.562 64.681 52.562 67.865 Z  M 59.826 79.807 C 59.826 75.13 56.045 73.438 51.368 73.338 L 51.368 73.139 C 55.348 72.841 58.533 71.149 58.533 67.169 C 58.533 62.691 54.851 61.895 50.771 61.895 C 45.796 61.895 40.024 61.994 35.148 61.895 L 35.148 63.089 C 36.243 62.989 38.73 63.189 38.73 64.482 L 38.73 83.986 C 38.73 85.28 36.143 85.479 35.148 85.479 L 35.148 86.673 C 39.924 86.573 45.597 86.673 50.373 86.673 C 55.348 86.673 59.826 84.882 59.826 79.807 Z  M 53.557 79.309 C 53.557 83.389 52.164 85.28 47.487 85.28 L 44.601 85.28 L 44.601 74.035 L 47.686 74.035 C 51.965 74.035 53.557 75.528 53.557 79.309 Z " fill="rgb(0,121,193)"/><path d=" M 91.669 86.573 C 89.48 86.573 87.291 86.573 85.002 86.573 L 85.002 85.379 C 85.997 85.379 88.784 85.28 88.784 83.986 L 88.784 65.776 L 88.684 65.776 L 78.634 86.971 L 77.539 86.971 L 67.688 65.875 L 67.588 65.875 L 67.588 84.085 C 67.588 85.479 70.474 85.479 71.568 85.479 L 71.568 86.673 C 68.782 86.573 65.001 86.474 62.314 86.673 L 62.314 85.479 C 63.409 85.479 65.896 85.379 65.896 84.085 L 65.896 64.482 C 65.896 63.189 63.309 63.089 62.314 63.089 L 62.314 61.895 C 65.498 61.994 68.882 61.994 71.967 61.895 L 80.425 79.608 L 88.983 61.895 C 91.968 61.994 95.252 61.994 98.337 61.895 L 98.337 63.089 C 97.341 63.089 94.655 63.189 94.655 64.482 L 94.655 83.986 C 94.655 85.379 97.242 85.379 98.337 85.379 L 98.337 86.573 C 96.147 86.573 93.958 86.573 91.669 86.573 Z " fill="rgb(0,121,193)"/><path d=" M 121.721 74.234 C 121.721 79.11 121.224 85.777 114.258 85.777 C 107.193 85.777 106.695 79.011 106.695 74.234 C 106.695 69.358 107.193 62.691 114.258 62.691 C 121.124 62.691 121.721 69.358 121.721 74.234 Z  M 128.189 74.234 C 128.189 66.074 123.214 61.397 114.159 61.397 C 105.103 61.397 100.028 65.975 100.028 74.234 C 100.028 82.493 105.004 87.071 114.159 87.071 C 123.214 87.071 128.189 82.394 128.189 74.234 Z " fill="rgb(0,121,193)"/></g><path d=" M 179.238 35.226 C 159.435 35.226 143.414 51.247 143.414 71.05 C 143.414 90.852 159.435 106.873 179.238 106.873 C 199.04 106.873 215.061 90.852 215.061 71.05 C 215.061 51.247 199.04 35.226 179.238 35.226 Z " fill="rgb(238,50,36)"/><rect x="162.321" y="51.446" width="33.833" height="35.226" transform="matrix(1,0,0,1,0,0)" fill="none"/><path d=" M 162.321 75.926 L 196.154 75.926 L 196.154 86.673 L 162.321 86.673 L 162.321 75.926 Z  M 178.143 60.104 L 171.974 52.043 C 171.675 51.745 171.277 51.446 170.879 51.446 C 170.481 51.446 170.083 51.645 169.784 51.944 L 162.421 61.298 L 162.421 75.926 L 169.784 66.472 C 170.083 66.174 170.481 65.975 170.879 65.975 C 171.376 65.975 171.775 66.174 171.974 66.572 L 178.243 74.732 C 178.442 75.03 178.84 75.229 179.238 75.229 C 179.636 75.229 180.034 75.03 180.233 74.732 L 186.502 66.572 C 186.8 66.273 187.198 65.975 187.597 65.975 C 188.094 65.975 188.492 66.174 188.691 66.472 L 196.055 75.926 L 196.055 61.298 L 188.691 51.944 C 188.393 51.645 188.094 51.446 187.597 51.446 C 187.099 51.446 186.701 51.645 186.502 52.043 L 180.332 60.104 C 180.034 60.402 179.636 60.601 179.238 60.601 C 178.74 60.601 178.442 60.402 178.143 60.104 Z " fill="rgb(255,255,255)"/></g><g><g><path d=" M 243.919 87.071 C 234.963 87.071 230.386 82.095 230.386 74.135 C 230.386 65.776 235.162 60.9 244.516 60.9 C 247.899 60.9 251.084 61.596 254.367 62.591 L 254.367 69.06 L 252.576 69.06 C 251.88 64.582 250.088 62.193 244.715 62.193 C 237.252 62.193 235.958 68.562 235.958 74.035 C 235.958 79.508 237.053 85.877 244.615 85.877 C 249.889 85.877 252.079 82.991 252.477 78.513 L 254.367 78.513 L 254.367 85.379 C 251.382 86.275 247.103 87.071 243.919 87.071 Z " fill="rgb(0,121,193)"/><path d=" M 272.677 86.772 C 271.184 86.772 269.791 86.573 269.791 84.981 C 268 86.474 266.309 87.071 263.92 87.071 C 260.039 87.071 258.149 85.28 258.149 81.797 C 258.149 75.826 265.413 76.224 269.791 75.926 L 269.791 73.239 C 269.791 71.249 268.796 70.254 266.607 70.254 C 264.119 70.254 263.323 71.448 263.323 73.537 C 263.323 74.433 262.527 74.632 261.731 74.632 C 260.437 74.632 259.542 74.632 259.542 73.139 C 259.542 69.756 263.423 69.06 266.408 69.06 C 271.085 69.06 274.369 69.657 274.369 74.533 L 274.369 82.792 C 274.369 85.28 274.568 85.578 277.354 85.578 L 277.354 86.772 C 275.762 86.673 274.269 86.772 272.677 86.772 Z  M 269.791 77.12 C 266.01 77.418 263.025 77.717 263.025 81.896 C 263.025 83.588 263.622 85.379 265.91 85.379 C 268.995 85.379 269.891 82.792 269.891 80.404 L 269.891 77.12 L 269.791 77.12 Z " fill="rgb(0,121,193)"/><path d=" M 291.882 87.071 C 289.793 87.071 288.101 86.474 286.608 84.981 L 286.509 84.981 L 286.509 92.643 C 286.509 94.036 288.798 94.036 289.892 94.036 L 289.892 95.231 C 286.21 95.131 282.33 95.131 278.648 95.231 L 278.648 94.036 C 279.643 94.036 281.932 94.036 281.932 92.743 L 281.932 71.846 C 281.932 70.552 279.742 70.453 278.747 70.453 L 278.747 69.358 C 281.235 69.358 283.822 69.358 286.409 69.259 L 286.409 71.647 L 286.509 71.647 C 287.902 69.657 289.992 68.96 292.38 68.96 C 298.152 68.96 300.241 73.239 300.241 77.816 C 300.241 82.891 298.052 87.071 291.882 87.071 Z  M 290.987 70.453 C 287.305 70.453 286.509 74.334 286.509 76.921 C 286.509 79.906 286.111 85.777 290.987 85.777 C 295.365 85.777 295.365 80.603 295.365 77.717 C 295.266 74.831 295.166 70.453 290.987 70.453 Z " fill="rgb(0,121,193)"/><path d=" M 303.326 86.673 L 303.326 85.479 C 304.321 85.479 306.411 85.379 306.411 84.085 L 306.411 71.846 C 306.411 70.652 304.222 70.652 303.326 70.552 L 303.326 69.358 C 305.814 69.358 308.501 69.458 311.088 69.358 L 311.088 84.185 C 311.088 85.479 313.277 85.578 314.272 85.578 L 314.272 86.772 C 310.69 86.573 306.908 86.573 303.326 86.673 Z  M 308.799 65.975 C 307.207 65.975 306.212 64.781 306.212 63.388 C 306.212 61.994 307.207 60.9 308.799 60.9 C 310.391 60.9 311.386 62.094 311.386 63.388 C 311.386 64.88 310.391 65.975 308.799 65.975 Z " fill="rgb(0,121,193)"/><path d=" M 324.024 86.971 C 320.342 86.971 319.347 85.28 319.347 82.195 L 319.347 70.652 L 316.461 70.652 L 316.461 69.358 L 319.347 69.358 L 319.347 65.676 L 323.925 65.278 L 323.925 69.358 L 328.104 69.358 L 328.104 70.652 L 323.925 70.652 L 323.925 82.792 C 323.925 84.185 324.323 85.18 326.014 85.18 C 326.81 85.18 327.805 84.583 328.402 84.185 L 329.198 85.28 C 327.606 86.175 325.915 86.971 324.024 86.971 Z " fill="rgb(0,121,193)"/><path d=" M 346.016 86.772 C 344.523 86.772 343.13 86.573 343.13 84.981 C 341.339 86.474 339.647 87.071 337.259 87.071 C 333.378 87.071 331.487 85.28 331.487 81.797 C 331.487 75.826 338.751 76.224 343.13 75.926 L 343.13 73.239 C 343.13 71.249 342.135 70.254 339.946 70.254 C 337.458 70.254 336.662 71.448 336.662 73.537 C 336.662 74.433 335.866 74.632 335.07 74.632 C 333.776 74.632 332.88 74.632 332.88 73.139 C 332.88 69.756 336.761 69.06 339.747 69.06 C 344.423 69.06 347.707 69.657 347.707 74.533 L 347.707 82.792 C 347.707 85.28 347.906 85.578 350.693 85.578 L 350.693 86.772 C 349.1 86.673 347.608 86.772 346.016 86.772 Z  M 343.13 77.12 C 339.348 77.418 336.363 77.717 336.363 81.896 C 336.363 83.588 336.96 85.379 339.249 85.379 C 342.334 85.379 343.229 82.792 343.229 80.404 L 343.229 77.12 L 343.13 77.12 Z " fill="rgb(0,121,193)"/><path d=" M 352.484 86.673 L 352.484 85.479 C 353.479 85.479 355.569 85.379 355.569 84.085 L 355.569 62.89 C 355.569 61.596 353.479 61.497 352.484 61.497 L 352.484 60.402 C 354.971 60.402 357.658 60.502 360.146 60.303 L 360.146 84.185 C 360.146 85.479 362.335 85.578 363.33 85.578 L 363.33 86.772 C 359.748 86.573 355.967 86.573 352.484 86.673 Z " fill="rgb(0,121,193)"/><path d=" M 398.059 86.673 L 398.059 85.479 C 399.054 85.479 402.039 85.479 402.039 84.185 L 402.039 64.781 L 391.392 86.971 L 390.496 86.971 L 380.048 64.88 L 380.048 84.185 C 380.048 85.479 383.033 85.479 384.028 85.479 L 384.028 86.673 C 380.943 86.573 377.759 86.573 374.674 86.673 L 374.674 85.479 C 375.669 85.479 378.356 85.479 378.356 84.185 L 378.356 63.786 C 378.356 62.492 375.669 62.492 374.674 62.492 L 374.674 61.298 C 377.56 61.397 380.645 61.397 383.531 61.298 L 392.686 80.404 L 401.94 61.298 C 404.826 61.397 407.811 61.397 410.697 61.298 L 410.697 62.492 C 409.702 62.492 406.915 62.492 406.915 63.786 L 406.915 84.085 C 406.915 85.379 409.702 85.379 410.697 85.379 L 410.697 86.573 C 406.915 86.573 401.94 86.573 398.059 86.673 Z " fill="rgb(0,121,193)"/><path d=" M 427.514 86.772 C 426.021 86.772 424.628 86.573 424.628 84.981 C 422.837 86.474 421.145 87.071 418.757 87.071 C 414.876 87.071 412.985 85.28 412.985 81.797 C 412.985 75.826 420.25 76.224 424.628 75.926 L 424.628 73.239 C 424.628 71.249 423.633 70.254 421.444 70.254 C 418.956 70.254 418.16 71.448 418.16 73.537 C 418.16 74.433 417.364 74.632 416.568 74.632 C 415.274 74.632 414.379 74.632 414.379 73.139 C 414.379 69.756 418.259 69.06 421.245 69.06 C 425.922 69.06 429.206 69.657 429.206 74.533 L 429.206 82.792 C 429.206 85.28 429.405 85.578 432.191 85.578 L 432.191 86.772 C 430.599 86.673 429.006 86.772 427.514 86.772 Z  M 424.628 77.12 C 420.847 77.418 417.861 77.717 417.861 81.896 C 417.861 83.588 418.458 85.379 420.747 85.379 C 423.832 85.379 424.728 82.792 424.728 80.404 L 424.728 77.12 L 424.628 77.12 Z " fill="rgb(0,121,193)"/><path d=" M 447.615 74.533 C 444.132 74.533 446.918 70.751 444.53 70.751 C 441.943 70.751 441.346 75.13 441.346 76.821 L 441.346 84.085 C 441.346 85.479 443.634 85.479 444.629 85.479 L 444.629 86.673 C 440.948 86.573 437.266 86.573 433.584 86.673 L 433.584 85.479 C 434.579 85.479 436.669 85.379 436.669 84.085 L 436.669 71.846 C 436.669 70.552 434.579 70.453 433.584 70.453 L 433.584 69.358 C 436.072 69.358 438.659 69.358 441.246 69.259 L 441.246 71.945 L 441.346 71.945 C 442.341 70.254 443.933 68.96 446.122 68.96 C 448.411 68.96 449.804 70.254 449.804 72.343 C 449.704 73.737 449.306 74.533 447.615 74.533 Z " fill="rgb(0,121,193)"/><path d=" M 464.034 86.673 L 464.034 85.578 C 464.332 85.578 465.427 85.578 465.327 85.081 C 465.228 84.583 464.332 83.886 463.934 83.289 C 462.84 81.896 461.745 80.603 460.65 79.21 C 460.65 79.21 460.153 78.413 460.153 78.413 L 458.561 79.807 L 458.561 84.185 C 458.561 85.578 460.551 85.479 461.646 85.479 L 461.646 86.673 C 458.163 86.573 454.381 86.573 450.899 86.673 L 450.899 85.479 C 451.894 85.479 453.983 85.379 453.983 84.085 L 453.983 62.89 C 453.983 61.596 451.993 61.497 450.899 61.497 L 450.899 60.402 C 453.386 60.402 456.073 60.502 458.561 60.303 L 458.561 78.214 C 458.561 78.214 464.929 71.448 464.929 70.851 C 464.929 70.552 463.437 70.453 463.138 70.453 L 463.138 69.458 L 470.999 69.458 L 470.999 70.453 L 470.502 70.453 C 469.606 70.453 467.815 70.453 467.218 71.05 C 465.626 72.343 463.039 75.528 463.039 75.528 L 470.303 84.185 C 471.099 85.081 472.393 85.578 473.587 85.678 L 473.587 86.772 C 470.303 86.474 467.119 86.673 464.034 86.673 Z " fill="rgb(0,121,193)"/><path d=" M 479.358 77.617 L 479.358 78.413 C 479.358 81.598 479.657 85.678 484.234 85.678 C 487.717 85.678 489.309 83.986 489.906 81.001 L 491.498 81.001 C 490.603 85.379 488.414 86.971 483.538 86.971 C 476.97 86.971 474.383 83.289 474.383 77.717 C 474.383 72.343 477.667 68.96 483.637 68.96 C 489.508 68.96 491.996 72.244 491.996 77.319 L 491.996 77.617 L 479.358 77.617 Z  M 487.021 75.229 C 487.021 72.841 486.523 70.154 483.339 70.154 C 479.657 70.154 479.458 73.936 479.458 76.423 L 487.12 76.423 L 487.12 75.229 L 487.021 75.229 Z " fill="rgb(0,121,193)"/><path d=" M 502.046 86.971 C 498.365 86.971 497.369 85.28 497.369 82.195 L 497.369 70.652 L 494.484 70.652 L 494.484 69.358 L 497.369 69.358 L 497.369 65.676 L 501.947 65.278 L 501.947 69.358 L 506.126 69.358 L 506.126 70.652 L 501.847 70.652 L 501.847 82.792 C 501.847 84.185 502.245 85.18 503.937 85.18 C 504.733 85.18 505.728 84.583 506.325 84.185 L 507.121 85.28 C 505.629 86.175 503.937 86.971 502.046 86.971 Z " fill="rgb(0,121,193)"/><path d=" M 515.878 87.071 C 513.689 87.071 511.4 86.673 509.41 86.076 L 509.41 80.702 L 511.201 80.702 C 511.301 83.488 512.594 85.976 515.978 85.976 C 517.968 85.976 520.157 85.081 520.157 82.991 C 520.157 78.712 509.709 80.702 509.709 74.533 C 509.709 70.552 512.992 69.06 516.973 69.06 C 518.864 69.06 520.754 69.458 522.545 70.055 L 522.545 74.632 L 520.953 74.632 C 520.655 72.144 519.759 70.353 516.674 70.353 C 514.784 70.353 513.39 71.05 513.39 72.94 C 513.39 77.12 523.839 74.632 523.839 81.598 C 523.839 85.479 519.759 87.071 515.878 87.071 Z " fill="rgb(0,121,193)"/></g><rect x="526.028" y="69.159" width="8.458" height="8.558" transform="matrix(1,0,0,1,0,0)" fill="none"/><path d=" M 521.749 73.438 C 521.749 78.214 525.63 81.996 530.307 81.996 C 535.084 81.996 538.865 78.115 538.865 73.438 C 538.865 68.662 534.984 64.88 530.307 64.88 C 525.531 64.88 521.749 68.662 521.749 73.438 Z " fill="none"/><g><path d=" M 530.307 69.159 C 527.919 69.159 526.028 71.05 526.028 73.438 C 526.028 75.826 527.919 77.717 530.307 77.717 C 532.695 77.717 534.586 75.826 534.586 73.438 C 534.586 71.149 532.695 69.159 530.307 69.159 L 530.307 69.159 Z  M 530.307 77.12 C 528.317 77.12 526.725 75.428 526.725 73.438 C 526.725 71.448 528.317 69.756 530.307 69.756 C 532.297 69.756 533.889 71.348 533.889 73.438 C 533.889 75.528 532.297 77.12 530.307 77.12 Z " fill="rgb(0,121,193)"/><path d=" M 532.297 72.443 C 532.297 71.448 531.7 71.05 530.705 71.05 L 528.814 71.05 L 528.814 75.926 L 529.412 75.926 L 529.412 73.737 L 530.407 73.737 L 531.8 75.926 L 532.496 75.926 L 531.004 73.737 C 531.8 73.637 532.297 73.04 532.297 72.443 L 532.297 72.443 Z  M 529.412 73.239 L 529.412 71.547 L 530.407 71.547 C 531.302 71.547 531.7 71.846 531.7 72.443 C 531.7 73.04 531.302 73.239 530.407 73.239 L 529.412 73.239 Z " fill="rgb(0,121,193)"/></g><path d=" M 522.545 73.438 C 522.545 77.717 526.028 81.2 530.307 81.2 C 534.586 81.2 538.069 77.717 538.069 73.438 C 538.069 69.159 534.586 65.676 530.307 65.676 C 526.028 65.676 522.545 69.159 522.545 73.438 Z " fill="none"/></g></g></svg>