<?xml version="1.0" encoding="UTF-8"?>
<svg width="18px" height="18px" viewBox="0 0 24 24" version="1.1" xmlns="http://www.w3.org/2000/svg" xmlns:xlink="http://www.w3.org/1999/xlink">
    <!-- Generator: Sketch 51.3 (57544) - http://www.bohemiancoding.com/sketch -->
    <title>24/home</title>
    <desc>Created with Sketch.</desc>
    <defs>
        <path d="M21.66,11.25 L12.66,3.25 C12.2824937,2.91835413 11.7175063,2.91835413 11.34,3.25 L2.34,11.25 C1.95391599,11.6208372 1.92835363,12.2299503 2.28200933,12.6318318 C2.63566502,13.0337133 3.24308501,13.085802 3.66,12.75 L5,11.56 L5,20 C5,20.5522847 5.44771525,21 6,21 L18,21 C18.5522847,21 19,20.5522847 19,20 L19,11.56 L20.34,12.75 C20.7543967,13.1139711 21.3852422,13.0737044 21.75,12.66 C22.1139711,12.2456033 22.0737044,11.6147578 21.66,11.25 Z M17,10 L17,19 L7,19 L7,10 C7.00541098,9.94012199 7.00541098,9.87987801 7,9.82 L12,5.34 L17,9.82 C16.994589,9.87987801 16.994589,9.94012199 17,10 Z" id="path-1"></path>
    </defs>
    <g id="24/home" stroke="none" stroke-width="1" fill="none" fill-rule="evenodd">
        <mask id="mask-2" fill="white">
            <use xlink:href="#path-1"></use>
        </mask>
        <g id="Shape" fill-rule="nonzero"></g>
        <g id="🎨-Colour-/-Primary-/-AccessibleBMOBlue" mask="url(#mask-2)" fill="#0075BE">
            <g transform="translate(-3.000000, -3.000000)" id="#0075BE">
                <rect x="0" y="0" width="30" height="30" rx="4"></rect>
            </g>
        </g>
    </g>
</svg>
