<?xml version="1.0" encoding="UTF-8"?>
<svg width="18px" height="18px" viewBox="0 0 24 24" version="1.1" xmlns="http://www.w3.org/2000/svg" xmlns:xlink="http://www.w3.org/1999/xlink">
    <!-- Generator: Sketch 51.3 (57544) - http://www.bohemiancoding.com/sketch -->
    <title>24/information</title>
    <desc>Created with Sketch.</desc>
    <defs>
        <path d="M12,22 C9.34651425,22.0071853 6.80053089,20.9520607 4.93,19.07 C1.55704328,15.6960243 1.03718911,10.4092471 3.68836563,6.44291219 C6.33954216,2.47657733 11.423341,0.935392421 15.8306542,2.76190269 C20.2379674,4.58841296 22.7412655,9.27389692 21.8096022,13.9528447 C20.8779388,18.6317925 16.7708016,22.0010189 12,22 Z M12,4 C8.76234655,3.99745207 5.84236167,5.94661908 4.60302055,8.93767909 C3.36367944,11.9287391 4.04935847,15.3719074 6.34,17.66 C8.90080692,20.2179574 12.8600643,20.7378633 15.9944581,18.9277655 C19.1288518,17.1176677 20.657426,13.4285645 19.7218125,9.9320655 C18.786199,6.43556649 15.6195124,4.00284844 12,4 Z M12,7 C11.4477153,7 11,7.44771525 11,8 C11,8.55228475 11.4477153,9 12,9 C12.5522847,9 13,8.55228475 13,8 C13,7.44771525 12.5522847,7 12,7 Z M13,16 L13,11 C13,10.4477153 12.5522847,10 12,10 C11.4477153,10 11,10.4477153 11,11 L11,16 C11,16.5522847 11.4477153,17 12,17 C12.5522847,17 13,16.5522847 13,16 Z" id="path-1"></path>
    </defs>
    <g id="24/information" stroke="none" stroke-width="1" fill="none" fill-rule="evenodd">
        <mask id="mask-2" fill="white">
            <use xlink:href="#path-1"></use>
        </mask>
        <g id="Shape" fill-rule="nonzero"></g>
        <g id="🎨-Colour-/-Primary-/-AccessibleBMOBlue" mask="url(#mask-2)" fill="#0075BE">
            <g transform="translate(-3.000000, -3.000000)" id="#0075BE">
                <rect x="0" y="0" width="30" height="30" rx="4"></rect>
            </g>
        </g>
    </g>
</svg>
