<?xml version="1.0" standalone="no"?>
<!DOCTYPE svg PUBLIC "-//W3C//DTD SVG 20010904//EN"
 "http://www.w3.org/TR/2001/REC-SVG-20010904/DTD/svg10.dtd">
<svg version="1.0" xmlns="http://www.w3.org/2000/svg"
 width="2011.000000pt" height="701.000000pt" viewBox="0 0 2011.000000 701.000000"
 preserveAspectRatio="xMidYMid meet">

<g transform="translate(0.000000,701.000000) scale(0.100000,-0.100000)"
fill="#ec0000" stroke="none">
<path d="M3156 6967 c-10 -17 -36 -66 -57 -107 -189 -376 -191 -838 -4 -1210
18 -36 222 -393 454 -794 280 -485 432 -759 456 -820 75 -194 101 -352 92
-561 -9 -206 -49 -360 -143 -549 -56 -111 -72 -135 -78 -115 -2 8 -16 55 -31
104 -15 50 -44 126 -64 171 -21 44 -308 548 -638 1120 -330 571 -617 1073
-638 1113 -39 79 -105 268 -105 304 0 22 -1 22 -19 -3 -29 -37 -105 -195 -135
-278 -38 -108 -67 -262 -73 -397 -9 -194 32 -413 111 -595 18 -41 218 -395
444 -787 226 -392 429 -747 450 -790 198 -395 182 -886 -41 -1267 l-40 -70
-22 79 c-12 44 -37 118 -56 165 -19 48 -258 473 -548 974 -282 489 -531 924
-552 967 -81 162 -127 342 -136 532 -3 64 -10 117 -15 117 -44 0 -400 -120
-568 -192 -619 -264 -1027 -643 -1156 -1073 -25 -82 -28 -104 -28 -260 0 -157
2 -177 27 -260 116 -382 438 -714 944 -973 823 -421 2000 -569 3083 -387 1067
179 1891 667 2124 1257 82 209 91 441 24 656 -58 190 -212 415 -394 577 -316
281 -727 488 -1304 654 -18 6 -26 15 -28 37 -16 178 -72 381 -140 514 -21 41
-265 467 -542 945 -277 479 -518 902 -536 942 -28 61 -51 128 -92 270 -7 22
-8 21 -26 -10z"/>
<path d="M8740 3500 l0 -3500 135 0 135 0 0 3500 0 3500 -135 0 -135 0 0
-3500z"/>
<path d="M12295 6794 c-104 -13 -190 -29 -260 -51 -537 -167 -829 -713 -784
-1461 24 -394 150 -712 369 -933 159 -160 358 -258 605 -296 129 -19 363 -12
486 16 448 102 743 437 849 966 28 138 39 473 20 622 -81 664 -441 1069 -1005
1133 -85 9 -215 11 -280 4z m320 -270 c261 -49 476 -232 589 -501 73 -173 106
-368 106 -620 0 -278 -38 -462 -135 -660 -110 -224 -297 -372 -536 -427 -211
-49 -481 -15 -647 81 -276 158 -432 462 -461 900 -22 320 24 585 142 818 43
85 65 114 146 196 82 81 110 102 191 142 188 91 377 114 605 71z"/>
<path d="M14590 6110 c-156 -12 -360 -48 -522 -91 l-38 -10 0 -959 0 -960 130
0 130 0 0 864 c0 506 4 867 9 870 5 3 62 16 128 27 159 29 453 32 558 6 181
-45 284 -135 336 -292 10 -31 15 -198 19 -755 l5 -715 133 -3 133 -3 -3 748
c-4 831 -1 791 -73 940 -96 195 -302 304 -628 332 -138 12 -172 12 -317 1z"/>
<path d="M16727 6109 c-420 -44 -680 -323 -748 -797 -15 -110 -6 -442 15 -535
94 -411 333 -644 730 -712 181 -31 456 -15 622 36 64 20 174 67 201 86 6 5 19
51 27 103 9 52 19 110 22 128 l5 33 -60 -31 c-198 -100 -460 -149 -681 -129
-360 33 -557 242 -615 652 l-6 47 710 0 c415 0 712 4 715 9 4 5 9 69 12 143
20 431 -125 743 -411 884 -104 51 -175 71 -300 84 -101 11 -128 11 -238 -1z
m271 -244 c240 -57 391 -261 403 -550 l4 -80 -583 -3 -583 -2 7 52 c42 331
202 536 459 588 67 13 226 11 293 -5z"/>
<path d="M17908 2929 c-42 -4 -95 -13 -118 -19 l-40 -11 0 -333 0 -333 -82 19
c-106 25 -418 36 -528 19 -243 -37 -407 -116 -541 -259 -160 -171 -235 -388
-246 -717 -18 -542 180 -908 562 -1042 77 -26 88 -28 270 -28 154 0 202 4 255
18 88 25 197 78 259 127 28 22 52 40 55 40 2 0 7 -34 11 -75 l7 -75 124 0 124
0 0 1340 c0 1270 -1 1340 -17 1339 -10 -1 -53 -5 -95 -10z m-363 -900 c33 -5
93 -17 133 -26 l72 -17 0 -673 0 -673 -57 -45 c-171 -135 -411 -188 -617 -135
-106 27 -169 63 -249 142 -132 130 -207 359 -207 633 0 113 18 246 47 345 92
319 344 481 718 464 55 -3 127 -9 160 -15z"/>
<path d="M11155 2888 c-6 -28 -25 -186 -25 -210 0 -17 25 -18 440 -18 l440 0
0 -1200 0 -1200 135 0 135 0 0 1200 0 1200 424 0 c396 0 425 1 430 18 6 21 26
178 26 209 l0 23 -1000 0 -1000 0 -5 -22z"/>
<path d="M13775 2274 c-216 -21 -359 -45 -472 -79 l-53 -16 0 -959 0 -960 135
0 135 0 0 869 c0 760 2 870 15 875 8 3 68 13 132 22 89 12 168 15 320 12 176
-4 203 -2 209 11 3 9 8 59 11 112 5 80 3 97 -9 102 -19 7 -369 16 -423 11z"/>
<path d="M15067 2265 c-116 -20 -212 -52 -312 -103 -72 -37 -108 -64 -180
-137 -50 -49 -105 -116 -124 -147 -186 -317 -199 -883 -29 -1222 115 -231 299
-369 558 -422 106 -21 346 -15 430 11 72 22 183 78 241 121 26 19 49 34 53 34
3 0 6 -31 6 -70 l0 -70 125 0 125 0 0 959 0 959 -78 26 c-160 54 -259 68 -507
71 -164 3 -252 0 -308 -10z m493 -236 c30 -6 72 -15 93 -20 l37 -10 0 -684 0
-683 -47 -42 c-62 -53 -193 -117 -279 -135 -155 -33 -339 -11 -464 56 -132 70
-243 229 -290 413 -27 106 -39 285 -29 421 31 412 239 650 609 695 84 10 285
4 370 -11z"/>
<path d="M19070 2266 c-346 -73 -558 -299 -645 -686 -25 -113 -32 -438 -11
-567 38 -244 129 -431 275 -566 115 -106 247 -169 433 -208 91 -18 127 -20
303 -16 174 4 213 8 297 30 96 25 268 98 268 114 0 4 9 60 19 123 11 63 17
117 15 119 -2 2 -43 -14 -91 -36 -175 -81 -333 -116 -533 -117 -242 -1 -388
50 -521 183 -59 59 -85 95 -117 161 -40 83 -74 203 -86 307 l-7 53 713 2 713
3 9 110 c23 277 -38 537 -170 722 -82 115 -237 217 -394 258 -88 23 -378 30
-470 11z m345 -231 c94 -20 184 -66 244 -124 107 -104 155 -225 176 -443 l7
-68 -587 0 -586 0 7 53 c41 321 199 528 444 581 86 19 208 19 295 1z"/>
</g>
</svg>
