<?xml version="1.0" encoding="UTF-8"?>
<svg width="18px" height="18px" viewBox="0 0 24 20" version="1.1" xmlns="http://www.w3.org/2000/svg" xmlns:xlink="http://www.w3.org/1999/xlink">
    <!-- Generator: Sketch 51.3 (57544) - http://www.bohemiancoding.com/sketch -->
    <title>24/alert</title>
    <desc>Created with Sketch.</desc>
    <defs>
        <path d="M20.925,14.5520405 L20.425,10.2820405 C20.3709712,6.3689873 17.6065396,3.01841301 13.775,2.22204053 L10.445,2.22204053 L10.235,2.22204053 C6.40346042,3.01841301 3.63902877,6.3689873 3.585,10.2820405 L3.085,14.5520405 C2.41120687,15.0670005 2.01269206,15.8640301 2.005,16.7120405 L2.005,16.8820405 C2.005,18.8820405 4.005,18.8820405 4.775,18.8820405 L8.315,18.8820405 C8.6632028,20.5683134 10.1481518,21.7779595 11.87,21.7779595 C13.5918482,21.7779595 15.0767972,20.5683134 15.425,18.8820405 L19.225,18.8820405 C19.975,18.8820405 21.995,18.8820405 21.995,16.8820405 L21.995,16.7120405 C21.989701,15.8657527 21.5950327,15.069039 20.925,14.5520405 Z M11.865,19.8020405 C11.2522446,19.8034763 10.6911173,19.4590602 10.415,18.9120405 L13.315,18.9120405 C13.0425188,19.4623932 12.4790813,19.8082273 11.865,19.8020405 Z M20.005,16.8720405 C19.7521323,16.8937621 19.4978677,16.8937621 19.245,16.8720405 L4.785,16.8720405 C4.52880265,16.8939912 4.27119735,16.8939912 4.015,16.8720405 L4.015,16.7120405 C4.00411108,16.4080437 4.17792066,16.1275782 4.455,16.0020405 L5.005,15.8020405 L5.625,10.4520405 L5.625,10.3420405 C5.64783166,7.37689854 7.72594219,4.82497881 10.625,4.20204053 L13.545,4.20204053 C16.4440578,4.82497881 18.5221683,7.37689854 18.545,10.3420405 L19.175,15.8020405 L19.675,16.0420405 C19.9387187,16.1616962 20.1099858,16.4224893 20.115,16.7120405 L20.005,16.8720405 Z" id="path-1"></path>
    </defs>
    <g id="24/alert" stroke="none" stroke-width="1" fill="none" fill-rule="evenodd">
        <mask id="mask-2" fill="white">
            <use xlink:href="#path-1"></use>
        </mask>
        <use id="Shape" fill="#0075BE" fill-rule="nonzero" xlink:href="#path-1"></use>
        <g id="🎨-Colour-/-Primary-/-AccessibleBMOBlue" mask="url(#mask-2)" fill="#0075BE">
            <g transform="translate(-6.000000, -6.000000)" id="#0075BE">
                <rect x="0" y="0" width="36" height="36" rx="4"></rect>
            </g>
        </g>
    </g>
</svg>
