<?xml version="1.0" encoding="UTF-8"?>
<svg width="18px" height="18px" viewBox="0 0 24 19" version="1.1" xmlns="http://www.w3.org/2000/svg" xmlns:xlink="http://www.w3.org/1999/xlink">
    <!-- Generator: Sketch 51.3 (57544) - http://www.bohemiancoding.com/sketch -->
    <title>24/bar-graph</title>
    <desc>Created with Sketch.</desc>
    <defs>
        <path d="M7.5,17 C6.94771525,17 6.5,16.5522847 6.5,16 L6.5,7 C6.5,6.44771525 6.94771525,6 7.5,6 C8.05228475,6 8.5,6.44771525 8.5,7 L8.5,16 C8.5,16.5522847 8.05228475,17 7.5,17 Z M18.5,16 L18.5,5 C18.5,4.44771525 18.0522847,4 17.5,4 C16.9477153,4 16.5,4.44771525 16.5,5 L16.5,16 C16.5,16.5522847 16.9477153,17 17.5,17 C18.0522847,17 18.5,16.5522847 18.5,16 Z M13.5,16 L13.5,11 C13.5,10.4477153 13.0522847,10 12.5,10 C11.9477153,10 11.5,10.4477153 11.5,11 L11.5,16 C11.5,16.5522847 11.9477153,17 12.5,17 C13.0522847,17 13.5,16.5522847 13.5,16 Z M21.5,20 C21.5,19.4477153 21.0522847,19 20.5,19 L4.5,19 L4.5,4 C4.5,3.44771525 4.05228475,3 3.5,3 C2.94771525,3 2.5,3.44771525 2.5,4 L2.5,20 C2.5,20.5522847 2.94771525,21 3.5,21 L20.5,21 C21.0522847,21 21.5,20.5522847 21.5,20 Z" id="path-1"></path>
    </defs>
    <g id="24/bar-graph" stroke="none" stroke-width="1" fill="none" fill-rule="evenodd">
        <mask id="mask-2" fill="white">
            <use xlink:href="#path-1"></use>
        </mask>
        <g id="Shape" fill-rule="nonzero"></g>
        <g id="🎨-Colour-/-Primary-/-AccessibleBMOBlue" mask="url(#mask-2)" fill="#0075BE">
            <g transform="translate(-3.000000, -3.000000)" id="#0075BE">
                <rect x="0" y="0" width="30" height="30" rx="4"></rect>
            </g>
        </g>
    </g>
</svg>
