<?xml version="1.0" encoding="UTF-8"?>
<svg width="18px" height="18px" viewBox="0 0 24 18" version="1.1" xmlns="http://www.w3.org/2000/svg" xmlns:xlink="http://www.w3.org/1999/xlink">
    <!-- Generator: Sketch 51.3 (57544) - http://www.bohemiancoding.com/sketch -->
    <title>24/book</title>
    <desc>Created with Sketch.</desc>
    <defs>
        <path d="M22.0103893,4.725 C22.0200241,4.64529009 22.0200241,4.56470991 22.0103893,4.485 C22.0103893,3.93271525 21.562674,3.485 21.0103893,3.485 L15.1603893,3.485 C13.9512779,3.48562126 12.8019657,4.0110211 12.0103893,4.925 C11.2188128,4.0110211 10.0695006,3.48562126 8.86038926,3.485 L3.01038926,3.485 C2.45810451,3.485 2.01038926,3.93271525 2.01038926,4.485 C2.00075445,4.56470991 2.00075445,4.64529009 2.01038926,4.725 L2.01038926,18.825 C1.97304975,18.9794418 1.97304975,19.1405582 2.01038926,19.295 C2.08116481,19.5655485 2.26199471,19.7941 2.50900966,19.925208 C2.7560246,20.0563159 3.0466533,20.0780001 3.31038926,19.985 C3.33977131,19.9936113 3.37100721,19.9936113 3.40038926,19.985 C3.63193938,19.904819 3.87535071,19.8642505 4.12038926,19.865 L10.0103893,19.865 C10.5112402,19.8654882 10.9973449,20.0345681 11.3903893,20.345 C11.5116439,20.439989 11.6572013,20.498905 11.8103893,20.515 C11.8103893,20.515 11.8603893,20.515 11.8903893,20.515 L12.0703893,20.515 C12.2959535,20.5136916 12.51445,20.4361606 12.6903893,20.295 C13.0633512,19.9862001 13.526689,19.8071832 14.0103893,19.785 L19.8603893,19.785 C20.1199592,19.7868757 20.377189,19.8342602 20.6203893,19.925 L20.6803893,19.925 C21.198617,20.0757559 21.7429733,19.7880879 21.9103893,19.275 C21.9477288,19.1205582 21.9477288,18.9594418 21.9103893,18.805 L22.0103893,4.725 Z M4.13038926,17.785 L4.01038926,17.785 L4.01038926,5.485 L8.86038926,5.485 C10.003554,5.45112811 10.9616422,6.34237291 11.0103893,7.485 L11.0103893,17.885 C10.6831395,17.8034861 10.3476031,17.7598664 10.0103893,17.755 L4.13038926,17.785 Z M19.9803893,17.785 L14.0103893,17.785 C13.6731754,17.7898664 13.337639,17.8334861 13.0103893,17.915 L13.0103893,7.515 C13.0591364,6.37237291 14.0172245,5.48112811 15.1603893,5.515 L20.0103893,5.515 L19.9803893,17.785 Z M8.89038926,9.565 L6.26038926,9.565 C5.70810451,9.565 5.26038926,9.11728475 5.26038926,8.565 C5.26038926,8.01271525 5.70810451,7.565 6.26038926,7.565 L8.89038926,7.565 C9.44267401,7.565 9.89038926,8.01271525 9.89038926,8.565 C9.89038926,9.11728475 9.44267401,9.565 8.89038926,9.565 Z M8.89038926,12.635 L6.26038926,12.635 C5.70810451,12.635 5.26038926,12.1872847 5.26038926,11.635 C5.26038926,11.0827153 5.70810451,10.635 6.26038926,10.635 L8.89038926,10.635 C9.44267401,10.635 9.89038926,11.0827153 9.89038926,11.635 C9.89038926,12.1872847 9.44267401,12.635 8.89038926,12.635 Z M8.89038926,15.705 L6.26038926,15.705 C5.70810451,15.705 5.26038926,15.2572847 5.26038926,14.705 C5.26038926,14.1527153 5.70810451,13.705 6.26038926,13.705 L8.89038926,13.705 C9.44267401,13.705 9.89038926,14.1527153 9.89038926,14.705 C9.89038926,15.2572847 9.44267401,15.705 8.89038926,15.705 Z M17.8903893,9.565 L15.2603893,9.565 C14.7081045,9.565 14.2603893,9.11728475 14.2603893,8.565 C14.2603893,8.01271525 14.7081045,7.565 15.2603893,7.565 L17.8903893,7.565 C18.442674,7.565 18.8903893,8.01271525 18.8903893,8.565 C18.8903893,9.11728475 18.442674,9.565 17.8903893,9.565 Z M17.8903893,12.635 L15.2603893,12.635 C14.7081045,12.635 14.2603893,12.1872847 14.2603893,11.635 C14.2603893,11.0827153 14.7081045,10.635 15.2603893,10.635 L17.8903893,10.635 C18.442674,10.635 18.8903893,11.0827153 18.8903893,11.635 C18.8903893,12.1872847 18.442674,12.635 17.8903893,12.635 Z M17.8903893,15.705 L15.2603893,15.705 C14.7081045,15.705 14.2603893,15.2572847 14.2603893,14.705 C14.2603893,14.1527153 14.7081045,13.705 15.2603893,13.705 L17.8903893,13.705 C18.442674,13.705 18.8903893,14.1527153 18.8903893,14.705 C18.8903893,15.2572847 18.442674,15.705 17.8903893,15.705 Z" id="path-1"></path>
    </defs>
    <g id="24/book" stroke="none" stroke-width="1" fill="none" fill-rule="evenodd">
        <mask id="mask-2" fill="white">
            <use xlink:href="#path-1"></use>
        </mask>
        <g id="Shape" fill-rule="nonzero"></g>
        <g id="🎨-Colour-/-Primary-/-AccessibleBMOBlue" mask="url(#mask-2)" fill="#0075BE">
            <g transform="translate(-3.000000, -3.000000)" id="#0075BE">
                <rect x="0" y="0" width="30" height="30" rx="4"></rect>
            </g>
        </g>
    </g>
</svg>
