<?xml version="1.0" encoding="UTF-8"?>
<svg width="18px" height="18px" viewBox="0 0 24 19" version="1.1" xmlns="http://www.w3.org/2000/svg" xmlns:xlink="http://www.w3.org/1999/xlink">
    <!-- Generator: Sketch 51.3 (57544) - http://www.bohemiancoding.com/sketch -->
    <title>24/calendar</title>
    <desc>Created with Sketch.</desc>
    <defs>
        <path d="M20,5 L17,5 L17,4 C17,3.44771525 16.5522847,3 16,3 C15.4477153,3 15,3.44771525 15,4 L15,5 L9,5 L9,4 C9,3.44771525 8.55228475,3 8,3 C7.44771525,3 7,3.44771525 7,4 L7,5 L4,5 C3.44771525,5 3,5.44771525 3,6 L3,20 C3,20.5522847 3.44771525,21 4,21 L20,21 C20.5522847,21 21,20.5522847 21,20 L21,6 C21,5.44771525 20.5522847,5 20,5 Z M7,7 L7,8 C7,8.55228475 7.44771525,9 8,9 C8.55228475,9 9,8.55228475 9,8 L9,7 L15,7 L15,8 C15,8.55228475 15.4477153,9 16,9 C16.5522847,9 17,8.55228475 17,8 L17,7 L19,7 L19,10 L5,10 L5,7 L7,7 Z M5,19 L5,12 L19,12 L19,19 L5,19 Z" id="path-1"></path>
    </defs>
    <g id="24/calendar" stroke="none" stroke-width="1" fill="none" fill-rule="evenodd">
        <mask id="mask-2" fill="white">
            <use xlink:href="#path-1"></use>
        </mask>
        <g id="Shape" fill-rule="nonzero"></g>
        <g id="🎨-Colour-/-Primary-/-AccessibleBMOBlue" mask="url(#mask-2)" fill="#0075BE">
            <g transform="translate(-3.000000, -3.000000)" id="#0075BE">
                <rect x="0" y="0" width="30" height="30" rx="4"></rect>
            </g>
        </g>
    </g>
</svg>
