<?xml version="1.0" encoding="UTF-8"?>
<svg width="18px" height="18px" viewBox="0 0 24 20" version="1.1" xmlns="http://www.w3.org/2000/svg" xmlns:xlink="http://www.w3.org/1999/xlink">
    <!-- Generator: Sketch 51.3 (57544) - http://www.bohemiancoding.com/sketch -->
    <title>24/controls</title>
    <desc>Created with Sketch.</desc>
    <defs>
        <path d="M7.98823834,11 C7.98467397,9.73174508 7.18396703,8.6027483 5.98823834,8.18 L5.98823834,3 C5.98823834,2.44771525 5.54052309,2 4.98823834,2 C4.43595359,2 3.98823834,2.44771525 3.98823834,3 L3.98823834,8.18 C2.8017849,8.6106251 2.01176166,9.73781549 2.01176166,11 C2.01176166,12.2621845 2.8017849,13.3893749 3.98823834,13.82 L3.98823834,21 C3.98823834,21.5522847 4.43595359,22 4.98823834,22 C5.54052309,22 5.98823834,21.5522847 5.98823834,21 L5.98823834,13.82 C7.18396703,13.3972517 7.98467397,12.2682549 7.98823834,11 Z M4.98823834,12 C4.43595359,12 3.98823834,11.5522847 3.98823834,11 C3.98823834,10.4477153 4.43595359,10 4.98823834,10 C5.54052309,10 5.98823834,10.4477153 5.98823834,11 C5.98823834,11.5522847 5.54052309,12 4.98823834,12 Z M14.9882383,16 C14.984674,14.7317451 14.183967,13.6027483 12.9882383,13.18 L12.9882383,3 C12.9882383,2.44771525 12.5405231,2 11.9882383,2 C11.4359536,2 10.9882383,2.44771525 10.9882383,3 L10.9882383,13.18 C9.8017849,13.6106251 9.01176166,14.7378155 9.01176166,16 C9.01176166,17.2621845 9.8017849,18.3893749 10.9882383,18.82 L10.9882383,21 C10.9882383,21.5522847 11.4359536,22 11.9882383,22 C12.5405231,22 12.9882383,21.5522847 12.9882383,21 L12.9882383,18.82 C14.183967,18.3972517 14.984674,17.2682549 14.9882383,16 Z M11.9882383,17 C11.4359536,17 10.9882383,16.5522847 10.9882383,16 C10.9882383,15.4477153 11.4359536,15 11.9882383,15 C12.5405231,15 12.9882383,15.4477153 12.9882383,16 C12.9882383,16.5522847 12.5405231,17 11.9882383,17 Z M21.9882383,8 C21.984674,6.73174508 21.183967,5.6027483 19.9882383,5.18 L19.9882383,3 C19.9882383,2.44771525 19.5405231,2 18.9882383,2 C18.4359536,2 17.9882383,2.44771525 17.9882383,3 L17.9882383,5.18 C16.8017849,5.6106251 16.0117617,6.73781549 16.0117617,8 C16.0117617,9.26218451 16.8017849,10.3893749 17.9882383,10.82 L17.9882383,21 C17.9882383,21.5522847 18.4359536,22 18.9882383,22 C19.5405231,22 19.9882383,21.5522847 19.9882383,21 L19.9882383,10.82 C21.183967,10.3972517 21.984674,9.26825492 21.9882383,8 Z M18.9882383,9 C18.4359536,9 17.9882383,8.55228475 17.9882383,8 C17.9882383,7.44771525 18.4359536,7 18.9882383,7 C19.5405231,7 19.9882383,7.44771525 19.9882383,8 C19.9882383,8.55228475 19.5405231,9 18.9882383,9 Z" id="path-1"></path>
    </defs>
    <g id="24/controls" stroke="none" stroke-width="1" fill="none" fill-rule="evenodd">
        <mask id="mask-2" fill="white">
            <use xlink:href="#path-1"></use>
        </mask>
        <g id="Shape" fill-rule="nonzero"></g>
        <g id="🎨-Colour-/-Primary-/-AccessibleBMOBlue" mask="url(#mask-2)" fill="#0075BE">
            <g transform="translate(-3.000000, -3.000000)" id="#0075BE">
                <rect x="0" y="0" width="30" height="30" rx="4"></rect>
            </g>
        </g>
    </g>
</svg>
