<?xml version="1.0" encoding="UTF-8"?>
<svg width="18px" height="25px" viewBox="0 0 24 11" version="1.1" xmlns="http://www.w3.org/2000/svg" xmlns:xlink="http://www.w3.org/1999/xlink">
    <!-- Generator: Sketch 51.3 (57544) - http://www.bohemiancoding.com/sketch -->
    <title>24/enclosed-help</title>
    <desc>Created with Sketch.</desc>
    <defs>
        <path d="M15.6528964,10.0102898 C15.3177724,11.0264198 14.7170224,11.93445 13.9128964,12.6402898 C13.4728964,13.0802898 12.9128964,13.6402898 12.9128964,13.9502898 C13.0404455,14.3609675 12.891159,14.8072043 12.5421642,15.0584565 C12.1931695,15.3097086 11.7226233,15.3097086 11.3736285,15.0584565 C11.0246338,14.8072043 10.8753473,14.3609675 11.0028964,13.9502898 C11.1234388,12.924002 11.6535661,11.9899682 12.4728964,11.3602898 L12.4728964,11.3002898 C13.0394237,10.823028 13.4820233,10.2157403 13.7628964,9.53028979 C13.9075633,9.10938134 13.8523359,8.64547128 13.6128964,8.27028979 C13.1717002,7.81540798 12.5410331,7.59652939 11.9128964,7.68028979 C11.2181551,7.61834098 10.5560654,7.98704962 10.2428964,8.61028979 C10.0899054,8.92333858 9.99825608,9.26278056 9.97289638,9.61028979 C9.97295423,9.86044578 9.87223171,10.1000771 9.69347305,10.2750724 C9.51471439,10.4500677 9.27299452,10.5456695 9.02289638,10.5402898 C8.76337014,10.5568897 8.50856343,10.4652321 8.31907901,10.2871168 C8.1295946,10.1090014 8.02236604,9.86034583 8.02289638,9.60028979 C8.04972814,8.95452805 8.20974197,8.32128182 8.49289638,7.74028979 C9.10976901,6.44511045 10.4509212,5.65387024 11.8828964,5.74028979 C13.0902825,5.64930578 14.2661013,6.15322812 15.0328964,7.09028979 C15.7007774,7.90552734 15.9318921,8.99400308 15.6528964,10.0102898 Z M12.0628964,15.7402898 C11.5573186,15.7402898 11.1015232,16.0448425 10.908047,16.5119355 C10.7145707,16.9790285 10.8215154,17.5166758 11.1790129,17.8741733 C11.5365104,18.2316708 12.0741577,18.3386155 12.5412507,18.1451392 C13.0083437,17.951663 13.3128964,17.4958676 13.3128964,16.9902898 C13.3128964,16.2999339 12.7532523,15.7402898 12.0628964,15.7402898 Z M19.0628964,19.0802898 C22.4353831,15.7159533 22.9665135,10.4397353 20.3322378,6.47072811 C17.697962,2.50172095 12.6296745,0.941901105 8.2196064,2.74293589 C3.80953833,4.54397068 1.28212467,9.20581116 2.17937488,13.884205 C3.0766251,18.5625988 7.14942185,21.9586116 11.9128964,22.0002898 C14.5737983,22.0103491 17.1289833,20.9594843 19.0128964,19.0802898 L19.0628964,19.0802898 Z M17.6028964,6.35028979 C20.300978,9.04544956 20.7215345,13.270389 18.607692,16.4445346 C16.4938495,19.6186802 12.4333716,20.8594462 8.90637945,19.4089784 C5.3793873,17.9585106 3.3665773,14.2201183 4.0973645,10.4771943 C4.8281517,6.73427022 8.09933735,4.02755166 11.9128964,4.01028979 C14.0456548,4.00063597 16.0939762,4.84300362 17.6028964,6.35028979 Z" id="path-1"></path>
    </defs>
    <g id="24/enclosed-help" stroke="none" stroke-width="1" fill="none" fill-rule="evenodd">
        <mask id="mask-2" fill="white">
            <use xlink:href="#path-1"></use>
        </mask>
        <g id="Shape" fill-rule="nonzero"></g>
        <g id="🎨-Colour-/-Primary-/-AccessibleBMOBlue" mask="url(#mask-2)" fill="#0075BE">
            <g transform="translate(-3.000000, -3.000000)" id="#0075BE">
                <rect x="0" y="0" width="30" height="30" rx="4"></rect>
            </g>
        </g>
    </g>
</svg>
