<?xml version="1.0" encoding="UTF-8"?>
<svg width="18px" height="18px" viewBox="0 0 24 19" version="1.1" xmlns="http://www.w3.org/2000/svg" xmlns:xlink="http://www.w3.org/1999/xlink">
    <!-- Generator: Sketch 51.3 (57544) - http://www.bohemiancoding.com/sketch -->
    <title>24/exit</title>
    <desc>Created with Sketch.</desc>
    <defs>
        <path d="M16.5856332,13 L11,13 C10.4477153,13 10,12.5522847 10,12 C10,11.4477153 10.4477153,11 11,11 L16.5856332,11 L15.29,9.71 C15.0363414,9.45634143 14.9372765,9.08662601 15.030122,8.74012196 C15.1229674,8.39361791 15.3936179,8.12296744 15.740122,8.03012196 C16.086626,7.93727648 16.4563414,8.03634143 16.71,8.29 L19.71,11.29 C19.8993127,11.4777666 20.0057983,11.7333625 20.0057983,12 C20.0057983,12.2666375 19.8993127,12.5222334 19.71,12.71 L16.71,15.71 C16.5212812,15.8971865 16.265803,16.0015368 16,16 C15.734197,16.0015368 15.4787188,15.8971865 15.29,15.71 C15.1006873,15.5222334 14.9942017,15.2666375 14.9942017,15 C14.9942017,14.7333625 15.1006873,14.4777666 15.29,14.29 L16.5856332,13 Z M16,21 L5,21 C4.44771525,21 4,20.5522847 4,20 L4,4 C4,3.44771525 4.44771525,3 5,3 L16,3 C16.5522847,3 17,3.44771525 17,4 L17,6 C17,6.55228475 16.5522847,7 16,7 C15.4477153,7 15,6.55228475 15,6 L15,5 L6,5 L6,19 L15,19 L15,18 C15,17.4477153 15.4477153,17 16,17 C16.5522847,17 17,17.4477153 17,18 L17,20 C17,20.5522847 16.5522847,21 16,21 Z" id="path-1"></path>
    </defs>
    <g id="24/exit" stroke="none" stroke-width="1" fill="none" fill-rule="evenodd">
        <mask id="mask-2" fill="white">
            <use xlink:href="#path-1"></use>
        </mask>
        <g id="Combined-Shape" fill-rule="nonzero"></g>
        <g id="🎨-Colour-/-Primary-/-AccessibleBMOBlue" mask="url(#mask-2)" fill="#0075BE">
            <g transform="translate(-3.000000, -3.000000)" id="#0075BE">
                <rect x="0" y="0" width="30" height="30" rx="4"></rect>
            </g>
        </g>
    </g>
</svg>
