<?xml version="1.0" encoding="UTF-8"?>
<svg width="24px" height="24px" viewBox="1 0 24 24" version="1.1" xmlns="http://www.w3.org/2000/svg" xmlns:xlink="http://www.w3.org/1999/xlink">
    <!-- Generator: Sketch 51.3 (57544) - http://www.bohemiancoding.com/sketch -->
    <title>24/settings</title>
    <desc>Created with Sketch.</desc>
    <defs>
        <path d="M14.06,22 L9.94,22 C9.54044546,22.0026638 9.15634054,21.8458052 8.87286945,21.5642114 C8.58939836,21.2826176 8.42999112,20.8995634 8.43,20.5 L8.43,18.64 C8.14111381,18.4983102 7.86361957,18.3344883 7.6,18.15 L5.86,19 C5.13161037,19.3516656 4.25533837,19.07564 3.86,18.37 L1.96,14.81 C1.59042903,14.0754273 1.88581054,13.1803318 2.62,12.81 L4.33,11.94 L4.33,11.73 L2.66,10.8 C2.30995084,10.6009711 2.05389673,10.270371 1.94874068,9.88166919 C1.84358462,9.49296735 1.89803814,9.07836522 2.1,8.73 L4.14,5.26 C4.56821511,4.55410269 5.47691826,4.31148777 6.2,4.71 L7.89,5.71 C8.0631966,5.59821659 8.24358947,5.49799833 8.43,5.41 L8.43,3.5 C8.42999112,3.10043658 8.58939836,2.71738238 8.87286945,2.43578858 C9.15634054,2.15419478 9.54044546,1.99733624 9.94,2 L14.06,2 C14.4595545,1.99733624 14.8436595,2.15419478 15.1271306,2.43578858 C15.4106016,2.71738238 15.5700089,3.10043658 15.57,3.5 L15.57,5.36 C15.8588862,5.50168977 16.1363804,5.66551167 16.4,5.85 L18.14,5 C18.8683896,4.64833436 19.7446616,4.92436004 20.14,5.63 L22.04,9.19 C22.2322422,9.54261595 22.2684925,9.95949408 22.14,10.34 C22.0186455,10.7223297 21.7482617,11.0395799 21.39,11.22 L19.67,12.09 L19.67,12.3 L21.34,13.23 C21.6891824,13.4305186 21.9445336,13.7613962 22.05,14.15 C22.1573574,14.5378603 22.1032538,14.9526542 21.9,15.3 L19.83,18.76 C19.4089935,19.4690657 18.4993937,19.7131047 17.78,19.31 L16.09,18.36 C15.9168034,18.4717834 15.7364105,18.5720017 15.55,18.66 L15.55,20.5 C15.5500183,21.3245375 14.8845192,21.9945031 14.06,22 Z M10.43,20 L13.57,20 L13.57,17.33 L14.2,17.08 C14.6505449,16.8915326 15.076911,16.6498133 15.47,16.36 L16,16 L18.39,17.34 L19.94,14.73 L17.57,13.4 L17.66,12.72 C17.6752241,12.486915 17.6752241,12.253085 17.66,12.02 C17.6699667,11.8701656 17.6699667,11.7198344 17.66,11.57 L17.6,10.89 L20.04,9.67 L18.62,7 L16.17,8.21 L15.67,7.79 C15.2249596,7.42999334 14.7297353,7.13690142 14.2,6.92 L13.57,6.67 L13.57,4 L10.43,4 L10.43,6.67 L9.8,6.92 C9.34945508,7.10846736 8.92308897,7.35018673 8.53,7.64 L8,8 L5.62,6.68 L4.07,9.29 L6.44,10.62 L6.35,11.3 C6.33477587,11.533085 6.33477587,11.766915 6.35,12 C6.34003326,12.1498344 6.34003326,12.3001656 6.35,12.45 L6.41,13.13 L4,14.35 L5.38,17 L7.83,15.76 L8.33,16.17 C8.77223699,16.5366084 9.26797569,16.8333772 9.8,17.05 L10.43,17.3 L10.43,20 Z M12,16 C9.80325653,15.9505607 8.05766946,14.1384025 8.09044515,11.9413472 C8.12322084,9.74429197 9.92208668,7.98500997 12.1193274,8.00112014 C14.316568,8.01723032 16.0894437,9.80270034 16.09,12 C16.0625421,14.2328777 14.232936,16.0222236 12,16 Z M12,10 C10.908502,10.0491678 10.0584656,10.9651869 10.0908814,12.0573108 C10.1232973,13.1494347 11.0261671,14.0134249 12.1186598,13.9977686 C13.2111525,13.9821122 14.0888932,13.0926043 14.09,12 C14.0626928,10.8716598 13.1284492,9.97764677 12,10 Z" id="path-1"></path>
    </defs>
    <g id="24/settings" stroke="none" stroke-width="1" fill="none" fill-rule="evenodd">
        <mask id="mask-2" fill="white">
            <use xlink:href="#path-1"></use>
        </mask>
        <g id="Combined-Shape" fill-rule="nonzero"></g>
        <g id="🎨-Colour-/-Primary-/-AccessibleBMOBlue" mask="url(#mask-2)" fill="white">
            <g transform="translate(-3.000000, -3.000000)" id="#0075BE">
                <rect x="0" y="0" width="30" height="30" rx="4"></rect>
            </g>
        </g>
    </g>
</svg>
