<?xml version="1.0" standalone="no"?>
<!DOCTYPE svg PUBLIC "-//W3C//DTD SVG 20010904//EN"
 "http://www.w3.org/TR/2001/REC-SVG-20010904/DTD/svg10.dtd">
<svg version="1.0" xmlns="http://www.w3.org/2000/svg"
 width="320.000000pt" height="93.000000pt" viewBox="0 0 320.000000 93.000000"
 preserveAspectRatio="xMidYMid meet">

<g transform="translate(0.000000,93.000000) scale(0.100000,-0.100000)"
stroke="none" fill-rule="nonzero">
<path fill="#ffffff" d="M36 889 l-27 -21 2 -431 c1 -238 3 -427 6 -420 3 9 12 9 30 2 15 -6
612 -9 1583 -9 l1558 0 2 23 c7 72 3 825 -4 841 -7 14 -6 17 2 12 7 -4 12 -3
12 3 0 5 -8 11 -17 12 -10 1 -716 4 -1569 6 l-1551 3 -27 -21z m275 -169 c16
-9 19 -22 19 -83 l0 -72 111 3 c179 5 199 -11 199 -161 0 -90 -2 -100 -24
-122 -37 -37 -74 -39 -348 -25 -5 0 -8 103 -8 229 0 222 1 234 28 240 2 1 12
-4 23 -9z m730 -188 c28 -32 29 -34 29 -147 0 -99 -2 -115 -17 -123 -10 -4
-85 -8 -166 -8 l-149 1 -29 33 c-38 42 -38 82 0 124 l29 33 131 4 c90 2 131 7
131 15 -1 31 -17 35 -160 38 -130 3 -145 5 -148 21 -2 10 2 25 9 33 10 13 38
15 162 12 l149 -3 29 -33z m369 23 c6 -8 10 -22 8 -32 -3 -16 -18 -19 -118
-23 -107 -5 -115 -6 -115 -25 0 -19 8 -20 116 -25 128 -6 157 -17 178 -69 17
-38 4 -78 -33 -105 -24 -18 -45 -21 -161 -24 -146 -4 -178 4 -173 41 3 21 8
22 133 24 154 3 175 7 175 32 0 27 -18 31 -142 31 -108 0 -110 0 -139 29 -49
49 -37 112 27 146 40 21 226 21 244 0z m165 -92 l50 -103 24 56 c23 54 24 56
7 91 -18 39 -9 63 25 63 22 0 25 -4 75 -118 l41 -93 38 98 c39 101 47 113 78
113 34 0 29 -32 -28 -169 -73 -179 -87 -186 -145 -71 l-33 64 -30 -67 c-26
-59 -33 -67 -57 -67 -25 0 -32 10 -88 133 -74 159 -77 182 -27 175 15 -2 33
-31 70 -105z m726 69 c28 -32 29 -34 29 -147 0 -99 -2 -115 -17 -123 -10 -4
-82 -8 -160 -8 -127 1 -144 3 -170 22 -55 41 -56 106 0 148 25 18 45 21 153
24 86 3 124 7 124 15 -1 32 -18 36 -144 39 -107 3 -131 6 -139 20 -8 12 -7 21
3 33 12 14 33 16 153 13 l139 -3 29 -33z m254 3 c0 -29 -2 -30 -50 -35 l-50
-5 -3 -110 c-3 -117 -12 -138 -52 -128 -19 5 -20 15 -20 152 0 81 2 150 5 153
3 3 42 5 88 4 l82 -1 0 -30z m350 21 c63 -26 75 -97 26 -147 -29 -29 -30 -29
-154 -29 l-125 0 7 -27 7 -28 137 -3 c122 -2 138 -5 147 -22 7 -14 6 -23 -6
-34 -12 -13 -40 -16 -140 -16 -198 0 -229 24 -222 175 3 87 17 117 63 136 35
14 222 10 260 -5z" fill-rule="nonzero"/>
<path fill="#ffffff" d="M342 488 c-7 -7 -12 -40 -12 -85 0 -87 -2 -85 140 -81 l95 3 0 85 0
85 -105 3 c-73 2 -109 -1 -118 -10z" fill-rule="nonzero"/>
<path fill="#ffffff" d="M754 365 c-15 -39 1 -45 114 -45 111 0 132 7 132 42 0 16 -11 18
-120 18 -98 0 -122 -3 -126 -15z" fill-rule="nonzero"/>
<path fill="#ffffff" d="M2014 365 c-15 -39 1 -45 114 -45 111 0 132 7 132 42 0 16 -11 18
-120 18 -98 0 -122 -3 -126 -15z" fill-rule="nonzero"/>
<path fill="#ffffff" d="M2667 493 c-4 -3 -7 -16 -7 -27 0 -20 4 -21 112 -18 111 3 132 10
121 39 -4 10 -32 13 -112 13 -59 0 -111 -3 -114 -7z" fill-rule="nonzero"/>
</g>
</svg>
