<svg xmlns="http://www.w3.org/2000/svg" width="42" height="39" style="">
  <rect id="backgroundrect" width="100%" height="100%" x="0" y="0" fill="none" stroke="none" class="" style=""/>
  <defs><style>.cls-1{fill:#44b6e8;}.cls-2{fill:none;}.cls-3{fill:#248dcd;}.cls-4{fill:#fff;}</style>
  </defs><title>Coupa_Logo</title><g class="currentLayer" style=""><title>Layer 1</title>
  <path class="cls-2" d="M38.47061982154846,19.02999999899417 a5.68,5.68 0 0 0 3.21,-1.4300000000000002 a1.8,1.8 0 0 0 0.4400000000000001,-1.47 c-0.21000000000000005,-1.31 -1.8800000000000003,-2.24 -3.6900000000000004,-2.87 a4.35,4.35 0 0 0 1.54,-1.7200000000000002 a1.81,1.81 0 0 0 -0.08000000000000003,-1.62 c-0.5700000000000002,-1 -2,-1.46 -4.42,-1.46 h0 a4.14,4.14 0 0 0 0.7600000000000002,-2.22 a1.83,1.83 0 0 0 -0.6600000000000003,-1.42 a2.58,2.58 0 0 0 -1.7000000000000002,-0.52 a7.63,7.63 0 0 0 -2.21,0.4 a4.47,4.47 0 0 0 -0.14,-1.7600000000000002 A2,2 0 0 0 30.380619821548464,1.6699999989941718 a2.15,2.15 0 0 0 -0.8500000000000002,-0.17 a5.21,5.21 0 0 0 -3,1.36 C26.070619821548462,1.1599999989941716 25.20061982154846,0.12999999899417164 24.070619821548462,-1.0058283077957197e-9 h-0.22000000000000006 c-1,0 -1.9100000000000001,0.7100000000000002 -2.68,2 a4.19,4.19 0 0 0 -3,-1.85 a1.73,1.73 0 0 0 -0.3200000000000001,0 a2.1,2.1 0 0 0 -1.47,1 a4.78,4.78 0 0 0 -0.6300000000000002,2.09 a7.09,7.09 0 0 0 -3.41,-1.24 a2.27,2.27 0 0 0 -1.06,0.23 a1.8900000000000001,1.8900000000000001 0 0 0 -1,1.29 A4,4 0 0 0 10.490619821548462,5.669999998994172 a11.71,11.71 0 0 0 -2.2800000000000002,-0.26 a3.29,3.29 0 0 0 -2.4,0.7400000000000002 A1.82,1.82 0 0 0 5.2906198215484626,7.769999998994171 a4.83,4.83 0 0 0 1.54,2.45 c-2.29,0.25 -4.77,0.8500000000000002 -5.38,2.2800000000000002 a1.77,1.77 0 0 0 0.1,1.58 a5.21,5.21 0 0 0 2.74,1.94 c-2.43,1.17 -4.33,2.59 -4.29,4.1 c0,1.05 0.8700000000000002,2.3 4.69,2.3 l1,0 c-2.13,2.16 -4.09,4.8 -3.06,6.5 a2.2800000000000002,2.2800000000000002 0 0 0 2.13,1 a11.89,11.89 0 0 0 4.5,-1.29 a10.48,10.48 0 0 0 -0.9500000000000002,5.37 a2.2800000000000002,2.2800000000000002 0 0 0 1,1.57 a2.13,2.13 0 0 0 1.12,0.3000000000000001 c1.6500000000000004,0 3.8200000000000003,-1.7000000000000002 5.94,-4.13 c0.15000000000000005,2.56 0.6500000000000002,4.8900000000000015 1.6900000000000004,6.08 a2.3200000000000003,2.3200000000000003 0 0 0 1.6600000000000001,0.8700000000000002 h0.1 c2.12,0 3.54,-2.94 4.42,-5.78 c1.44,2.49 3.07,4.2 4.61,4.2 a2.11,2.11 0 0 0 0.8200000000000002,-0.17 c1.84,-0.77 2.07,-3.85 1.59,-7.27 c1.9100000000000001,1.3800000000000001 3.59,2.15 4.8,2.15 h0 a2.11,2.11 0 0 0 1.6800000000000004,-0.7100000000000002 c1.15,-1.34 0.22000000000000006,-3.7600000000000002 -1,-5.91 a11.56,11.56 0 0 0 2.12,0.24000000000000005 h0 c2,0 2.6100000000000003,-0.8300000000000002 2.81,-1.53 C42.07061982154846,22.399999998994172 40.54061982154846,20.66999999899417 38.47061982154846,19.02999999899417 z" id="svg_6"/><path class="cls-1" d="M32.160619821548465,16.309999998994172 q-1.05,-0.5 -2,-0.9 c0.6600000000000003,-0.13 1.34,-0.2900000000000001 2,-0.4800000000000001 C36.810619821548464,13.669999998994172 39.78061982154846,11.669999998994172 39.07061982154846,10.399999998994172 s-4.65,-1.32 -9.1,-0.27 c-0.6400000000000002,0.15000000000000005 -1.26,0.3200000000000001 -1.86,0.5 c0.3100000000000001,-0.46 0.6200000000000002,-0.93 0.9,-1.42 c1.8800000000000003,-3.31 2.24,-6.14 1,-6.67 S26.240619821548464,3.859999998994172 24.070619821548462,6.969999998994171 c-0.3200000000000001,0.4700000000000001 -0.6100000000000002,0.9400000000000002 -0.8800000000000002,1.4100000000000001 c-0.14,-0.52 -0.3100000000000001,-1 -0.5,-1.56 C21.440619821548463,3.2999999989941715 19.41061982154846,0.8799999989941717 18.070619821548462,1.0899999989941715 s-1.77,3.12 -0.7400000000000002,6.83 c0.16000000000000006,0.55 0.3300000000000001,1.09 0.53,1.61 C17.27061982154846,9.20999999899417 16.690619821548463,8.909999998994172 16.070619821548462,8.669999998994172 c-4.3,-2.06 -8.52,-2.85 -9.59,-1.8 S8.000619821548462,10.669999998994172 12.570619821548462,12.949999998994171 q1,0.4900000000000001 1.9500000000000002,0.9 c-0.7500000000000002,0.13 -1.54,0.2900000000000001 -2.34,0.4800000000000001 c-6,1.4300000000000002 -11.26,4 -11.21,5.76 s5.77,1.81 12.28,0 c0.8600000000000002,-0.23 1.6900000000000004,-0.4900000000000001 2.47,-0.7500000000000002 c-0.5,0.6300000000000002 -1,1.32 -1.51,2 c-4,5.8 -6.25,12.19 -4.39,13.31 S16.65061982154846,30.86999999899417 20.210619821548462,24.66999999899417 c0.45,-0.79 0.8500000000000002,-1.55 1.2,-2.29 c0.16000000000000006,0.78 0.3600000000000001,1.59 0.5900000000000002,2.44 c1.85,6.63 5.28,12.11 7.32,11.26 s1.46,-7.2 -0.79,-13.36 c-0.2900000000000001,-0.79 -0.5900000000000002,-1.53 -0.9,-2.23 c0.6700000000000004,0.4 1.3800000000000001,0.78 2.12,1.1600000000000001 c5.49,2.7600000000000002 10.51,3.68 11,2 S37.25061982154846,18.74999999899417 32.160619821548465,16.309999998994172 z" id="svg_7"/><g id="Layer_2" class=""><path class="cls-3" d="M17.29061982154846,18.239999998994172 c-0.5800000000000002,0.2 -1.21,0.3900000000000001 -1.86,0.5700000000000002 a28.19,28.19 0 0 1 -5.3100000000000005,0.93 c-4.46,3.45 -7.5600000000000005,7.22 -6.69,8.66 s5.22,-0.11000000000000003 9.92,-3.2 a26.12,26.12 0 0 1 2.84,-5.42 C16.56061982154846,19.22999999899417 16.93061982154846,18.719999998994172 17.29061982154846,18.239999998994172 z" id="svg_8"/>
    <path class="cls-3" d="M16.27061982154846,14.019999998994171 c-0.5,-0.21000000000000005 -1,-0.4400000000000001 -1.52,-0.7000000000000002 a19,19 0 0 1 -3.59,-2.2800000000000002 c-4.53,-0.14 -8.29,0.5700000000000002 -8.83,1.84 S4.680619821548462,15.539999998994173 9.070619821548462,16.269999998994173 a27.11,27.11 0 0 1 5.42,-1.87 C15.070619821548462,14.249999998994172 15.700619821548461,14.129999998994172 16.27061982154846,14.019999998994171 z" id="svg_9"/><path class="cls-3" d="M18.79061982154846,10.599999998994171 c-0.16000000000000006,-0.4200000000000001 -0.3100000000000001,-0.8500000000000002 -0.4400000000000001,-1.29 a12,12 0 0 1 -0.51,-3.34 c-2.51,-2.22 -5,-3.42 -6.09,-2.87 s-0.5700000000000002,2.6500000000000004 1.22,5.2 a20.38,20.38 0 0 1 4.43,1.58 C17.890619821548462,10.109999998994171 18.350619821548463,10.359999998994171 18.79061982154846,10.599999998994171 z" id="svg_10"/><path class="cls-3" d="M26.920619821548463,11.469999998994172 c0.4800000000000001,-0.15000000000000005 1,-0.2900000000000001 1.49,-0.4100000000000001 a19.43,19.43 0 0 1 4,-0.5800000000000002 c2.37,-2.17 3.38,-4.18 2.49,-4.92 S31.740619821548464,5.409999998994173 29.070619821548462,6.889999998994171 a11.8,11.8 0 0 1 -1.3900000000000001,3.42 C27.420619821548463,10.669999998994172 27.18061982154846,11.099999998994171 26.920619821548463,11.469999998994172 z" id="svg_11"/><path class="cls-3" d="M21.65061982154846,20.489999998994172 c-0.26,0.54 -0.5700000000000002,1.11 -0.9,1.6800000000000004 a27.59,27.59 0 0 1 -3.3,4.58 c-0.52,5.84 0.3600000000000001,10.86 2.34,11 s3.79,-4.4 4.65,-9.89 A23.63,23.63 0 0 1 22.070619821548462,22.289999998994173 Q21.830619821548463,21.359999998994173 21.65061982154846,20.489999998994172 z" id="svg_12"/><path class="cls-3" d="M23.070619821548462,9.669999998994172 c0.21000000000000005,-0.3900000000000001 0.45,-0.77 0.7000000000000002,-1.15 a14.06,14.06 0 0 1 2.24,-2.62 c-0.07,-2.81 -0.8900000000000002,-4.8100000000000005 -2,-4.93 s-2.31,1.51 -3,4.08 A12.73,12.73 0 0 1 22.670619821548463,8.389999998994172 C22.820619821548462,8.809999998994172 22.95061982154846,9.239999998994172 23.070619821548462,9.669999998994172 z" id="svg_13"/><path class="cls-3" d="M41.17061982154846,16.289999998994173 c-0.19000000000000006,-1.2 -3.09,-2.43 -6.93,-3.09 A17.42,17.42 0 0 1 30.070619821548462,14.869999998994171 c-0.54,0.15000000000000005 -1.07,0.27 -1.6,0.3800000000000001 c0.52,0.2 1,0.4400000000000001 1.58,0.7000000000000002 A24.29,24.29 0 0 1 34.07061982154846,18.379999998994176 C38.380619821548464,18.43999999899417 41.380619821548464,17.57999999899417 41.17061982154846,16.289999998994173 z" id="svg_14"/><path class="cls-3" d="M26.420619821548463,19.09999999899417 c0.23,0.53 0.45,1.08 0.6600000000000003,1.6700000000000004 a24.68,24.68 0 0 1 1.24,5.07 c3.81,3.77 7.61,5.92 8.72,4.63 s-0.7500000000000002,-4.85 -3.81,-8.56 A23,23 0 0 1 28.070619821548462,19.97999999899417 C27.460619821548462,19.66999999899417 26.920619821548463,19.399999998994172 26.420619821548463,19.09999999899417 z" id="svg_15"/></g>
  <path class="cls-4" d="M34.07061982154846,18.379999998994176 a24.29,24.29 0 0 0 -4.08,-2.43 c-0.53,-0.26 -1.06,-0.5 -1.58,-0.7100000000000002 c0.53,-0.1 1.06,-0.22000000000000006 1.6,-0.3700000000000001 a17.42,17.42 0 0 0 4.21,-1.6700000000000004 c1.17,-0.7000000000000002 1.75,-1.4100000000000001 1.47,-1.94 s-1.55,-0.8400000000000002 -3.26,-0.78 a20.13,20.13 0 0 0 -4,0.5800000000000002 c-0.52,0.12000000000000002 -1,0.26 -1.49,0.4100000000000001 c0.26,-0.3700000000000001 0.5,-0.7600000000000002 0.7300000000000002,-1.1600000000000001 A11.58,11.58 0 0 0 29.070619821548462,6.889999998994171 c0.22000000000000006,-1.09 0.08000000000000003,-1.8800000000000003 -0.45,-2.11 s-1.55,0.18000000000000005 -2.6,1.11 A13.67,13.67 0 0 0 23.77061982154846,8.509999998994171 A12.75,12.75 0 0 0 23.070619821548462,9.669999998994172 c-0.11000000000000003,-0.4200000000000001 -0.24000000000000005,-0.8500000000000002 -0.3900000000000001,-1.27 a12.73,12.73 0 0 0 -1.7400000000000002,-3.35 c-0.7300000000000002,-1 -1.48,-1.51 -2.07,-1.4 s-1,1 -1,2.33 a12,12 0 0 0 0.51,3.34 c0.13,0.4400000000000001 0.28,0.8700000000000002 0.4400000000000001,1.29 c-0.4400000000000001,-0.24000000000000005 -0.9,-0.4900000000000001 -1.3900000000000001,-0.7200000000000002 A20.38,20.38 0 0 0 12.970619821548462,8.299999998994172 c-1.53,-0.3300000000000001 -2.72,-0.3000000000000001 -3.15,0.16000000000000006 s0.07,1.5 1.34,2.58 a19,19 0 0 0 3.59,2.2800000000000002 c0.51,0.26 1,0.4900000000000001 1.52,0.7000000000000002 c-0.5700000000000002,0.11000000000000003 -1.17,0.23 -1.79,0.3800000000000001 A27.11,27.11 0 0 0 9.070619821548462,16.269999998994173 c-1.79,0.8600000000000002 -2.91,1.78 -2.84,2.49 s1.6400000000000001,1.13 3.91,1 a28.23,28.23 0 0 0 5.3,-0.93 c0.6500000000000002,-0.18000000000000005 1.28,-0.3700000000000001 1.86,-0.5700000000000002 c-0.3600000000000001,0.4800000000000001 -0.7300000000000002,1 -1.1,1.54 a26.12,26.12 0 0 0 -2.84,5.42 c-0.7300000000000002,2 -0.8400000000000002,3.59 -0.08000000000000003,4 s2.46,-0.5800000000000002 4.18,-2.47 a27.59,27.59 0 0 0 3.3,-4.58 c0.3300000000000001,-0.5700000000000002 0.6400000000000002,-1.1400000000000001 0.9,-1.6800000000000004 q0.18000000000000005,0.8700000000000002 0.45,1.8 a23.63,23.63 0 0 0 2.34,5.53 c1.07,1.77 2.2,2.8 3,2.49 s1.15,-2.12 0.8500000000000002,-4.47 A24.68,24.68 0 0 0 27.070619821548462,20.769999998994173 c-0.21000000000000005,-0.5900000000000002 -0.4300000000000001,-1.1400000000000001 -0.6600000000000003,-1.6700000000000004 c0.5,0.3000000000000001 1,0.5900000000000002 1.61,0.8800000000000002 a23,23 0 0 0 5.2,1.9300000000000002 c1.7400000000000002,0.3800000000000001 3,0.2900000000000001 3.22,-0.3800000000000001 S35.740619821548464,19.66999999899417 34.07061982154846,18.379999998994176 z" id="svg_16"/></g></svg>
