<svg xmlns="http://www.w3.org/2000/svg"  width="137.07" height="38.68" preserveAspectRatio="xMidYMid meet">
  <rect id="backgroundrect" width="100%" height="100%" x="0" y="0" fill="none" stroke="none"/>
  <defs><style>.cls-1{fill:#44b6e8;}.cls-2{fill:none;}.cls-3{fill:#248dcd;}.cls-4{fill:#fff;}</style>
  </defs><title>Coupa_Logo</title>
  <g class="currentLayer" style="">
    <title>Layer 1</title>
    <path class="cls-1" d="M58.1999999332428,28.540000007152557 a9.69,9.69 0 0 1 -5,1.29 c-5.67,0 -9,-3.94 -9,-10.620000000000001 c0,-4.75 1.81,-7.88 4.23,-9.53 a9.69,9.69 0 0 1 5.1,-1.53 a8.870000000000001,8.870000000000001 0 0 1 4,0.92 a9.81,9.81 0 0 1 2,1.45 l-2.62,3.54 a5.2,5.2 0 0 0 -3.25,-1.61 c-2.42,0 -3.5,2.09 -3.5,6.92 c0,2.6900000000000004 0.36000000000000004,4.3 1,5.19 A3.11,3.11 0 0 0 53.6099999332428,25.680000007152557 a5.54,5.54 0 0 0 3.71,-1.6800000000000002 l0.32000000000000006,-0.29000000000000004 L60.0699999332428,27.010000007152556 A8.28,8.28 0 0 1 58.1999999332428,28.540000007152557 z" id="svg_1"/><path class="cls-1" d="M76.13999993324279,26.930000007152557 a8.42,8.42 0 0 1 -6.8,2.8600000000000003 c-5.59,0 -9.25,-4.19 -9.25,-10.66 s3.7,-10.78 9.25,-10.78 a8.64,8.64 0 0 1 7,3.1 c1.6500000000000001,1.9300000000000002 2.37,4.18 2.37,7.52 C78.7099999332428,22.510000007152556 77.9099999332428,24.920000007152556 76.13999993324279,26.930000007152557 zM71.7499999332428,13.420000007152558 a2.85,2.85 0 0 0 -2.33,-1.09 a2.9,2.9 0 0 0 -2.77,2.09 A14.47,14.47 0 0 0 66.0699999332428,19.010000007152556 a14.39,14.39 0 0 0 0.6900000000000002,5.19 a3,3 0 0 0 2.73,1.6900000000000002 c2.33,0 3.34,-2.1 3.34,-7 C72.8399999332428,16.150000007152556 72.4799999332428,14.340000007152558 71.7499999332428,13.420000007152558 z" id="svg_2"/><path class="cls-1" d="M93.8699999332428,29.910000007152558 a4.78,4.78 0 0 1 -1.6,-2 a7.73,7.73 0 0 1 -5.43,2 c-2.9,0 -5.39,-1.37 -6.08,-3.34 a12.38,12.38 0 0 1 -0.44000000000000006,-4.1 V9.230000007152558 l5.3100000000000005,-1 V21.46000000715256 A8.16,8.16 0 0 0 86.0699999332428,24.840000007152558 a2.17,2.17 0 0 0 1.8900000000000001,1 a4,4 0 0 0 3.34,-2 V9.360000007152557 l5.15,-1.09 V24.000000007152558 a6,6 0 0 0 1.25,3.74 z" id="svg_3"/><path class="cls-1" d="M114.9899999332428,27.450000007152557 a7.34,7.34 0 0 1 -5.51,2.34 a8.65,8.65 0 0 1 -4.3,-1.09 a11.14,11.14 0 0 1 0.08000000000000002,1.6900000000000002 v6.44 L100.0699999332428,38.190000007152555 V14.380000007152557 a26.2,26.2 0 0 0 -0.32000000000000006,-5.19 l4.78,-0.8400000000000001 a9,9 0 0 1 0.36000000000000004,1.9300000000000002 a6.9,6.9 0 0 1 5.07,-1.9300000000000002 A7.38,7.38 0 0 1 114.0699999332428,9.600000007152557 c2.22,1.48 3.83,4.14 3.83,8.89 C117.8499999332428,22.910000007152558 117.1199999332428,25.160000007152558 114.9899999332428,27.450000007152557 zm-3.54,-13 a2.49,2.49 0 0 0 -2.5700000000000003,-1.73 a5,5 0 0 0 -3.58,1.57 v10 a5.08,5.08 0 0 0 3,1.2 c2.66,0 3.7,-1.81 3.7,-6.51 A14.74,14.74 0 0 0 111.4499999332428,14.460000007152557 z" id="svg_4"/><path class="cls-1" d="M134.20999993324278,30.39000000715256 a5.77,5.77 0 0 1 -2.89,-2.49 A10,10 0 0 1 130.0699999332428,28.980000007152558 a7.05,7.05 0 0 1 -4.14,1.13 c-4.59,0 -7.08,-2.33 -7.08,-6.44 c0,-4.82 3.34,-7.08 9.89,-7.08 a10,10 0 0 1 1.21,0.05000000000000001 v-0.8500000000000001 c0,-2.29 -0.44000000000000006,-3.06 -2.41,-3.06 c-1.73,0 -3.74,0.8500000000000001 -6,2.34 l-2.3,-3.8600000000000003 a19.22,19.22 0 0 1 3.34,-1.6900000000000002 a13.85,13.85 0 0 1 5.63,-1.21 c3.46,0 5.83,1.29 6.640000000000001,3.58 a9.57,9.57 0 0 1 0.36000000000000004,3.7 l-0.12000000000000001,6.92 c0,2.25 0.12000000000000001,3.21 1.9300000000000002,4.58 zm-4.58,-10 c-3.74,0 -5,0.6800000000000002 -5,3.13 a2.45,2.45 0 0 0 2.38,2.7 a3.92,3.92 0 0 0 2.81,-1.4100000000000001 l0.08000000000000002,-4.42 z" id="svg_5"/><path class="cls-2" d="M38.469999933242796,19.040000007152557 a5.68,5.68 0 0 0 3.21,-1.4300000000000002 a1.8,1.8 0 0 0 0.44000000000000006,-1.47 c-0.21000000000000002,-1.31 -1.8800000000000001,-2.24 -3.6900000000000004,-2.87 a4.35,4.35 0 0 0 1.54,-1.7200000000000002 a1.81,1.81 0 0 0 -0.08000000000000002,-1.62 c-0.5700000000000001,-1 -2,-1.46 -4.42,-1.46 h0 a4.14,4.14 0 0 0 0.7600000000000001,-2.22 a1.83,1.83 0 0 0 -0.6600000000000001,-1.42 a2.58,2.58 0 0 0 -1.7000000000000002,-0.52 a7.63,7.63 0 0 0 -2.21,0.4 a4.47,4.47 0 0 0 -0.14,-1.7600000000000002 A2,2 0 0 0 30.3799999332428,1.6800000071525574 a2.15,2.15 0 0 0 -0.8500000000000001,-0.17 a5.21,5.21 0 0 0 -3,1.36 C26.069999933242798,1.1700000071525574 25.199999933242797,0.1400000071525574 24.069999933242798,0.010000007152557444 h-0.22000000000000003 c-1,0 -1.9100000000000001,0.7100000000000001 -2.68,2 a4.19,4.19 0 0 0 -3,-1.85 a1.73,1.73 0 0 0 -0.32000000000000006,0 a2.1,2.1 0 0 0 -1.47,1 a4.78,4.78 0 0 0 -0.6300000000000001,2.09 a7.09,7.09 0 0 0 -3.41,-1.24 a2.27,2.27 0 0 0 -1.06,0.23 a1.8900000000000001,1.8900000000000001 0 0 0 -1,1.29 A4,4 0 0 0 10.489999933242798,5.680000007152557 a11.71,11.71 0 0 0 -2.2800000000000002,-0.26 a3.29,3.29 0 0 0 -2.4,0.7400000000000001 A1.82,1.82 0 0 0 5.2899999332427985,7.780000007152557 a4.83,4.83 0 0 0 1.54,2.45 c-2.29,0.25 -4.77,0.8500000000000001 -5.38,2.2800000000000002 a1.77,1.77 0 0 0 0.1,1.58 a5.21,5.21 0 0 0 2.74,1.94 c-2.43,1.17 -4.33,2.59 -4.29,4.1 c0,1.05 0.8700000000000001,2.3 4.69,2.3 l1,0 c-2.13,2.16 -4.09,4.8 -3.06,6.5 a2.2800000000000002,2.2800000000000002 0 0 0 2.13,1 a11.89,11.89 0 0 0 4.5,-1.29 a10.48,10.48 0 0 0 -0.9500000000000001,5.37 a2.2800000000000002,2.2800000000000002 0 0 0 1,1.57 a2.13,2.13 0 0 0 1.12,0.30000000000000004 c1.6500000000000001,0 3.8200000000000003,-1.7000000000000002 5.94,-4.13 c0.15000000000000002,2.56 0.6500000000000001,4.890000000000001 1.6900000000000002,6.08 a2.3200000000000003,2.3200000000000003 0 0 0 1.6600000000000001,0.8700000000000001 h0.1 c2.12,0 3.54,-2.94 4.42,-5.78 c1.44,2.49 3.07,4.2 4.61,4.2 a2.11,2.11 0 0 0 0.8200000000000001,-0.17 c1.84,-0.77 2.07,-3.85 1.59,-7.27 c1.9100000000000001,1.3800000000000001 3.59,2.15 4.8,2.15 h0 a2.11,2.11 0 0 0 1.6800000000000002,-0.7100000000000001 c1.15,-1.34 0.22000000000000003,-3.7600000000000002 -1,-5.91 a11.56,11.56 0 0 0 2.12,0.24000000000000002 h0 c2,0 2.6100000000000003,-0.8300000000000001 2.81,-1.53 C42.0699999332428,22.410000007152558 40.5399999332428,20.680000007152557 38.469999933242796,19.040000007152557 z" id="svg_6"/><path class="cls-1" d="M32.1599999332428,16.320000007152558 q-1.05,-0.5 -2,-0.9 c0.6600000000000001,-0.13 1.34,-0.29000000000000004 2,-0.48000000000000004 C36.8099999332428,13.680000007152557 39.7799999332428,11.680000007152557 39.0699999332428,10.410000007152558 s-4.65,-1.32 -9.1,-0.27 c-0.6400000000000001,0.15000000000000002 -1.26,0.32000000000000006 -1.86,0.5 c0.31000000000000005,-0.46 0.6200000000000001,-0.93 0.9,-1.42 c1.8800000000000001,-3.31 2.24,-6.14 1,-6.67 S26.2399999332428,3.8700000071525578 24.069999933242798,6.980000007152557 c-0.32000000000000006,0.47000000000000003 -0.6100000000000001,0.9400000000000001 -0.8800000000000001,1.4100000000000001 c-0.14,-0.52 -0.31000000000000005,-1 -0.5,-1.56 C21.4399999332428,3.3100000071525573 19.409999933242798,0.8900000071525573 18.069999933242798,1.1000000071525573 s-1.77,3.12 -0.7400000000000001,6.83 c0.16000000000000003,0.55 0.33000000000000007,1.09 0.53,1.61 C17.269999933242797,9.220000007152557 16.6899999332428,8.920000007152558 16.069999933242798,8.680000007152557 c-4.3,-2.06 -8.52,-2.85 -9.59,-1.8 S7.999999933242798,10.680000007152557 12.569999933242798,12.960000007152557 q1,0.49000000000000005 1.9500000000000002,0.9 c-0.7500000000000001,0.13 -1.54,0.29000000000000004 -2.34,0.48000000000000004 c-6,1.4300000000000002 -11.26,4 -11.21,5.76 s5.77,1.81 12.28,0 c0.8600000000000001,-0.23 1.6900000000000002,-0.49000000000000005 2.47,-0.7500000000000001 c-0.5,0.6300000000000001 -1,1.32 -1.51,2 c-4,5.8 -6.25,12.19 -4.39,13.31 S16.649999933242796,30.880000007152557 20.2099999332428,24.680000007152557 c0.45,-0.79 0.8500000000000001,-1.55 1.2,-2.29 c0.16000000000000003,0.78 0.36000000000000004,1.59 0.5900000000000001,2.44 c1.85,6.63 5.28,12.11 7.32,11.26 s1.46,-7.2 -0.79,-13.36 c-0.29000000000000004,-0.79 -0.5900000000000001,-1.53 -0.9,-2.23 c0.6700000000000002,0.4 1.3800000000000001,0.78 2.12,1.1600000000000001 c5.49,2.7600000000000002 10.51,3.68 11,2 S37.2499999332428,18.760000007152556 32.1599999332428,16.320000007152558 z" id="svg_7"/><g id="Layer_2"><path class="cls-3" d="M17.289999933242797,18.250000007152558 c-0.5800000000000001,0.2 -1.21,0.39000000000000007 -1.86,0.5700000000000001 a28.19,28.19 0 0 1 -5.3100000000000005,0.93 c-4.46,3.45 -7.5600000000000005,7.22 -6.69,8.66 s5.22,-0.11000000000000001 9.92,-3.2 a26.12,26.12 0 0 1 2.84,-5.42 C16.559999933242796,19.240000007152556 16.929999933242797,18.730000007152558 17.289999933242797,18.250000007152558 z" id="svg_8"/><path class="cls-3" d="M16.269999933242797,14.030000007152557 c-0.5,-0.21000000000000002 -1,-0.44000000000000006 -1.52,-0.7000000000000001 a19,19 0 0 1 -3.59,-2.2800000000000002 c-4.53,-0.14 -8.29,0.5700000000000001 -8.83,1.84 S4.679999933242798,15.550000007152558 9.069999933242798,16.28000000715256 a27.11,27.11 0 0 1 5.42,-1.87 C15.069999933242798,14.260000007152557 15.699999933242797,14.140000007152558 16.269999933242797,14.030000007152557 z" id="svg_9"/><path class="cls-3" d="M18.789999933242797,10.610000007152557 c-0.16000000000000003,-0.42000000000000004 -0.31000000000000005,-0.8500000000000001 -0.44000000000000006,-1.29 a12,12 0 0 1 -0.51,-3.34 c-2.51,-2.22 -5,-3.42 -6.09,-2.87 s-0.5700000000000001,2.6500000000000004 1.22,5.2 a20.38,20.38 0 0 1 4.43,1.58 C17.889999933242798,10.120000007152557 18.3499999332428,10.370000007152557 18.789999933242797,10.610000007152557 z" id="svg_10"/><path class="cls-3" d="M26.9199999332428,11.480000007152558 c0.48000000000000004,-0.15000000000000002 1,-0.29000000000000004 1.49,-0.41000000000000003 a19.43,19.43 0 0 1 4,-0.5800000000000001 c2.37,-2.17 3.38,-4.18 2.49,-4.92 S31.7399999332428,5.420000007152558 29.069999933242798,6.900000007152557 a11.8,11.8 0 0 1 -1.3900000000000001,3.42 C27.4199999332428,10.680000007152557 27.179999933242797,11.110000007152557 26.9199999332428,11.480000007152558 z" id="svg_11"/><path class="cls-3" d="M21.649999933242796,20.500000007152558 c-0.26,0.54 -0.5700000000000001,1.11 -0.9,1.6800000000000002 a27.59,27.59 0 0 1 -3.3,4.58 c-0.52,5.84 0.36000000000000004,10.86 2.34,11 s3.79,-4.4 4.65,-9.89 A23.63,23.63 0 0 1 22.069999933242798,22.30000000715256 Q21.8299999332428,21.37000000715256 21.649999933242796,20.500000007152558 z" id="svg_12"/><path class="cls-3" d="M23.069999933242798,9.680000007152557 c0.21000000000000002,-0.39000000000000007 0.45,-0.77 0.7000000000000001,-1.15 a14.06,14.06 0 0 1 2.24,-2.62 c-0.07,-2.81 -0.8900000000000001,-4.8100000000000005 -2,-4.93 s-2.31,1.51 -3,4.08 A12.73,12.73 0 0 1 22.6699999332428,8.400000007152558 C22.819999933242798,8.820000007152558 22.949999933242797,9.250000007152558 23.069999933242798,9.680000007152557 z" id="svg_13"/><path class="cls-3" d="M41.1699999332428,16.30000000715256 c-0.19000000000000003,-1.2 -3.09,-2.43 -6.93,-3.09 A17.42,17.42 0 0 1 30.069999933242798,14.880000007152557 c-0.54,0.15000000000000002 -1.07,0.27 -1.6,0.38000000000000006 c0.52,0.2 1,0.44000000000000006 1.58,0.7000000000000001 A24.29,24.29 0 0 1 34.0699999332428,18.39000000715256 C38.3799999332428,18.450000007152557 41.3799999332428,17.590000007152558 41.1699999332428,16.30000000715256 z" id="svg_14"/><path class="cls-3" d="M26.4199999332428,19.110000007152557 c0.23,0.53 0.45,1.08 0.6600000000000001,1.6700000000000002 a24.68,24.68 0 0 1 1.24,5.07 c3.81,3.77 7.61,5.92 8.72,4.63 s-0.7500000000000001,-4.85 -3.81,-8.56 A23,23 0 0 1 28.069999933242798,19.990000007152556 C27.4599999332428,19.680000007152557 26.9199999332428,19.410000007152558 26.4199999332428,19.110000007152557 z" id="svg_15"/></g><path class="cls-4" d="M34.0699999332428,18.39000000715256 a24.29,24.29 0 0 0 -4.08,-2.43 c-0.53,-0.26 -1.06,-0.5 -1.58,-0.7100000000000001 c0.53,-0.1 1.06,-0.22000000000000003 1.6,-0.37000000000000005 a17.42,17.42 0 0 0 4.21,-1.6700000000000002 c1.17,-0.7000000000000001 1.75,-1.4100000000000001 1.47,-1.94 s-1.55,-0.8400000000000001 -3.26,-0.78 a20.13,20.13 0 0 0 -4,0.5800000000000001 c-0.52,0.12000000000000001 -1,0.26 -1.49,0.41000000000000003 c0.26,-0.37000000000000005 0.5,-0.7600000000000001 0.7300000000000001,-1.1600000000000001 A11.58,11.58 0 0 0 29.069999933242798,6.900000007152557 c0.22000000000000003,-1.09 0.08000000000000002,-1.8800000000000001 -0.45,-2.11 s-1.55,0.18000000000000002 -2.6,1.11 A13.67,13.67 0 0 0 23.769999933242797,8.520000007152557 A12.75,12.75 0 0 0 23.069999933242798,9.680000007152557 c-0.11000000000000001,-0.42000000000000004 -0.24000000000000002,-0.8500000000000001 -0.39000000000000007,-1.27 a12.73,12.73 0 0 0 -1.7400000000000002,-3.35 c-0.7300000000000001,-1 -1.48,-1.51 -2.07,-1.4 s-1,1 -1,2.33 a12,12 0 0 0 0.51,3.34 c0.13,0.44000000000000006 0.28,0.8700000000000001 0.44000000000000006,1.29 c-0.44000000000000006,-0.24000000000000002 -0.9,-0.49000000000000005 -1.3900000000000001,-0.7200000000000001 A20.38,20.38 0 0 0 12.969999933242798,8.310000007152558 c-1.53,-0.33000000000000007 -2.72,-0.30000000000000004 -3.15,0.16000000000000003 s0.07,1.5 1.34,2.58 a19,19 0 0 0 3.59,2.2800000000000002 c0.51,0.26 1,0.49000000000000005 1.52,0.7000000000000001 c-0.5700000000000001,0.11000000000000001 -1.17,0.23 -1.79,0.38000000000000006 A27.11,27.11 0 0 0 9.069999933242798,16.28000000715256 c-1.79,0.8600000000000001 -2.91,1.78 -2.84,2.49 s1.6400000000000001,1.13 3.91,1 a28.23,28.23 0 0 0 5.3,-0.93 c0.6500000000000001,-0.18000000000000002 1.28,-0.37000000000000005 1.86,-0.5700000000000001 c-0.36000000000000004,0.48000000000000004 -0.7300000000000001,1 -1.1,1.54 a26.12,26.12 0 0 0 -2.84,5.42 c-0.7300000000000001,2 -0.8400000000000001,3.59 -0.08000000000000002,4 s2.46,-0.5800000000000001 4.18,-2.47 a27.59,27.59 0 0 0 3.3,-4.58 c0.33000000000000007,-0.5700000000000001 0.6400000000000001,-1.1400000000000001 0.9,-1.6800000000000002 q0.18000000000000002,0.8700000000000001 0.45,1.8 a23.63,23.63 0 0 0 2.34,5.53 c1.07,1.77 2.2,2.8 3,2.49 s1.15,-2.12 0.8500000000000001,-4.47 A24.68,24.68 0 0 0 27.069999933242798,20.78000000715256 c-0.21000000000000002,-0.5900000000000001 -0.43000000000000005,-1.1400000000000001 -0.6600000000000001,-1.6700000000000002 c0.5,0.30000000000000004 1,0.5900000000000001 1.61,0.8800000000000001 a23,23 0 0 0 5.2,1.9300000000000002 c1.7400000000000002,0.38000000000000006 3,0.29000000000000004 3.22,-0.38000000000000006 S35.7399999332428,19.680000007152557 34.0699999332428,18.39000000715256 z" id="svg_16"/></g></svg>
