<svg id="svg" version="1.1" xmlns="http://www.w3.org/2000/svg" xmlns:xlink="http://www.w3.org/1999/xlink" width="400" height="180.58690744920995" viewBox="0, 0, 400,180.58690744920995"><g id="svgg"><path id="path0" d="M230.661 1.851 C 230.070 2.495,193.770 70.576,193.770 71.040 C 193.770 72.034,193.901 72.054,200.501 72.054 C 206.546 72.054,206.573 72.052,207.010 71.648 C 207.252 71.424,212.623 61.368,218.947 49.300 C 229.970 28.264,230.932 26.546,231.683 26.546 C 232.367 26.546,233.002 27.688,244.334 49.300 C 250.714 61.467,256.096 71.564,256.294 71.738 C 256.622 72.026,257.202 72.054,262.761 72.054 C 269.549 72.054,269.539 72.056,269.403 70.895 C 269.333 70.298,233.085 2.295,232.552 1.762 C 232.097 1.307,231.118 1.353,230.661 1.851 M0.554 12.128 L 0.181 12.529 0.181 46.987 C 0.181 85.439,0.068 81.951,1.323 82.266 C 2.434 82.544,38.884 82.228,40.993 81.921 C 53.953 80.036,60.195 73.273,60.184 61.129 C 60.178 53.335,56.881 47.673,50.655 44.759 L 49.479 44.209 50.595 43.487 C 57.531 39.005,59.185 27.512,53.994 19.865 C 51.413 16.061,47.379 13.509,41.806 12.152 C 40.662 11.873,38.656 11.838,20.734 11.786 L 0.927 11.728 0.554 12.128 M71.706 12.214 L 71.332 12.690 71.332 46.878 C 71.332 84.077,71.264 81.844,72.400 82.183 C 73.324 82.458,109.497 82.294,111.603 82.005 C 124.171 80.279,130.373 74.427,131.317 63.401 C 132.055 54.779,128.646 48.009,121.965 44.837 L 120.592 44.185 121.109 43.916 C 125.626 41.570,128.492 35.536,128.158 29.074 C 127.692 20.063,121.511 13.585,111.874 12.006 C 110.514 11.783,107.125 11.739,91.164 11.739 L 72.080 11.738 71.706 12.214 M132.075 12.201 C 131.686 12.795,129.520 8.602,150.559 47.985 C 170.629 85.557,169.042 82.826,170.396 82.116 C 170.874 81.865,207.416 13.905,207.633 12.860 C 207.684 12.616,207.589 12.303,207.398 12.093 C 206.928 11.573,194.719 11.537,194.280 12.054 C 194.133 12.228,188.792 22.325,182.411 34.492 C 170.503 57.199,170.578 57.065,169.715 57.065 C 168.951 57.065,169.410 57.888,157.039 34.355 C 150.672 22.244,145.351 12.201,145.215 12.037 C 144.993 11.769,144.307 11.738,138.673 11.738 L 132.379 11.738 132.075 12.201 M38.268 22.454 C 42.870 23.683,45.147 26.562,45.147 31.151 C 45.147 35.740,42.870 38.620,38.268 39.848 C 36.286 40.378,12.992 40.442,12.470 39.919 C 11.889 39.338,11.889 22.964,12.470 22.383 C 12.992 21.861,36.286 21.925,38.268 22.454 M108.444 22.308 C 113.672 23.220,116.298 26.176,116.298 31.151 C 116.298 35.741,114.161 38.512,109.644 39.779 C 108.304 40.155,107.890 40.169,96.184 40.228 L 84.107 40.290 83.679 39.888 L 83.251 39.486 83.251 31.177 C 83.251 22.894,83.252 22.866,83.643 22.450 L 84.036 22.032 95.448 22.032 C 104.880 22.032,107.135 22.080,108.444 22.308 M40.271 51.157 C 46.105 52.610,48.391 55.468,48.391 61.309 C 48.391 67.803,45.332 70.868,38.038 71.681 C 34.492 72.077,12.882 71.934,12.460 71.512 C 11.941 70.993,11.889 51.638,12.406 51.067 C 12.841 50.586,38.311 50.668,40.271 51.157 M109.887 50.933 C 116.565 51.891,119.247 54.593,119.496 60.611 C 119.755 66.863,117.400 70.027,111.503 71.353 C 109.754 71.746,109.370 71.758,96.908 71.826 L 84.110 71.896 83.680 71.492 L 83.251 71.088 83.251 61.318 C 83.251 52.767,83.286 51.498,83.532 51.146 L 83.813 50.745 96.218 50.748 C 103.541 50.751,109.141 50.826,109.887 50.933 " stroke="none" fill="#072146" fill-rule="evenodd"></path><path id="path1" d="M197.914 105.646 C 192.434 106.499,189.199 111.256,189.198 118.465 C 189.196 126.883,193.254 131.752,199.998 131.422 C 202.828 131.284,204.585 130.390,206.077 128.331 L 206.591 127.621 206.591 129.363 L 206.591 131.106 207.765 131.106 L 208.939 131.106 208.939 125.147 L 208.939 119.187 204.495 119.187 C 200.804 119.187,200.068 119.229,200.147 119.435 C 200.199 119.571,200.298 120.059,200.367 120.519 L 200.492 121.354 203.465 121.354 L 206.437 121.354 206.311 122.393 C 205.768 126.860,203.202 129.280,199.213 129.086 C 189.570 128.617,188.849 109.723,198.408 108.000 C 201.362 107.468,203.985 108.763,205.325 111.417 C 205.627 112.016,205.912 112.506,205.958 112.506 C 206.023 112.506,207.891 111.649,208.189 111.482 C 208.355 111.390,206.970 109.113,206.285 108.350 C 204.350 106.199,201.103 105.150,197.914 105.646 M299.396 105.648 C 295.531 106.244,293.222 108.671,293.204 112.154 C 293.185 115.682,294.802 117.154,301.010 119.263 C 306.587 121.157,307.865 122.268,307.687 125.071 C 307.384 129.827,299.205 130.646,294.094 126.432 L 293.030 125.555 292.324 126.447 C 291.485 127.509,291.507 127.598,292.857 128.658 C 299.712 134.043,310.248 131.587,310.248 124.605 C 310.248 120.847,308.449 119.132,302.371 117.096 C 296.628 115.172,295.078 113.746,295.803 111.053 C 296.869 107.098,304.864 106.914,308.066 110.771 C 308.460 111.247,308.743 111.110,309.330 110.155 C 310.037 109.007,310.072 109.130,308.754 108.138 C 306.098 106.138,302.472 105.173,299.396 105.648 M215.621 105.923 C 215.472 105.955,215.045 106.030,214.673 106.091 L 213.995 106.201 213.995 118.654 L 213.995 131.106 215.169 131.106 L 216.343 131.106 216.343 118.465 C 216.343 108.461,216.296 105.828,216.117 105.845 C 215.993 105.856,215.770 105.892,215.621 105.923 M242.438 105.914 C 242.339 105.948,241.871 106.028,241.400 106.092 L 240.542 106.207 240.542 118.657 L 240.542 131.106 241.716 131.106 L 242.889 131.106 242.889 130.308 C 242.889 128.944,243.002 128.859,243.868 129.569 C 246.905 132.058,251.491 131.868,253.945 129.152 C 257.083 125.678,256.891 117.694,253.595 114.656 C 251.020 112.282,246.913 112.269,244.020 114.625 L 243.070 115.399 243.070 110.612 C 243.070 105.752,243.063 105.700,242.438 105.914 M279.910 105.923 C 279.761 105.955,279.334 106.030,278.962 106.091 L 278.284 106.201 278.284 118.654 L 278.284 131.106 279.549 131.106 L 280.813 131.106 280.813 118.465 C 280.813 104.678,280.887 105.716,279.910 105.923 M374.718 105.923 C 374.569 105.955,374.142 106.030,373.770 106.091 L 373.093 106.201 373.093 118.654 L 373.093 131.106 374.357 131.106 L 375.621 131.106 375.621 118.465 C 375.621 104.678,375.696 105.716,374.718 105.923 M226.280 113.146 C 221.932 114.359,219.407 119.804,220.769 125.033 C 223.036 133.737,234.662 133.454,236.393 124.653 C 237.858 117.208,232.711 111.352,226.280 113.146 M265.192 113.051 C 263.509 113.389,261.311 114.503,259.910 115.730 C 259.369 116.203,259.388 116.292,260.200 117.086 L 260.897 117.767 262.082 116.870 C 266.156 113.786,270.496 114.478,270.968 118.285 L 271.091 119.279 269.230 119.617 C 262.172 120.898,259.059 123.091,259.054 126.786 C 259.047 131.504,265.068 132.935,270.003 129.389 C 271.085 128.612,271.060 128.611,271.063 129.436 C 271.068 130.817,271.162 130.926,272.356 130.926 L 273.427 130.926 273.373 123.657 L 273.318 116.388 272.777 115.409 C 271.592 113.267,268.659 112.356,265.192 113.051 M339.955 113.109 C 338.855 113.473,338.052 113.921,337.128 114.689 C 336.181 115.476,336.072 115.407,336.072 114.026 L 336.072 113.228 334.898 113.228 L 333.725 113.228 333.725 125.613 L 333.725 137.997 334.221 137.902 C 334.494 137.850,335.063 137.755,335.485 137.691 L 336.253 137.575 336.253 133.258 L 336.253 128.941 337.111 129.600 C 340.771 132.410,345.952 131.632,348.082 127.952 C 349.740 125.086,349.818 119.742,348.248 116.591 C 346.824 113.733,342.967 112.114,339.955 113.109 M359.819 113.028 C 358.749 113.317,357.816 113.802,356.812 114.590 L 355.791 115.391 355.666 114.310 L 355.540 113.228 354.474 113.228 L 353.409 113.228 353.409 125.613 L 353.409 137.997 353.905 137.899 C 354.178 137.844,354.705 137.748,355.076 137.684 L 355.750 137.568 355.798 133.250 L 355.847 128.931 356.840 129.681 C 359.911 131.999,364.466 131.787,366.725 129.221 C 369.834 125.689,369.704 117.956,366.481 114.734 C 364.982 113.235,361.938 112.455,359.819 113.028 M380.084 113.132 C 379.510 113.258,379.001 113.399,378.954 113.446 C 378.907 113.493,380.380 117.461,382.228 122.264 L 385.587 130.997 385.254 131.988 C 384.201 135.122,382.423 136.164,379.344 135.449 L 378.642 135.287 378.757 136.387 C 378.903 137.787,378.744 137.698,381.099 137.698 C 385.594 137.698,385.387 137.991,390.905 123.744 C 393.049 118.208,394.843 113.578,394.892 113.454 C 394.959 113.285,394.641 113.228,393.639 113.228 L 392.296 113.228 389.616 120.541 C 388.141 124.563,386.911 127.829,386.882 127.800 C 386.823 127.741,381.400 113.033,381.400 112.931 C 381.400 112.849,381.336 112.858,380.084 113.132 M314.402 120.238 C 314.402 126.056,314.450 127.409,314.683 128.195 C 315.845 132.109,321.385 132.509,325.734 128.994 L 326.501 128.373 326.504 129.333 C 326.508 131.023,326.568 131.106,327.786 131.106 L 328.849 131.106 328.849 122.167 L 328.849 113.228 327.585 113.228 L 326.321 113.228 326.321 119.694 L 326.321 126.159 325.734 126.710 C 322.657 129.599,318.561 130.068,317.336 127.671 C 316.936 126.888,316.930 126.773,316.930 120.052 L 316.930 113.228 315.666 113.228 L 314.402 113.228 314.402 120.238 M230.350 115.337 C 233.684 116.472,235.217 121.934,233.337 125.972 C 231.000 130.988,224.539 130.002,223.196 124.424 C 221.804 118.639,225.661 113.739,230.350 115.337 M250.581 115.538 C 253.025 116.786,254.272 120.639,253.465 124.448 C 252.447 129.250,248.418 130.661,244.423 127.615 L 243.160 126.653 243.112 122.258 C 243.057 117.257,242.937 117.683,244.772 116.334 C 246.583 115.001,248.907 114.683,250.581 115.538 M343.759 115.535 C 345.777 116.566,346.911 118.976,346.905 122.221 C 346.892 128.792,342.103 131.312,337.235 127.307 L 336.255 126.501 336.254 122.141 L 336.253 117.780 336.868 117.240 C 339.303 115.102,341.734 114.501,343.759 115.535 M362.793 115.302 C 365.412 116.227,366.762 119.324,366.378 123.528 C 365.861 129.196,361.042 131.033,356.704 127.217 L 355.756 126.383 355.756 122.191 L 355.756 117.998 356.524 117.277 C 357.778 116.099,358.023 115.930,359.127 115.476 C 360.351 114.972,361.679 114.910,362.793 115.302 M271.061 123.778 L 271.061 126.383 270.293 127.041 C 266.712 130.111,261.490 129.846,261.490 126.595 C 261.490 124.208,263.621 122.782,269.074 121.520 C 271.258 121.015,271.061 120.791,271.061 123.778 M196.945 146.116 C 186.577 148.548,186.426 168.771,196.756 171.461 C 200.281 172.379,204.228 171.397,206.474 169.042 C 207.344 168.131,208.578 166.112,208.578 165.601 C 208.578 165.456,206.768 164.515,206.489 164.515 C 206.458 164.515,206.167 165.013,205.842 165.622 C 203.184 170.610,196.599 170.821,193.480 166.019 C 191.186 162.486,191.071 155.766,193.240 151.949 C 195.988 147.113,203.018 146.957,205.410 151.678 L 205.876 152.598 206.956 152.052 C 208.210 151.419,208.212 151.412,207.477 150.128 C 205.569 146.792,201.184 145.122,196.945 146.116 M214.041 146.314 L 212.912 146.488 212.912 158.932 L 212.912 171.377 214.176 171.377 L 215.440 171.377 215.440 164.800 L 215.440 158.223 216.479 157.391 C 219.684 154.820,223.258 154.610,224.424 156.923 C 224.824 157.716,224.831 157.835,224.831 164.553 L 224.831 171.377 226.095 171.377 L 227.359 171.377 227.357 164.470 C 227.356 160.670,227.304 157.256,227.242 156.882 C 226.558 152.740,220.591 151.836,216.412 155.240 L 215.440 156.031 215.440 151.063 C 215.440 148.331,215.379 146.105,215.305 146.118 C 215.230 146.130,214.661 146.219,214.041 146.314 M284.786 158.826 L 284.786 171.377 286.050 171.377 L 287.314 171.377 287.314 165.418 L 287.314 159.458 291.919 159.458 C 297.114 159.458,296.638 159.618,296.409 157.948 L 296.294 157.111 291.804 157.111 L 287.314 157.111 287.314 152.957 L 287.314 148.804 293.363 148.804 L 299.413 148.804 299.413 147.540 L 299.413 146.275 292.099 146.275 L 284.786 146.275 284.786 158.826 M250.706 146.846 C 250.229 147.086,249.856 148.091,250.031 148.665 C 250.550 150.368,253.002 149.957,253.002 148.167 C 253.002 147.046,251.744 146.322,250.706 146.846 M303.624 146.818 C 302.200 147.392,302.739 149.707,304.296 149.707 C 305.281 149.707,305.734 149.227,305.734 148.185 C 305.734 146.963,304.786 146.350,303.624 146.818 M236.954 153.405 C 235.085 153.828,231.512 155.814,231.512 156.429 C 231.512 156.647,232.621 158.014,232.797 158.014 C 232.875 158.014,233.464 157.616,234.106 157.129 C 238.138 154.077,242.889 154.908,242.889 158.665 L 242.889 159.602 241.670 159.811 C 233.554 161.207,229.950 164.208,231.131 168.591 C 232.075 172.099,237.803 172.648,242.036 169.637 C 242.997 168.954,243.031 168.978,243.110 170.384 L 243.160 171.287 244.289 171.340 L 245.418 171.394 245.418 164.580 C 245.418 156.459,245.368 156.135,243.892 154.668 C 242.500 153.283,239.721 152.777,236.954 153.405 M264.786 153.405 C 263.536 153.757,262.689 154.201,261.388 155.188 C 260.799 155.635,260.301 155.905,260.282 155.788 C 260.263 155.671,260.196 155.108,260.134 154.537 L 260.019 153.499 258.949 153.499 L 257.878 153.499 257.878 162.438 L 257.878 171.377 259.052 171.377 L 260.226 171.377 260.226 164.890 L 260.226 158.403 261.170 157.577 C 264.349 154.796,268.326 154.520,269.453 157.002 C 269.761 157.682,269.789 158.302,269.793 164.560 L 269.797 171.377 271.070 171.377 L 272.344 171.377 272.289 164.018 C 272.228 155.782,272.224 155.750,270.858 154.456 C 269.624 153.286,266.889 152.813,264.786 153.405 M317.700 153.406 C 316.438 153.760,315.210 154.398,314.093 155.280 C 313.043 156.110,312.964 156.046,312.960 154.357 L 312.957 153.499 311.783 153.499 L 310.609 153.499 310.609 162.438 L 310.609 171.377 311.874 171.377 L 313.138 171.377 313.138 164.817 L 313.138 158.256 314.176 157.407 C 317.320 154.837,320.901 154.563,322.179 156.795 L 322.619 157.562 322.675 164.470 L 322.732 171.377 323.894 171.377 L 325.056 171.377 325.049 164.108 C 325.040 156.264,325.022 156.094,324.059 154.831 C 322.989 153.429,320.004 152.760,317.700 153.406 M334.628 153.418 C 333.127 153.740,331.139 154.745,330.006 155.753 L 329.120 156.543 329.861 157.294 L 330.602 158.046 331.847 157.140 C 335.636 154.384,339.903 154.724,340.571 157.837 C 340.951 159.607,341.035 159.512,338.662 159.975 C 331.500 161.371,328.371 163.775,328.719 167.617 C 329.116 171.995,335.326 173.022,340.043 169.489 C 340.390 169.230,340.688 169.081,340.707 169.159 C 340.725 169.237,340.793 169.767,340.857 170.339 L 340.974 171.377 342.052 171.377 L 343.130 171.377 343.078 164.018 L 343.025 156.659 342.464 155.666 C 341.216 153.454,338.326 152.625,334.628 153.418 M354.901 153.406 C 353.639 153.759,352.411 154.398,351.296 155.279 L 350.379 156.004 350.269 155.451 C 350.208 155.147,350.158 154.584,350.158 154.199 L 350.158 153.499 348.984 153.499 L 347.810 153.499 347.810 162.438 L 347.810 171.377 349.074 171.377 L 350.339 171.377 350.339 164.817 L 350.339 158.256 351.377 157.407 C 354.522 154.836,358.216 154.563,359.419 156.814 C 359.809 157.543,359.821 157.736,359.874 164.470 L 359.929 171.377 361.101 171.377 L 362.272 171.377 362.220 163.837 C 362.162 155.543,362.166 155.578,360.963 154.456 C 359.756 153.330,356.923 152.839,354.901 153.406 M371.847 153.412 C 367.370 154.669,365.005 159.789,366.322 165.374 C 367.900 172.069,375.777 174.010,379.774 168.690 C 380.696 167.464,380.682 167.243,379.644 166.616 L 378.791 166.101 378.515 166.522 C 375.112 171.716,369.457 170.103,368.564 163.684 C 367.570 156.536,374.742 152.068,378.077 157.758 C 378.628 158.698,378.622 158.697,379.677 158.060 C 380.642 157.477,380.651 157.424,379.985 156.378 C 378.325 153.772,374.949 152.541,371.847 153.412 M388.958 153.556 C 384.039 155.233,381.919 162.046,384.606 167.542 C 386.736 171.898,392.902 173.068,397.163 169.925 C 398.664 168.818,398.720 168.687,398.075 167.776 C 397.441 166.880,397.488 166.879,396.338 167.815 C 391.945 171.394,386.766 169.355,386.008 163.747 L 385.892 162.889 392.248 162.889 L 398.604 162.889 398.513 161.129 C 398.210 155.251,393.932 151.861,388.958 153.556 M250.293 162.438 L 250.293 171.377 251.558 171.377 L 252.822 171.377 252.822 162.438 L 252.822 153.499 251.558 153.499 L 250.293 153.499 250.293 162.438 M303.025 162.438 L 303.025 171.377 304.289 171.377 L 305.553 171.377 305.553 162.438 L 305.553 153.499 304.289 153.499 L 303.025 153.499 303.025 162.438 M393.241 155.735 C 394.727 156.427,395.757 158.006,396.112 160.135 L 396.239 160.903 391.144 160.903 L 386.049 160.903 386.166 160.135 C 386.717 156.529,390.240 154.338,393.241 155.735 M242.889 164.140 L 242.889 166.836 242.212 167.398 C 239.247 169.859,234.743 170.212,233.710 168.064 C 232.494 165.536,234.851 163.309,240.035 162.088 C 242.143 161.591,242.562 161.495,242.754 161.466 C 242.828 161.454,242.889 162.658,242.889 164.140 M340.767 164.028 L 340.767 166.611 340.181 167.167 C 337.483 169.722,332.829 170.307,331.540 168.253 C 330.663 166.858,331.397 164.869,333.200 163.751 C 334.412 162.999,339.088 161.539,340.542 161.457 C 340.712 161.448,340.767 162.075,340.767 164.028 " stroke="none" fill="#4ca4e4" fill-rule="evenodd"></path><path id="path2" d="" stroke="none" fill="#100d0f0" fill-rule="evenodd"></path><path id="path3" d="" stroke="none" fill="#100d0f0" fill-rule="evenodd"></path><path id="path4" d="" stroke="none" fill="#100d0f0" fill-rule="evenodd"></path></g></svg>