<?xml version="1.0" standalone="no"?>
<svg version="1.0" xmlns="http://www.w3.org/2000/svg"
 width="2100.000000pt" height="484.000000pt" viewBox="0 0 2100.000000 484.000000"
 preserveAspectRatio="xMidYMid meet">
<g transform="translate(0.000000,484.000000) scale(0.100000,-0.100000)"
fill="#000000" stroke="none" fill-opacity="0.8">
<path d="M18590 4825 c-9 -10 -11 -39 -8 -90 3 -41 2 -75 -1 -75 -4 0 -25 18
-46 40 -73 75 -113 30 -56 -62 46 -73 42 -104 -21 -178 -92 -107 -100 -120
-93 -161 7 -42 -2 -64 -50 -124 -18 -22 -56 -87 -86 -145 -29 -58 -71 -125
-94 -149 -38 -42 -40 -46 -40 -110 0 -48 6 -78 23 -112 24 -50 32 -55 137 -89
l70 -23 43 22 c35 18 43 28 53 66 10 39 21 52 78 94 155 114 241 123 241 24 0
-85 -80 -278 -170 -407 -63 -92 -211 -236 -307 -299 -89 -59 -220 -121 -304
-144 -99 -27 -285 -23 -494 11 -225 37 -355 34 -494 -13 -51 -17 -121 -47
-154 -67 -70 -41 -93 -41 -182 0 -66 30 -132 90 -237 216 -144 173 -230 227
-379 237 -60 5 -91 1 -146 -15 -233 -71 -364 -277 -350 -552 11 -221 109 -379
344 -558 90 -68 103 -85 103 -132 0 -51 -27 -87 -104 -139 -87 -59 -122 -98
-137 -153 -28 -106 43 -198 153 -198 24 0 54 7 67 16 l23 16 -27 28 c-52 54
-19 92 115 135 83 27 166 74 205 116 59 65 80 177 51 273 -23 77 -70 137 -181
235 -129 113 -157 153 -163 230 -3 44 0 60 12 70 14 12 21 9 49 -24 l33 -38
19 42 c23 52 95 117 136 123 39 6 45 -5 18 -41 -25 -35 -28 -91 -5 -127 l17
-25 32 35 c39 41 71 51 135 42 26 -4 71 -10 100 -13 28 -3 52 -7 52 -10 0 -2
-14 -24 -31 -49 -102 -149 -132 -336 -92 -587 14 -90 15 -115 5 -155 -31 -118
-114 -228 -251 -332 -43 -33 -78 -69 -92 -95 -23 -42 -23 -43 -9 -214 14 -184
10 -324 -16 -571 -9 -80 -18 -172 -21 -206 l-5 -61 76 -75 c57 -56 76 -82 78
-104 1 -16 3 -38 4 -49 1 -11 2 -33 3 -48 1 -15 12 -39 26 -52 23 -24 29 -25
163 -25 152 0 162 3 162 57 0 54 -35 110 -98 156 -91 67 -155 137 -176 192
-31 82 -32 260 -3 510 27 236 42 281 115 347 53 48 67 55 148 72 90 19 167 48
238 91 l59 35 -6 -36 c-4 -20 -18 -53 -32 -73 -98 -137 -95 -130 -95 -193 0
-73 16 -104 90 -183 104 -110 328 -408 389 -516 17 -31 31 -70 31 -88 0 -56
28 -100 80 -126 58 -30 66 -39 81 -100 21 -90 34 -120 59 -132 16 -8 71 -13
152 -13 102 0 130 3 142 16 21 20 20 60 -3 109 -24 51 -67 92 -167 158 -92 62
-145 124 -247 287 -39 63 -109 166 -155 228 -97 130 -138 206 -152 282 -19
102 16 166 119 213 84 38 129 73 205 163 73 85 146 206 188 309 29 70 32 75
61 75 17 0 144 -14 282 -31 218 -27 272 -30 420 -26 223 6 327 26 497 93 144
57 180 62 266 43 43 -10 59 -9 118 9 85 26 241 101 384 187 170 100 247 136
307 142 l55 6 69 -71 c83 -87 117 -156 189 -377 64 -196 69 -207 103 -223 36
-18 34 -35 -13 -112 -44 -71 -47 -88 -26 -128 32 -60 165 -152 221 -152 69 0
96 88 77 255 -12 114 -19 131 -107 270 -59 94 -169 313 -200 400 -43 122 -130
307 -161 344 -19 22 -50 45 -69 51 -34 11 -213 8 -402 -6 -88 -7 -97 8 -19 30
72 21 164 63 256 117 104 62 124 69 181 69 143 0 408 -230 520 -451 28 -56 43
-69 79 -69 10 0 28 -9 41 -19 23 -18 23 -21 12 -76 -23 -106 21 -152 165 -176
82 -14 138 -6 152 21 29 53 -13 153 -100 239 -31 31 -67 72 -80 91 -13 19 -76
87 -141 150 -64 63 -182 192 -262 286 -201 236 -241 266 -352 267 -89 1 -457
-21 -481 -28 -31 -9 -76 47 -72 89 3 30 5 31 51 30 42 0 47 2 47 21 0 46 -32
126 -71 175 -52 66 -49 94 14 110 63 16 106 41 135 79 l27 34 -25 16 c-42 27
-131 114 -146 142 -13 26 -13 27 25 33 51 8 101 43 128 91 28 50 29 65 2 65
-35 0 -56 18 -88 74 -22 40 -47 66 -91 96 -33 22 -66 53 -74 67 -13 25 -12 30
9 58 29 38 47 103 39 144 -8 41 -17 45 -53 26 -65 -33 -104 -14 -151 74 -43
80 -94 127 -175 160 -64 25 -70 31 -83 69 -9 29 -23 47 -43 57 -27 15 -29 14
-29 -5 0 -11 -11 -27 -25 -36 -36 -24 -84 -11 -126 32 -19 20 -58 47 -87 61
-39 19 -58 36 -72 64 -24 46 -34 53 -50 34z m-1 -215 c10 0 12 -15 9 -60 -3
-45 -1 -61 10 -65 15 -5 14 -11 -4 -127 -5 -30 -2 -40 16 -55 65 -53 81 -89
33 -76 -47 13 -81 7 -117 -20 -53 -41 -131 -151 -186 -263 -45 -92 -53 -102
-90 -117 -37 -14 -40 -18 -40 -54 0 -21 11 -62 25 -91 14 -30 25 -56 25 -58 0
-2 -15 -1 -32 3 -60 11 -98 63 -98 133 0 45 9 68 51 120 15 19 42 64 60 99 17
36 62 112 100 170 65 100 69 108 63 148 -7 48 11 86 66 138 39 37 70 95 70
132 0 15 -9 43 -20 61 -29 47 -25 51 13 14 18 -18 39 -32 46 -32z m422 -252
c128 -60 242 -177 294 -305 53 -132 70 -332 40 -493 -8 -41 -13 -58 -11 -37 1
20 0 37 -4 37 -3 -1 -39 -42 -80 -91 -81 -99 -79 -96 -130 -155 -61 -70 -126
-147 -174 -204 l-46 -55 26 -22 c14 -13 21 -23 15 -23 -5 0 -22 10 -37 23 -37
32 -28 59 44 140 80 87 116 141 167 250 60 127 87 237 93 379 10 261 -81 442
-276 546 -34 18 -62 36 -62 39 0 13 91 -6 141 -29z m-2946 -1129 c33 -6 80
-21 106 -34 56 -29 154 -117 175 -157 l15 -29 -33 5 c-18 2 -60 11 -93 20 -40
11 -99 17 -175 17 -63 0 -130 0 -148 0 -51 1 -102 -32 -161 -102 -91 -108
-101 -119 -111 -119 -6 0 -10 9 -10 19 0 11 -7 26 -15 35 -55 55 61 241 190
306 48 23 136 47 181 49 11 1 47 -4 79 -10z m1325 -385 c59 -14 100 -36 100
-55 0 -4 -48 -6 -107 -4 l-108 4 90 -9 c50 -5 149 -18 220 -30 72 -12 182 -25
245 -29 101 -6 109 -7 68 -14 -64 -11 -214 -64 -192 -69 9 -1 -52 -3 -137 -4
-123 0 -172 -5 -242 -22 -177 -44 -333 -129 -482 -263 -38 -35 -57 -49 -41
-31 17 18 26 32 21 32 -5 0 -50 -14 -98 -32 -62 -22 -91 -38 -97 -52 -15 -36
-11 -2 6 55 54 183 190 329 379 406 81 33 92 45 17 19 -40 -15 -61 -8 -47 14
3 6 -1 13 -9 16 -24 9 -19 18 23 42 92 52 236 62 391 26z m2617 -374 c17 -10
37 -29 43 -41 11 -20 11 -21 -11 -15 -52 16 -118 25 -204 27 -105 2 -160 12
-132 24 27 12 115 22 197 24 58 1 82 -3 107 -19z m-3532 -822 c-21 -70 -67
-131 -177 -238 -74 -73 -122 -128 -129 -150 -11 -30 -13 -31 -20 -14 -13 32
-10 103 5 132 17 31 58 71 136 130 30 22 82 68 115 101 64 65 80 74 70 39z"/>
<path d="M2870 2219 c-92 -14 -204 -54 -285 -101 -87 -51 -217 -181 -268 -268
-117 -201 -141 -488 -59 -715 106 -296 362 -482 692 -502 325 -19 613 143 750
422 58 119 79 197 86 325 25 392 -210 729 -571 821 -94 24 -253 32 -345 18z
m243 -284 c179 -38 311 -172 358 -365 19 -78 17 -232 -5 -305 -56 -188 -185
-312 -360 -344 -176 -32 -342 13 -450 123 -64 64 -101 132 -126 232 -37 143
-18 315 47 437 97 182 310 270 536 222z" fill="#024731"/>
<path d="M7248 2200 c-158 -39 -281 -129 -339 -245 -25 -51 -32 -81 -36 -147
-7 -105 12 -176 66 -248 78 -103 177 -160 423 -241 84 -28 175 -62 202 -77
134 -73 134 -232 1 -297 -167 -81 -470 -38 -643 92 -18 14 -34 23 -36 22 -1
-2 -9 -22 -18 -44 -8 -22 -32 -77 -51 -122 l-36 -82 29 -21 c50 -36 191 -98
270 -119 412 -110 782 20 875 307 13 41 16 77 13 150 -5 124 -34 188 -123 270
-81 76 -167 120 -380 192 -200 68 -258 97 -281 142 -26 50 -14 115 29 155 52
47 102 58 252 57 106 -1 147 -6 225 -27 52 -14 96 -25 97 -23 1 1 24 52 51
114 36 80 47 114 38 120 -22 18 -155 61 -236 76 -114 22 -294 20 -392 -4z"
 fill="#024731"/>
<path d="M0 1430 l0 -780 439 0 439 0 46 138 c25 75 46 141 46 145 0 4 -153 6
-340 5 l-340 -3 0 638 0 637 -145 0 -145 0 0 -780z" fill="#024731"/>
<path d="M1190 1430 l0 -780 443 0 442 0 48 138 c26 76 47 141 47 145 0 4
-153 6 -340 5 l-340 -3 0 638 0 637 -150 0 -150 0 0 -780z" fill="#024731"/>
<path d="M3801 2113 c104 -251 265 -540 448 -803 l101 -145 0 -257 0 -258 155
0 155 0 0 260 0 260 85 121 c100 143 229 352 308 499 52 98 166 347 181 398
l7 22 -168 0 -169 0 -33 -92 c-52 -140 -169 -366 -274 -526 l-94 -144 -90 139
c-112 170 -197 330 -262 493 l-50 125 -170 3 -170 2 40 -97z" fill="#024731"/>
<path d="M5410 1431 l0 -781 298 0 c345 0 423 11 563 77 206 98 347 265 411
489 33 115 33 335 0 449 -76 261 -265 440 -547 517 -73 19 -110 22 -402 26
l-323 4 0 -781z m649 475 c173 -47 293 -166 330 -327 6 -24 11 -87 11 -139 0
-155 -37 -262 -123 -356 -101 -111 -190 -144 -414 -151 l-163 -6 0 503 0 503
153 -6 c83 -4 176 -13 206 -21z" fill="#024731"/>
<path d="M8870 1429 l0 -780 368 3 c346 4 371 6 442 27 155 47 263 131 318
248 24 52 27 69 27 168 0 98 -3 116 -26 166 -15 31 -43 75 -64 97 -39 43 -134
97 -191 108 l-33 6 59 30 c117 58 191 176 192 308 1 82 -8 122 -39 183 -49 97
-141 162 -281 198 -67 17 -112 19 -424 19 l-348 0 0 -781z m677 516 c29 -8 65
-27 82 -40 65 -56 58 -199 -13 -261 -55 -48 -95 -56 -283 -61 l-173 -5 0 198
0 197 168 -6 c107 -4 186 -12 219 -22z m15 -626 c79 -16 136 -53 159 -102 41
-92 13 -216 -60 -265 -63 -41 -126 -53 -318 -59 l-183 -6 0 222 0 221 175 0
c95 0 198 -5 227 -11z" fill="#024731"/>
<path d="M10721 2183 c-14 -31 -650 -1500 -658 -1520 -4 -10 33 -13 163 -13
l169 0 69 181 69 181 36 -7 c178 -34 394 -34 572 0 l35 7 70 -179 70 -178 168
-3 c133 -2 167 0 163 10 -9 24 -645 1493 -658 1521 l-12 27 -122 0 -122 0 -12
-27z m359 -932 c0 -19 -278 -29 -398 -14 -46 5 -53 9 -49 25 3 10 54 144 114
297 l108 278 112 -289 c62 -159 113 -293 113 -297z" fill="#024731"/>
<path d="M11780 1430 l0 -780 140 0 140 0 0 572 0 572 183 -314 c101 -173 250
-431 332 -572 l149 -258 178 0 178 0 0 780 0 780 -140 0 -140 0 0 -557 0 -557
-163 280 c-90 153 -236 404 -326 557 l-163 277 -184 0 -184 0 0 -780z"
 fill="#024731"/>
<path d="M13400 1430 l0 -780 140 0 140 0 0 375 0 375 341 -373 342 -372 198
-5 c120 -3 199 -1 199 4 0 5 -67 77 -148 160 -229 233 -617 636 -620 645 -3 8
237 259 550 577 87 88 158 163 158 167 0 4 -84 7 -187 7 l-188 0 -320 -345
-320 -345 -3 345 -2 345 -140 0 -140 0 0 -780z" fill="#024731"/>
</g>
</svg>
