<?xml version="1.0" encoding="UTF-8" standalone="no"?>
<svg
   xmlns:dc="http://purl.org/dc/elements/1.1/"
   xmlns:cc="http://creativecommons.org/ns#"
   xmlns:rdf="http://www.w3.org/1999/02/22-rdf-syntax-ns#"
   xmlns:svg="http://www.w3.org/2000/svg"
   xmlns="http://www.w3.org/2000/svg"
   version="1.1"
   width="512"
   height="512"
   id="gr-flag-sml">
  <metadata
     id="metadata3408">
    <rdf:RDF>
      <cc:Work
         rdf:about="">
        <dc:format>image/svg+xml</dc:format>
        <dc:type
           rdf:resource="http://purl.org/dc/dcmitype/StillImage" />
        <dc:title></dc:title>
      </cc:Work>
    </rdf:RDF>
  </metadata>
  <defs
     id="defs3373">
    <clipPath
       id="a">
      <path
         id="path3376"
         d="M0 0h666v666H0z"
         fill-opacity=".67" />
    </clipPath>
  </defs>
  <g
     id="g3378"
     transform="scale(.77)"
     clip-path="url(#a)">
    <g
       id="g3380"
       stroke-width="1pt"
       fill-rule="evenodd">
      <path
         id="path3382"
         d="M0 0h999v74H0z"
         fill="#0d5eaf" />
      <path
         id="path3384"
         d="M0 74h999v74H0z"
         fill="#fff" />
      <path
         id="path3386"
         d="M0 148h999v74H0z"
         fill="#0d5eaf" />
      <path
         id="path3388"
         d="M0 222h999v74H0z"
         fill="#fff" />
      <path
         id="path3390"
         d="M0 296h999v74H0z"
         fill="#0d5eaf" />
      <path
         id="path3392"
         d="M0 370h999v74H0z"
         fill="#fff" />
      <path
         id="path3394"
         d="M0 444h999v74H0z"
         fill="#0d5eaf" />
      <path
         id="path3396"
         d="M0 518h999v74H0z"
         fill="#fff" />
      <path
         id="path3398"
         d="M0 592h999v74H0zM0 0h370v370H0z"
         fill="#0d5eaf" />
      <g
         id="g3400"
         fill="#fff">
        <path
           id="path3402"
           d="M148 0h74v370h-74z" />
        <path
           id="path3404"
           d="M0 148h370v74H0z" />
      </g>
    </g>
  </g>
</svg>
